<svg xmlns="http://www.w3.org/2000/svg" viewBox="0 0 134 134"><defs><style>.a{fill:#fff;}.b{fill:#f8fafb;stroke:#b5bcce;}.c{fill:none;}.d{fill:#b5bcce;}</style></defs><title>login-user</title><path class="a" d="M67,133.5A66.5,66.5,0,1,0,.5,67,66.5,66.5,0,0,0,67,133.5Z" transform="translate(0 0)"/><path class="b" d="M67,133.5A66.5,66.5,0,1,0,.5,67,66.5,66.5,0,0,0,67,133.5Z" transform="translate(0 0)"/><path class="c" d="M27.5,120.49a47.47,47.47,0,0,1,19.25-16.28l0.38-.17c1.42-.64,2.88-1.22,4.35-1.72l0.48-.17c0.7-.23,1.43-0.46,2.18-0.67,0.94-.27,1.88-0.51,2.88-0.72l1.52-.29,1.39-.24h0.2c0.68-.11,1.36-0.2,2-0.27l0.75-.07h0.3l0.64,0a50.51,50.51,0,0,1,6.72,0L72.4,100c0.56,0.06,1,.13,1.56.2h0.36q0.93,0.13,1.84.3H76.4l1.06,0.2q1.5,0.33,3,.75L82.39,102c0.81,0.26,1.68.58,2.4,0.85s1.43,0.56,2.13.87l0.29,0.13,0,0.07a47.36,47.36,0,0,1,19.7,16.23A66.5,66.5,0,1,0,27.5,120.49ZM37.65,65.87V65.5c1-15.13,14-27,29.69-27,16.43,0,29.79,12.94,29.77,28.84v0.24a28.29,28.29,0,0,1-10.82,22l-1.2.9c-0.34.26-.69,0.53-1.06,0.77-0.7.47-1.4,0.87-2.1,1.25l-0.42.21c-0.63.33-1.26,0.61-1.89,0.88l-0.21.1-0.53.24c-0.46.19-.92,0.35-1.38,0.5l-0.62.2-0.72.25c-0.39.11-.79,0.21-1.18,0.3l-0.8.2a7.23,7.23,0,0,1-.86.21c-0.43.08-.84,0.14-1.25,0.19l-0.73.11a5.87,5.87,0,0,1-1,.14q-1.5.15-3,.15H67.1a30.48,30.48,0,0,1-8.65-1.3l-0.88-.31-0.76-.27c-0.36-.12-0.72-0.25-1.07-0.39a28.79,28.79,0,0,1-18.16-26.6C37.58,66.87,37.65,66.35,37.65,65.87Z" transform="translate(0 0)"/><path class="c" d="M63.7,43.26A25.09,25.09,0,0,0,44.57,57.08,26.49,26.49,0,0,1,63.7,43.26Z" transform="translate(0 0)"/><path class="c" d="M47.63,108.79a41.78,41.78,0,0,0-16.36,14.28l0.48,0.31A54.83,54.83,0,0,1,47.63,108.79Z" transform="translate(0 0)"/><path class="a" d="M85.19,107.86l-0.11-.05q-0.93-.42-2-0.83t-2.16-.76l-1.76-.52c-0.9-.26-1.8-0.49-2.72-0.68l-0.93-.18H75.25l-1.68-.27L73,104.5l-1.16-.08-1.48-.12a42.5,42.5,0,0,0-6.22,0l-1.53.13c-0.66.07-1.33,0.16-2,.26H60.47l-1.1.19-1.37.26c-0.87.19-1.74,0.41-2.59,0.65-0.68.18-1.34,0.39-2,.61l-0.38.13a37.66,37.66,0,0,0-3.57,1.39l-0.05,0-0.48.18c-0.44.2-.87,0.43-1.3,0.64a54.83,54.83,0,0,0-15.88,14.59,66.31,66.31,0,0,0,8.19,4.36,38.47,38.47,0,0,1,15.81-12.8,4.22,4.22,0,0,1,4.88.94v0c1,1.3.46,3-1.23,3.74A32,32,0,0,0,46.3,130.2a66.47,66.47,0,0,0,56.88-7.42A41.78,41.78,0,0,0,85.19,107.86Z" transform="translate(0 0)"/><path class="a" d="M44.57,57.08a23.55,23.55,0,0,0-2.29,8.72v0.41a7.07,7.07,0,0,0-.06,1.13A24.29,24.29,0,0,0,57.57,89.72c0.26,0.11.53,0.2,0.8,0.29l0.88,0.31a6.32,6.32,0,0,0,.61.22,25.73,25.73,0,0,0,7.46,1.1h0.21c0.79,0,1.57,0,2.35-.13,0.24,0,.46-0.09.67-0.09l0.89-.13c0.31,0,.63-0.08.94-0.14L73,91l0.93-.23c0.29-.07.58-0.13,0.87-0.22l0.45-.16L76,90.13c0.37-.12.75-0.25,1.1-0.39l0.62-.29c0.58-.24,1.07-0.47,1.58-0.73l0.33-.2a16,16,0,0,0,1.76-1c0.31-.21.56-0.4,0.81-0.6l1.11-.82A24,24,0,0,0,92.5,67.38V67.14C92.5,53.93,81.19,43,67.28,43a25.76,25.76,0,0,0-3.58.25A26.49,26.49,0,0,0,44.57,57.08Z" transform="translate(0 0)"/><path class="d" d="M87.25,103.93l0-.07-0.29-.13q-1-.46-2.13-0.87c-0.72-.27-1.59-0.59-2.4-0.85l-1.93-.58q-1.5-.42-3-0.75l-1.06-.2H76.16q-0.91-.17-1.84-0.3H74c-0.51-.07-1-0.14-1.56-0.2l-1.81-.14a50.51,50.51,0,0,0-6.72,0l-0.64,0h-0.3l-0.75.07c-0.69.07-1.37,0.16-2,.27h-0.2l-1.39.24-1.52.29c-1,.21-1.94.45-2.88,0.72-0.75.21-1.48,0.44-2.18,0.67l-0.48.17c-1.47.5-2.93,1.08-4.35,1.72l-0.38.17A47.47,47.47,0,0,0,27.5,120.49c1.22,0.9,2.48,1.76,3.77,2.58a41.78,41.78,0,0,1,16.36-14.28c0.43-.21.86-0.44,1.3-0.64l0.48-.18,0.05,0A37.66,37.66,0,0,1,53,106.53l0.38-.13c0.66-.22,1.32-0.43,2-0.61,0.85-.24,1.72-0.46,2.59-0.65l1.37-.26,1.1-.19h0.18c0.67-.1,1.34-0.19,2-0.26l1.53-.13a42.5,42.5,0,0,1,6.22,0l1.48,0.12L73,104.5l0.53,0.07,1.68,0.27h0.26L76.44,105c0.92,0.19,1.82.42,2.72,0.68l1.76,0.52q1.09,0.35,2.16.76t2,0.83l0.11,0.05a41.78,41.78,0,0,1,18,14.92c1.28-.83,2.54-1.7,3.76-2.62A47.36,47.36,0,0,0,87.25,103.93Z" transform="translate(0 0)"/><path class="d" d="M55.74,93.91c0.35,0.14.71,0.27,1.07,0.39l0.76,0.27,0.88,0.31a30.48,30.48,0,0,0,8.65,1.3h0.24q1.5,0,3-.15a5.87,5.87,0,0,0,1-.14l0.73-.11c0.41,0,.82-0.11,1.25-0.19a7.23,7.23,0,0,0,.86-0.21l0.8-.2c0.39-.09.79-0.19,1.18-0.3l0.72-.25,0.62-.2c0.46-.15.92-0.31,1.38-0.5l0.53-.24,0.21-.1c0.63-.27,1.26-0.55,1.89-0.88l0.42-.21c0.7-.38,1.4-0.78,2.1-1.25,0.37-.24.72-0.51,1.06-0.77l1.2-.9a28.29,28.29,0,0,0,10.82-22V67.34c0-15.9-13.34-28.84-29.77-28.84-15.67,0-28.72,11.87-29.69,27v0.37c0,0.48-.07,1-0.07,1.44A28.79,28.79,0,0,0,55.74,93.91Zm8-50.65A25.76,25.76,0,0,1,67.28,43C81.19,43,92.5,53.93,92.5,67.14v0.24A24,24,0,0,1,83.29,86.1l-1.11.82c-0.25.2-.5,0.39-0.81,0.6a16,16,0,0,1-1.76,1l-0.33.2c-0.51.26-1,.49-1.58,0.73l-0.62.29c-0.35.14-.73,0.27-1.1,0.39l-0.77.27-0.45.16c-0.29.09-.58,0.15-0.87,0.22L73,91l-0.58.14c-0.31.06-.63,0.1-0.94,0.14l-0.89.13c-0.21,0-.43.07-0.67,0.09-0.78.08-1.56,0.12-2.35,0.13H67.32a25.73,25.73,0,0,1-7.46-1.1,6.32,6.32,0,0,1-.61-0.22L58.37,90c-0.27-.09-0.54-0.18-0.8-0.29A24.29,24.29,0,0,1,42.22,67.34a7.07,7.07,0,0,1,.06-1.13V65.8a23.55,23.55,0,0,1,2.29-8.72A25.09,25.09,0,0,1,63.7,43.26Z" transform="translate(0 0)"/><path class="d" d="M59.4,119.64c1.69-.77,2.24-2.44,1.23-3.74v0a4.22,4.22,0,0,0-4.88-.94,38.47,38.47,0,0,0-15.81,12.8,66,66,0,0,0,6.36,2.46A32,32,0,0,1,59.4,119.64Z" transform="translate(0 0)"/></svg>