<?xml version="1.0" encoding="UTF-8" standalone="no"?>
<svg width="1680px" height="417px" viewBox="0 0 1680 417" version="1.1" xmlns="http://www.w3.org/2000/svg" xmlns:xlink="http://www.w3.org/1999/xlink">
    <!-- Generator: Sketch 39.1 (31720) - http://www.bohemiancoding.com/sketch -->
    <title>Page 1 Copy</title>
    <desc>Created with Sketch.</desc>
    <defs></defs>
    <g id="Page-1" stroke="none" stroke-width="1" fill="none" fill-rule="evenodd" opacity="0.0928171642">
        <g id="Log-in" transform="translate(0.000000, -563.000000)" fill="#FFFFFF">
            <g id="Page-1-Copy" transform="translate(-546.000000, 535.000000)">
                <path d="M855.054355,185.723905 C819.221111,185.723905 790.068428,214.873497 790.068428,250.705151 C790.068428,286.536804 819.221111,315.688193 855.054355,315.688193 C890.887599,315.688193 920.040282,286.536804 920.040282,250.705151 C920.040282,214.873497 890.887599,185.723905 855.054355,185.723905 M855.054355,324.351521 C814.444662,324.351521 781.404715,291.314837 781.404715,250.705151 C781.404715,210.097261 814.444662,177.058781 855.054355,177.058781 C895.664048,177.058781 928.703995,210.097261 928.703995,250.705151 C928.703995,291.314837 895.664048,324.351521 855.054355,324.351521" id="Fill-5"></path>
                <path d="M1130.79142,134.794745 C1105.00866,134.794745 1084.03468,155.769591 1084.03468,181.549413 C1084.03468,207.331031 1105.00866,228.305877 1130.79142,228.305877 C1156.57239,228.305877 1177.54816,207.331031 1177.54816,181.549413 C1177.54816,155.769591 1156.57239,134.794745 1130.79142,134.794745 M1130.79142,234.538874 C1101.57048,234.538874 1077.79961,210.769059 1077.79961,181.549413 C1077.79961,152.331563 1101.57048,128.559952 1130.79142,128.559952 C1160.01236,128.559952 1183.78324,152.331563 1183.78324,181.549413 C1183.78324,210.769059 1160.01236,234.538874 1130.79142,234.538874" id="Fill-11"></path>
                <path d="M638.596267,290.539933 C622.427477,290.539933 609.272933,303.693893 609.272933,319.861966 C609.272933,336.030039 622.427477,349.182203 638.596267,349.182203 C654.765058,349.182203 667.917806,336.030039 667.917806,319.861966 C667.917806,303.693893 654.765058,290.539933 638.596267,290.539933 M638.596267,353.092645 C620.271878,353.092645 605.364113,338.185542 605.364113,319.861966 C605.364113,301.53839 620.271878,286.631287 638.596267,286.631287 C656.920657,286.631287 671.828422,301.53839 671.828422,319.861966 C671.828422,338.185542 656.920657,353.092645 638.596267,353.092645" id="Fill-19"></path>
                <path d="M1293.42617,296.861845 C1277.25738,296.861845 1264.10284,310.014009 1264.10284,326.182082 C1264.10284,342.350155 1277.25738,355.504115 1293.42617,355.504115 C1309.59317,355.504115 1322.74771,342.350155 1322.74771,326.182082 C1322.74771,310.014009 1309.59317,296.861845 1293.42617,296.861845 M1293.42617,359.412761 C1275.10178,359.412761 1260.19402,344.505658 1260.19402,326.182082 C1260.19402,307.860302 1275.10178,292.951403 1293.42617,292.951403 C1311.74877,292.951403 1326.65833,307.860302 1326.65833,326.182082 C1326.65833,344.505658 1311.74877,359.412761 1293.42617,359.412761" id="Fill-21"></path>
                <path d="M981.257324,64.5206607 C965.088534,64.5206607 951.935786,77.6746208 951.935786,93.8426934 C951.935786,110.00897 965.088534,123.16293 981.257324,123.16293 C997.426114,123.16293 1010.58066,110.00897 1010.58066,93.8426934 C1010.58066,77.6746208 997.426114,64.5206607 981.257324,64.5206607 M981.257324,127.073373 C962.932934,127.073373 948.025169,112.16627 948.025169,93.8426934 C948.025169,75.5191173 962.932934,60.6120143 981.257324,60.6120143 C999.581714,60.6120143 1014.48948,75.5191173 1014.48948,93.8426934 C1014.48948,112.16627 999.581714,127.073373 981.257324,127.073373" id="Fill-25"></path>
                <path d="M543.390635,439.312247 C534.971224,439.312247 528.121807,446.161359 528.121807,454.580397 C528.121807,462.999434 534.971224,469.848547 543.390635,469.848547 C551.810046,469.848547 558.659463,462.999434 558.659463,454.580397 C558.659463,446.161359 551.810046,439.312247 543.390635,439.312247 M543.390635,475.237305 C532.00009,475.237305 522.732809,465.970437 522.732809,454.580397 C522.732809,443.190357 532.00009,433.923488 543.390635,433.923488 C554.781181,433.923488 564.048461,443.190357 564.048461,454.580397 C564.048461,465.970437 554.781181,475.237305 543.390635,475.237305" id="Fill-41"></path>
                <path d="M1314.01735,441.1085 C1305.59794,441.1085 1298.74853,447.957612 1298.74853,456.37665 C1298.74853,464.795687 1305.59794,471.6448 1314.01735,471.6448 C1322.43497,471.6448 1329.28618,464.795687 1329.28618,456.37665 C1329.28618,447.957612 1322.43497,441.1085 1314.01735,441.1085 M1314.01735,477.033558 C1302.62681,477.033558 1293.35953,467.766689 1293.35953,456.37665 C1293.35953,444.98661 1302.62681,435.719741 1314.01735,435.719741 C1325.4079,435.719741 1334.67518,444.98661 1334.67518,456.37665 C1334.67518,467.766689 1325.4079,477.033558 1314.01735,477.033558" id="Fill-45"></path>
                <path d="M809.247872,62.0991321 C800.82846,62.0991321 793.979044,68.9482445 793.979044,77.367282 C793.979044,85.7863194 800.82846,92.6354319 809.247872,92.6354319 C817.665487,92.6354319 824.516699,85.7863194 824.516699,77.367282 C824.516699,68.9482445 817.665487,62.0991321 809.247872,62.0991321 M809.247872,98.0241906 C797.857326,98.0241906 788.590046,88.7573218 788.590046,77.367282 C788.590046,65.9772422 797.857326,56.7103733 809.247872,56.7103733 C820.638417,56.7103733 829.905697,65.9772422 829.905697,77.367282 C829.905697,88.7573218 820.638417,98.0241906 809.247872,98.0241906" id="Fill-49"></path>
                <path d="M1211.62639,54.9141204 C1203.20698,54.9141204 1196.35756,61.7632328 1196.35756,70.1822703 C1196.35756,78.6013077 1203.20698,85.4504201 1211.62639,85.4504201 C1220.04401,85.4504201 1226.89522,78.6013077 1226.89522,70.1822703 C1226.89522,61.7632328 1220.04401,54.9141204 1211.62639,54.9141204 M1211.62639,90.8391789 C1200.23585,90.8391789 1190.96857,81.5723101 1190.96857,70.1822703 C1190.96857,58.7922304 1200.23585,49.5253616 1211.62639,49.5253616 C1223.01694,49.5253616 1232.28422,58.7922304 1232.28422,70.1822703 C1232.28422,81.5723101 1223.01694,90.8391789 1211.62639,90.8391789" id="Fill-53"></path>
                <path d="M1030.19679,327.944565 C1021.77738,327.944565 1014.92796,334.793678 1014.92796,343.212715 C1014.92796,351.631753 1021.77738,358.480865 1030.19679,358.480865 C1038.61441,358.480865 1045.46562,351.631753 1045.46562,343.212715 C1045.46562,334.793678 1038.61441,327.944565 1030.19679,327.944565 M1030.19679,363.869624 C1018.80625,363.869624 1009.53897,354.602755 1009.53897,343.212715 C1009.53897,331.822675 1018.80625,322.555807 1030.19679,322.555807 C1041.58734,322.555807 1050.85462,331.822675 1050.85462,343.212715 C1050.85462,354.602755 1041.58734,363.869624 1030.19679,363.869624" id="Fill-55"></path>
                <path d="M692.484451,468.052294 C691.886272,468.052294 691.284501,467.854706 690.78512,467.448753 C689.630079,466.509312 689.455834,464.811853 690.397113,463.656863 L816.1404,309.179111 C817.076289,308.025917 818.777417,307.853476 819.930662,308.789324 C821.085704,309.728764 821.259948,311.426223 820.31867,312.581214 L694.575382,467.058966 C694.043668,467.712802 693.267652,468.052294 692.484451,468.052294" id="Fill-61"></path>
                <polygon id="Fill-69" points="671.537236 312.570257 670.322915 309.189709 785.288207 267.875892 786.502528 271.25644"></polygon>
                <polygon id="Fill-71" points="895.010542 189.936477 892.341192 187.533091 957.009168 115.682974 959.678518 118.08636"></polygon>
                <polygon id="Fill-73" points="924.588597 242.583034 923.83773 239.069563 1085.77532 204.940757 1086.52439 208.454228"></polygon>
                <path d="M1040.97299,329.740818 C1040.46283,329.740818 1039.94728,329.597118 1039.48922,329.295348 C1038.24616,328.47446 1037.90665,326.802148 1038.72578,325.560938 L1105.19009,224.970774 C1106.01281,223.727767 1107.6834,223.386479 1108.92466,224.209163 C1110.16773,225.028254 1110.50723,226.700565 1109.6881,227.941776 L1043.2238,328.53194 C1042.70466,329.316903 1041.84601,329.740818 1040.97299,329.740818" id="Fill-79"></path>
                <path d="M1010.43534,336.926728 C1010.06349,336.926728 1009.68626,336.849489 1009.3252,336.68603 L914.11957,293.57596 C912.765135,292.961641 912.163363,291.364773 912.777709,290.010398 C913.392055,288.654227 914.983606,288.050686 916.34343,288.666801 L1011.54906,331.776871 C1012.9035,332.391189 1013.50527,333.988058 1012.89092,335.342433 C1012.44004,336.337557 1011.46104,336.926728 1010.43534,336.926728" id="Fill-81"></path>
                <path d="M1014.03339,455.479421 C1013.87711,455.479421 1013.71903,455.465051 1013.56095,455.438107 C1012.09694,455.179447 1011.11794,453.781962 1011.37482,452.31622 L1027.54181,360.707321 C1027.80228,359.241578 1029.20881,358.268009 1030.66563,358.521281 C1032.12965,358.781737 1033.10865,360.177426 1032.84997,361.643168 L1016.68298,453.252068 C1016.45305,454.55974 1015.31597,455.479421 1014.03339,455.479421" id="Fill-83"></path>
                <path d="M1269.10904,306.38953 C1268.41925,306.38953 1267.72945,306.127277 1267.20313,305.600975 L1171.9975,210.39957 C1170.94485,209.346966 1170.94485,207.640526 1171.9975,206.587921 C1173.05015,205.537113 1174.75666,205.537113 1175.80752,206.587921 L1271.01315,301.789326 C1272.0658,302.841931 1272.0658,304.548371 1271.01315,305.600975 C1270.48862,306.127277 1269.79883,306.38953 1269.10904,306.38953" id="Fill-85"></path>
                <path d="M1159.53095,139.338008 C1158.94894,139.338008 1158.36154,139.149401 1157.86754,138.763207 C1156.69813,137.841729 1156.49515,136.149659 1157.41307,134.978502 L1196.93239,84.6834201 C1197.85211,83.5140595 1199.54785,83.3110829 1200.71726,84.2289681 C1201.88668,85.1486496 1202.08966,86.8425162 1201.17174,88.0136731 L1161.65242,138.308755 C1161.1207,138.984146 1160.32852,139.338008 1159.53095,139.338008" id="Fill-87"></path>
                <path d="M710.449574,152.809905 C710.449574,144.872263 704.015111,138.439881 696.078913,138.439881 C688.142715,138.439881 681.708251,144.872263 681.708251,152.809905 C681.708251,160.74575 688.142715,167.179928 696.078913,167.179928 C704.015111,167.179928 710.449574,160.74575 710.449574,152.809905" id="Fill-101"></path>
                <path d="M1177.49607,348.601474 C1177.49607,340.665629 1171.06161,334.231451 1163.12541,334.231451 C1155.18921,334.231451 1148.75475,340.665629 1148.75475,348.601474 C1148.75475,356.539116 1155.18921,362.971497 1163.12541,362.971497 C1171.06161,362.971497 1177.49607,356.539116 1177.49607,348.601474" id="Fill-111"></path>
                <path d="M1337.36968,100.71857 C1337.36968,92.7809283 1330.93522,86.3485466 1322.99902,86.3485466 C1315.06282,86.3485466 1308.62836,92.7809283 1308.62836,100.71857 C1308.62836,108.654415 1315.06282,115.088593 1322.99902,115.088593 C1330.93522,115.088593 1337.36968,108.654415 1337.36968,100.71857" id="Fill-113"></path>
                <polygon id="Fill-115" points="1180.02926 167.022038 1178.55627 163.745672 1322.26288 99.080567 1323.73587 102.356932"></polygon>
                <polygon id="Fill-117" points="1322.99902 103.842074 1324.48638 100.571098 1467.96127 165.748135 1466.47391 169.017315"></polygon>
                <polygon id="Fill-119" points="836.289325 180.332631 807.548002 95.9087436 810.94846 94.7501604 839.689783 179.174048"></polygon>
                <polygon id="Fill-121" points="794.038682 211.878425 698.83305 161.583343 700.510825 158.405772 795.716457 208.700854"></polygon>
                <polygon id="Fill-133" points="1056.6839 470.148521 1054.00736 467.752319 1161.78732 347.403373 1164.46386 349.799575"></polygon>
                <polygon id="Fill-135" points="969.363626 462.667127 884.93599 317.17064 888.043645 315.367202 972.471281 460.863689"></polygon>
                <polygon id="Fill-137" points="605.434349 314.270949 418.615751 217.273291 420.271969 214.084942 607.090568 311.0826"></polygon>
                <path d="M550.57417,438.41412 C550.227477,438.41412 549.875396,438.31353 549.566427,438.103369 C548.745503,437.54653 548.531739,436.429261 549.090399,435.608373 L613.758375,340.406968 C614.315238,339.587877 615.432557,339.372326 616.253481,339.930961 C617.074405,340.4878 617.288169,341.605069 616.729509,342.425956 L552.061533,437.627362 C551.714841,438.139294 551.148996,438.41412 550.57417,438.41412" id="Fill-145"></path>
                <path d="M943.971026,488.709202 C943.678224,488.709202 943.380033,488.637352 943.105194,488.486467 L666.469961,335.804968 C665.600536,335.323572 665.284382,334.233247 665.764003,333.36386 C666.24542,332.494474 667.33759,332.178333 668.205219,332.659729 L944.840451,485.341228 C945.709876,485.820828 946.026031,486.912949 945.54641,487.78054 C945.217681,488.375099 944.605132,488.709202 943.971026,488.709202" id="Fill-147"></path>
                <path d="M1322.43371,443.570803 C1321.78164,442.888227 1321.83553,441.648813 1322.64029,440.560283 L1424.57319,302.590096 C1425.51626,301.31296 1427.13296,300.725585 1428.18382,301.277035 C1429.22389,301.823096 1429.3191,303.310393 1428.37602,304.587529 L1326.44313,442.557717 C1325.50005,443.834852 1323.88335,444.424023 1322.8325,443.870778 C1322.67981,443.791742 1322.54688,443.689356 1322.43371,443.570803" id="Fill-153"></path>
                <path d="M1177.49427,350.398625 C1176.70389,350.398625 1175.97817,349.870527 1175.76261,349.071194 C1175.50394,348.113791 1176.06799,347.127648 1177.02543,346.867192 L1259.7232,324.448159 C1260.68424,324.191295 1261.66863,324.755318 1261.9273,325.712721 C1262.18597,326.670124 1261.62192,327.656267 1260.66448,327.916723 L1177.96671,350.335756 C1177.80863,350.37707 1177.65056,350.398625 1177.49427,350.398625" id="Fill-155"></path>
                <path d="M1163.12541,343.213613 C1162.35299,343.213613 1161.64164,342.712459 1161.40632,341.936478 L1129.07233,235.059428 C1128.78492,234.109211 1129.32202,233.106901 1130.27048,232.821297 C1131.22254,232.528508 1132.2231,233.06918 1132.51051,234.019398 L1164.8445,340.896447 C1165.13191,341.846665 1164.59481,342.848974 1163.64635,343.134578 C1163.4721,343.188466 1163.29786,343.213613 1163.12541,343.213613" id="Fill-157"></path>
                <path d="M1087.67764,152.809905 C1087.33634,152.809905 1086.98965,152.712907 1086.68247,152.508134 L1011.2365,102.213052 C1010.41019,101.663399 1010.18744,100.547926 1010.73892,99.7216496 C1011.28859,98.8971696 1012.40052,98.6708417 1013.23043,99.2240876 L1088.6764,149.51917 C1089.50271,150.068823 1089.72546,151.184296 1089.17399,152.010572 C1088.82909,152.529689 1088.25786,152.809905 1087.67764,152.809905" id="Fill-159"></path>
                <path d="M1026.67436,338.454621 C1026.67436,338.454621 1026.53784,337.120005 1027.49888,336.10153 C1028.1743,336.780513 1030.19697,338.454621 1033.72138,338.454621 C1033.72138,340.39637 1032.1424,341.977073 1030.19697,341.977073 C1028.25334,341.977073 1026.67436,340.39637 1026.67436,338.454621 M1034.89618,338.350438 C1034.89618,335.754853 1032.79447,333.651441 1030.19697,333.651441 C1027.60307,333.651441 1025.49776,335.754853 1025.49776,338.350438 C1025.49776,340.946024 1027.60307,343.049436 1030.19697,343.049436 C1032.79447,343.049436 1034.89618,340.946024 1034.89618,338.350438" id="Fill-173"></path>
                <path d="M1022.1309,346.664036 L1022.1309,348.7423 L1022.1309,351.431291 C1022.1309,352.173143 1022.73267,352.774888 1023.47635,352.774888 L1036.91651,352.774888 C1037.66199,352.774888 1038.26197,352.173143 1038.26197,351.431291 L1038.26197,348.7423 L1038.26197,346.664036 C1038.26197,345.180331 1037.06022,343.978637 1035.57286,343.978637 L1033.19092,343.978637 C1033.02027,343.978637 1032.8101,344.090005 1032.71669,344.230113 L1030.36708,347.551385 C1030.27188,347.691492 1030.12099,347.691492 1030.02937,347.551385 L1027.67977,344.230113 C1027.58456,344.090005 1027.3726,343.976841 1027.20195,343.976841 L1024.82001,343.976841 C1023.33803,343.976841 1022.1309,345.180331 1022.1309,346.664036" id="Fill-175"></path>
                <path d="M840.362689,230.855658 C840.362689,230.855658 839.791455,225.294459 843.799073,221.051709 C846.615723,223.882604 855.051301,230.855658 869.748895,230.855658 C869.748895,238.954962 863.161743,245.54721 855.051301,245.54721 C846.948044,245.54721 840.362689,238.954962 840.362689,230.855658 M874.649291,230.424557 C874.649291,219.603929 865.88678,210.832826 855.051301,210.832826 C844.233786,210.832826 835.460497,219.603929 835.460497,230.424557 C835.460497,241.245185 844.233786,250.018084 855.051301,250.018084 C865.88678,250.018084 874.649291,241.245185 874.649291,230.424557" id="Fill-177"></path>
                <path d="M821.418744,265.094933 L821.418744,273.756464 L821.418744,284.968675 C821.418744,288.069008 823.931813,290.576577 827.025098,290.576577 L883.07966,290.576577 C886.176537,290.576577 888.686014,288.069008 888.686014,284.968675 L888.686014,273.756464 L888.686014,265.094933 C888.686014,258.901453 883.668857,253.888111 877.469713,253.888111 L867.534197,253.888111 C866.830034,253.888111 865.951628,254.358729 865.556434,254.937122 L855.759236,268.793418 C855.369432,269.375404 854.735326,269.375404 854.349115,268.793418 L844.551916,254.937122 C844.156723,254.358729 843.274724,253.882722 842.570561,253.882722 L832.635045,253.882722 C826.450272,253.882722 821.418744,258.901453 821.418744,265.094933" id="Fill-179"></path>
                <path d="M1286.38114,317.133637 C1286.38114,317.133637 1286.12606,314.658401 1287.91341,312.768743 C1289.16545,314.027916 1292.92158,317.133637 1299.46562,317.133637 C1299.46562,320.740513 1296.53401,323.677387 1292.92158,323.677387 C1289.31455,323.677387 1286.38114,320.740513 1286.38114,317.133637 M1301.64996,316.941438 C1301.64996,312.123888 1297.74653,308.217038 1292.92158,308.217038 C1288.10561,308.217038 1284.19679,312.123888 1284.19679,316.941438 C1284.19679,321.760785 1288.10561,325.667635 1292.92158,325.667635 C1297.74653,325.667635 1301.64996,321.760785 1301.64996,316.941438" id="Fill-181"></path>
                <path d="M1277.94681,332.380771 L1277.94681,336.237326 L1277.94681,341.229113 C1277.94681,342.610432 1279.06413,343.727701 1280.44372,343.727701 L1305.40376,343.727701 C1306.78334,343.727701 1307.89887,342.610432 1307.89887,341.229113 L1307.89887,336.237326 L1307.89887,332.380771 C1307.89887,329.621727 1305.66602,327.390781 1302.90506,327.390781 L1298.48249,327.390781 C1298.16813,327.390781 1297.77653,327.599146 1297.59869,327.85601 L1293.2372,334.027935 C1293.06475,334.286596 1292.78093,334.286596 1292.61028,334.027935 L1288.24699,327.85601 C1288.07095,327.599146 1287.67755,327.388984 1287.36319,327.388984 L1282.93882,327.388984 C1280.18684,327.388984 1277.94681,329.621727 1277.94681,332.380771" id="Fill-183"></path>
                <path d="M1208.18641,64.6943583 C1208.18641,64.6943583 1208.05349,63.3920749 1208.99117,62.3987471 C1209.65043,63.0615644 1211.62639,64.6943583 1215.06637,64.6943583 C1215.06637,66.5912014 1213.52512,68.1323864 1211.62639,68.1323864 C1209.72946,68.1323864 1208.18641,66.5912014 1208.18641,64.6943583 M1216.21423,64.5919719 C1216.21423,62.0610515 1214.16281,60.0061382 1211.62639,60.0061382 C1209.09356,60.0061382 1207.04035,62.0610515 1207.04035,64.5919719 C1207.04035,67.1264848 1209.09356,69.1813981 1211.62639,69.1813981 C1214.16281,69.1813981 1216.21423,67.1264848 1216.21423,64.5919719" id="Fill-201"></path>
                <path d="M1203.75342,72.7090593 L1203.75342,74.7370288 L1203.75342,77.3613543 C1203.75342,78.0870405 1204.34083,78.6744152 1205.06475,78.6744152 L1218.18875,78.6744152 C1218.91088,78.6744152 1219.50008,78.0870405 1219.50008,77.3613543 L1219.50008,74.7370288 L1219.50008,72.7090593 C1219.50008,71.2594831 1218.32528,70.08653 1216.87384,70.08653 L1214.54759,70.08653 C1214.38233,70.08653 1214.17754,70.1961014 1214.08413,70.3326166 L1211.79201,73.5766494 C1211.7004,73.7113684 1211.5531,73.7113684 1211.46149,73.5766494 L1209.16757,70.3326166 C1209.07596,70.1961014 1208.86938,70.0847337 1208.70412,70.0847337 L1206.37787,70.0847337 C1204.93002,70.0847337 1203.75342,71.2594831 1203.75342,72.7090593" id="Fill-203"></path>
                <path d="M1130.79142,177.645257 C1124.32462,177.645257 1119.07754,172.730709 1119.07754,166.262402 C1119.07754,166.262402 1124.29229,161.698124 1130.8992,161.698124 C1137.6103,161.698124 1142.50171,166.262402 1142.50171,166.262402 C1142.50171,172.730709 1137.25822,177.645257 1130.79142,177.645257 M1130.79142,153.808981 C1136.20916,153.808981 1141.26045,157.568538 1141.26045,162.202871 C1141.26045,162.418421 1141.24967,162.633971 1141.22991,162.845929 C1141.19937,163.199791 1141.07543,163.045313 1140.89579,162.527993 C1139.65992,158.978597 1135.30381,156.372234 1130.79142,156.372234 C1126.27903,156.372234 1121.6409,158.980393 1120.36191,162.529789 C1120.17869,163.045313 1120.05294,163.199791 1120.02241,162.845929 C1120.00265,162.633971 1119.99187,162.418421 1119.99187,162.202871 C1119.99187,157.568538 1125.37368,153.808981 1130.79142,153.808981 M1130.79142,150.317065 C1122.16543,150.317065 1115.1759,157.309878 1115.1759,165.931892 L1115.1759,170.941641 C1115.05914,172.556473 1114.52204,176.308845 1112.01795,176.050185 C1108.83844,175.72147 1112.86222,181.501812 1119.03622,181.546719 C1119.05239,181.546719 1119.06496,181.550311 1119.07754,181.550311 L1142.50171,181.550311 C1148.71523,181.550311 1152.78751,175.72147 1149.59902,176.050185 C1146.40694,176.380695 1146.40694,170.22314 1146.40694,170.22314 L1146.40694,165.931892 C1146.40694,157.309878 1139.41561,150.317065 1130.79142,150.317065" id="Fill-229"></path>
                <path d="M1124.68676,206.403626 C1125.5993,206.403626 1126.33759,207.141886 1126.33759,208.052586 C1126.33759,208.963286 1125.5993,209.701546 1124.68676,209.701546 C1123.77602,209.701546 1123.03773,208.963286 1123.03773,208.052586 C1123.03773,207.141886 1123.77602,206.403626 1124.68676,206.403626 M1124.68676,200.465214 C1125.5993,200.465214 1126.33759,201.203474 1126.33759,202.114174 C1126.33759,203.024874 1125.5993,203.763134 1124.68676,203.763134 C1123.77602,203.763134 1123.03773,203.024874 1123.03773,202.114174 C1123.03773,201.203474 1123.77602,200.465214 1124.68676,200.465214 M1107.36473,193.262239 L1107.36473,208.878862 C1107.36473,211.036162 1109.11256,212.78212 1111.26996,212.78212 L1115.17518,212.78212 L1146.40802,212.78212 L1150.31145,212.78212 C1152.47064,212.78212 1154.21668,211.036162 1154.21668,208.878862 L1154.21668,193.262239 C1154.21668,188.949436 1150.72101,185.453928 1146.40802,185.453928 L1142.83691,185.453928 C1142.29082,185.453928 1141.48247,185.703607 1141.0316,186.010766 L1137.04014,188.735682 C1136.58926,189.042841 1136.09887,189.716436 1135.94438,190.242738 L1131.29008,206.003061 C1131.1356,206.527567 1130.87693,206.529363 1130.71166,206.00845 L1125.82564,190.513972 C1125.65858,189.994855 1125.1592,189.323057 1124.70473,189.017694 L1120.22827,186.007174 C1119.77379,185.700015 1118.96185,185.453928 1118.41577,185.453928 L1115.17339,185.453928 C1110.86398,185.453928 1107.36473,188.949436 1107.36473,193.262239" id="Fill-231"></path>
                <path d="M981.21511,90.0867286 C977.403292,90.0867286 974.310007,87.1893726 974.310007,83.3759276 C974.310007,83.3759276 977.383533,80.6851407 981.279778,80.6851407 C985.235303,80.6851407 988.120213,83.3759276 988.120213,83.3759276 C988.120213,87.1893726 985.026928,90.0867286 981.21511,90.0867286 M981.21511,76.0346419 C984.40899,76.0346419 987.389106,78.251218 987.389106,80.9833187 C987.389106,81.1090564 987.38192,81.2365904 987.371142,81.3623281 C987.351383,81.5706934 987.277733,81.4790845 987.171749,81.1755178 C986.444235,79.0828831 983.877275,77.5452906 981.21511,77.5452906 C978.556538,77.5452906 975.820723,79.0828831 975.066263,81.1755178 C974.958483,81.4790845 974.884834,81.5706934 974.86687,81.3623281 C974.854296,81.2365904 974.848907,81.1090564 974.848907,80.9833187 C974.848907,78.251218 978.021231,76.0346419 981.21511,76.0346419 M981.21511,73.9743398 C976.129692,73.9743398 972.008905,78.0985365 972.008905,83.1819323 L972.008905,86.1349721 C971.940645,87.0869862 971.622694,89.2981735 970.147905,89.1472883 C968.272533,88.953293 970.645489,92.3607848 974.284859,92.3877286 C974.295637,92.3877286 974.301026,92.3895248 974.310007,92.3895248 L988.120213,92.3895248 C991.782935,92.3895248 994.184632,88.953293 992.303872,89.1472883 C990.421315,89.3412836 990.421315,85.7110564 990.421315,85.7110564 L990.421315,83.1819323 C990.421315,78.0985365 986.298732,73.9743398 981.21511,73.9743398" id="Fill-233"></path>
                <path d="M977.615439,107.042278 C978.154339,107.042278 978.589051,107.476972 978.589051,108.014051 C978.589051,108.551131 978.154339,108.98762 977.615439,108.98762 C977.078336,108.98762 976.643623,108.551131 976.643623,108.014051 C976.643623,107.476972 977.078336,107.042278 977.615439,107.042278 M977.615439,103.541381 C978.154339,103.541381 978.589051,103.976075 978.589051,104.513154 C978.589051,105.050234 978.154339,105.484927 977.615439,105.484927 C977.078336,105.484927 976.643623,105.050234 976.643623,104.513154 C976.643623,103.976075 977.078336,103.541381 977.615439,103.541381 M967.403288,99.2950396 L967.403288,108.500836 C967.403288,109.774379 968.434383,110.803632 969.706186,110.803632 L972.009085,110.803632 L990.421495,110.803632 L992.722597,110.803632 C993.996197,110.803632 995.025495,109.774379 995.025495,108.500836 L995.025495,99.2950396 C995.025495,96.7515454 992.965102,94.6912433 990.421495,94.6912433 L988.316193,94.6912433 C987.994649,94.6912433 987.518621,94.8385361 987.250968,95.0199576 L984.899568,96.6258077 C984.633711,96.805433 984.342705,97.2042012 984.252888,97.5131567 L981.508092,106.806969 C981.418275,107.115925 981.265587,107.117721 981.168585,106.808766 L978.287268,97.6748194 C978.188469,97.3676602 977.893871,96.9724845 977.626217,96.7928593 L974.987404,95.0163651 C974.719751,94.8367398 974.241926,94.6912433 973.918586,94.6912433 L972.007288,94.6912433 C969.467274,94.6912433 967.403288,96.7515454 967.403288,99.2950396" id="Fill-235"></path>
                <path d="M809.249668,76.1937899 C807.30424,76.1937899 805.72706,74.7154738 805.72706,72.7701319 C805.72706,72.7701319 807.295258,71.3959984 809.282002,71.3959984 C811.30108,71.3959984 812.772276,72.7701319 812.772276,72.7701319 C812.772276,74.7154738 811.195096,76.1937899 809.249668,76.1937899 M809.249668,69.021352 C810.877145,69.021352 812.396843,70.1529913 812.396843,71.5468836 C812.396843,71.6115487 812.395046,71.6780101 812.389657,71.7408789 C812.37888,71.8486541 812.344749,71.8001553 812.287267,71.6456775 C811.915426,70.576907 810.605899,69.7937407 809.249668,69.7937407 C807.89164,69.7937407 806.499483,70.576907 806.113271,71.6456775 C806.057585,71.8001553 806.018065,71.8486541 806.01088,71.7408789 C806.003695,71.6780101 806.000102,71.6115487 806.000102,71.5468836 C806.000102,70.1529913 807.620394,69.021352 809.249668,69.021352 M809.249668,67.9723403 C806.655764,67.9723403 804.552258,70.0757525 804.552258,72.6677454 L804.552258,74.1765979 C804.516331,74.6615862 804.354661,75.789633 803.600202,75.7123941 C802.646349,75.6153965 803.857077,77.3541693 805.712689,77.3649468 L805.72706,77.3649468 L812.772276,77.3649468 C814.642259,77.3649468 815.865561,75.6136002 814.904523,75.7123941 C813.945282,75.8111881 813.945282,73.9592513 813.945282,73.9592513 L813.945282,72.6677454 C813.945282,70.0757525 811.841776,67.9723403 809.249668,67.9723403" id="Fill-253"></path>
                <path d="M807.412918,84.84167 C807.687757,84.84167 807.908706,85.0626091 807.908706,85.3392321 C807.908706,85.6140588 807.687757,85.8367941 807.412918,85.8367941 C807.139875,85.8367941 806.91713,85.6140588 806.91713,85.3392321 C806.91713,85.0626091 807.139875,84.84167 807.412918,84.84167 M807.412918,83.0561946 C807.687757,83.0561946 807.908706,83.27893 807.908706,83.5519604 C807.908706,83.8267871 807.687757,84.0495225 807.412918,84.0495225 C807.139875,84.0495225 806.91713,83.8267871 806.91713,83.5519604 C806.91713,83.27893 807.139875,83.0561946 807.412918,83.0561946 M802.203553,80.8899136 L802.203553,85.587115 C802.203553,86.2355623 802.728082,86.7618644 803.376558,86.7618644 L804.55136,86.7618644 L813.94618,86.7618644 L815.120981,86.7618644 C815.769457,86.7618644 816.293987,86.2355623 816.293987,85.587115 L816.293987,80.8899136 C816.293987,79.5912227 815.243132,78.542211 813.94618,78.542211 L812.873769,78.542211 C812.708507,78.542211 812.466002,78.6158574 812.32948,78.7092625 L811.127734,79.5283539 C810.993009,79.621759 810.84571,79.8247356 810.800801,79.9810096 L809.401458,84.7231173 C809.351161,84.8793913 809.275715,84.8793913 809.225417,84.7249136 L807.754221,80.0636372 C807.70572,79.9073632 807.554828,79.7061829 807.418307,79.614574 L806.071057,78.7074663 C805.934536,78.6158574 805.692031,78.542211 805.526769,78.542211 L804.55136,78.542211 C803.256204,78.542211 802.203553,79.5912227 802.203553,80.8899136" id="Fill-255"></path>
                <path d="M1535.18201,545.781008 C1534.63413,546.195942 1533.8168,546.140258 1533.2294,545.606771 L1315.74561,347.715382 C1315.07198,347.10286 1314.95342,346.093366 1315.48155,345.461085 C1316.01146,344.827008 1316.98148,344.810841 1317.65511,345.423364 L1535.1407,543.314752 C1535.81253,543.927275 1535.93108,544.936769 1535.40296,545.56905 C1535.3365,545.649881 1535.26285,545.719935 1535.18201,545.781008" id="Fill-261"></path>
                <path d="M2295.86406,196.995571 C2248.66901,196.995571 2210.2724,235.390478 2210.2724,282.583431 C2210.2724,329.774588 2248.66901,368.169494 2295.86406,368.169494 C2343.05731,368.169494 2381.45392,329.774588 2381.45392,282.583431 C2381.45392,235.390478 2343.05731,196.995571 2295.86406,196.995571 M2295.86406,379.581089 C2242.37825,379.581089 2198.86209,336.068658 2198.86209,282.583431 C2198.86209,229.1 2242.37825,185.585773 2295.86406,185.585773 C2349.35166,185.585773 2392.86602,229.1 2392.86602,282.583431 C2392.86602,336.068658 2349.35166,379.581089 2295.86406,379.581089" id="Fill-263"></path>
                <path d="M1905.1617,349.850588 C1869.32845,349.850588 1840.17577,379.001977 1840.17577,414.83363 C1840.17577,450.663488 1869.32845,479.816673 1905.1617,479.816673 C1940.99494,479.816673 1970.14583,450.663488 1970.14583,414.83363 C1970.14583,379.001977 1940.99494,349.850588 1905.1617,349.850588 M1905.1617,488.48 C1864.552,488.48 1831.51206,455.44152 1831.51206,414.83363 C1831.51206,374.223944 1864.552,341.18726 1905.1617,341.18726 C1945.77319,341.18726 1978.81134,374.223944 1978.81134,414.83363 C1978.81134,455.44152 1945.77319,488.48 1905.1617,488.48" id="Fill-265"></path>
                <path d="M1676.12928,255.812257 C1650.34652,255.812257 1629.37254,276.787102 1629.37254,302.566924 C1629.37254,328.348543 1650.34652,349.323388 1676.12928,349.323388 C1701.91025,349.323388 1722.88602,328.348543 1722.88602,302.566924 C1722.88602,276.787102 1701.91025,255.812257 1676.12928,255.812257 M1676.12928,355.556386 C1646.91013,355.556386 1623.13747,331.786571 1623.13747,302.566924 C1623.13747,273.349074 1646.91013,249.577463 1676.12928,249.577463 C1705.35022,249.577463 1729.12109,273.349074 1729.12109,302.566924 C1729.12109,331.786571 1705.35022,355.556386 1676.12928,355.556386" id="Fill-267"></path>
                <path d="M1495.66341,153.829278 C1479.49642,153.829278 1466.34187,166.983239 1466.34187,183.151311 C1466.34187,199.317588 1479.49642,212.471548 1495.66341,212.471548 C1511.8322,212.471548 1524.98675,199.317588 1524.98675,183.151311 C1524.98675,166.983239 1511.8322,153.829278 1495.66341,153.829278 M1495.66341,216.38199 C1477.33902,216.38199 1462.43126,201.473091 1462.43126,183.151311 C1462.43126,164.827735 1477.33902,149.920632 1495.66341,149.920632 C1513.9878,149.920632 1528.89557,164.827735 1528.89557,183.151311 C1528.89557,201.473091 1513.9878,216.38199 1495.66341,216.38199" id="Fill-277"></path>
                <path d="M2131.56626,394.527171 C2115.39747,394.527171 2102.24292,407.681131 2102.24292,423.849204 C2102.24292,440.01548 2115.39747,453.171236 2131.56626,453.171236 C2147.73325,453.171236 2160.8878,440.01548 2160.8878,423.849204 C2160.8878,407.681131 2147.73325,394.527171 2131.56626,394.527171 M2131.56626,457.079883 C2113.24187,457.079883 2098.3341,442.17278 2098.3341,423.849204 C2098.3341,405.525627 2113.24187,390.618524 2131.56626,390.618524 C2149.88885,390.618524 2164.79841,405.525627 2164.79841,423.849204 C2164.79841,442.17278 2149.88885,457.079883 2131.56626,457.079883" id="Fill-281"></path>
                <path d="M2215.02729,233.411726 C2214.5297,233.411726 2214.02493,233.27521 2213.57406,232.986014 L1958.49481,69.5269972 C1957.24277,68.7240721 1956.87812,67.0571494 1957.68108,65.8033649 C1958.48224,64.5531728 1960.14744,64.1831447 1961.40487,64.9896623 L2216.48411,228.448679 C2217.73616,229.251604 2218.10081,230.918526 2217.29785,232.172311 C2216.7841,232.97344 2215.91288,233.411726 2215.02729,233.411726" id="Fill-285"></path>
                <path d="M1437.21703,269.336784 C1428.79762,269.336784 1421.94821,276.187693 1421.94821,284.604934 C1421.94821,293.022175 1428.79762,299.873084 1437.21703,299.873084 C1445.63645,299.873084 1452.48586,293.022175 1452.48586,284.604934 C1452.48586,276.187693 1445.63645,269.336784 1437.21703,269.336784 M1437.21703,305.261843 C1425.82649,305.261843 1416.55921,295.994974 1416.55921,284.604934 C1416.55921,273.214894 1425.82649,263.948025 1437.21703,263.948025 C1448.60758,263.948025 1457.87486,273.214894 1457.87486,284.604934 C1457.87486,295.994974 1448.60758,305.261843 1437.21703,305.261843" id="Fill-289"></path>
                <polygon id="Fill-297" points="1840.59809 385.010982 1720.2438 325.734635 1721.83176 322.510361 1842.18605 381.786708"></polygon>
                <polygon id="Fill-299" points="1633.85062 271.750589 1520.68166 199.900472 1522.60733 196.868397 1635.77628 268.72031"></polygon>
                <polygon id="Fill-303" points="1580.89976 533.727971 1577.56936 532.222711 1661.85688 352.11243 1665.18728 353.615894"></polygon>
                <path d="M1668.94126,253.170508 C1667.55269,253.170508 1666.3725,252.101737 1666.25753,250.693475 L1650.09054,51.3094 C1649.97198,49.8256951 1651.07673,48.5270042 1652.5587,48.4066553 C1654.04068,48.2845101 1655.34302,49.3910019 1655.46337,50.8747068 L1671.63037,250.258782 C1671.74892,251.74069 1670.64418,253.041178 1669.1622,253.161526 C1669.08856,253.166915 1669.01491,253.170508 1668.94126,253.170508" id="Fill-321"></path>
                <path d="M1514.2242,158.326916 C1513.49489,158.326916 1512.76917,158.028738 1512.24464,157.444956 C1511.26205,156.351038 1511.35186,154.667949 1512.44403,153.685399 L1634.86411,43.6900543 C1635.95987,42.707504 1637.63944,42.7991129 1638.62383,43.8912347 C1639.60463,44.9851527 1639.51481,46.6664454 1638.42264,47.6489958 L1516.00077,157.646136 C1515.49421,158.102385 1514.85831,158.326916 1514.2242,158.326916" id="Fill-323"></path>
                <path d="M2150.03471,399.05283 C2149.32337,399.05283 2148.61022,398.76543 2148.09108,398.19961 C2147.10669,397.129043 2147.17495,395.458528 2148.24916,394.472385 L2213.30155,334.69668 C2214.37396,333.710537 2216.03916,333.780591 2217.02894,334.856547 C2218.01513,335.927113 2217.94327,337.595832 2216.86907,338.580179 L2151.81488,398.35768 C2151.31011,398.82291 2150.67062,399.05283 2150.03471,399.05283" id="Fill-325"></path>
                <path d="M2098.33752,426.543942 C2098.26926,426.543942 2098.201,426.542146 2098.13094,426.536757 L1978.60835,417.521364 C1977.12458,417.4082 1976.01265,416.113101 1976.12402,414.629396 C1976.2354,413.147488 1977.51977,412.02483 1979.01432,412.145179 L2098.53691,421.162368 C2100.02068,421.273736 2101.13261,422.568834 2101.02124,424.052539 C2100.91346,425.46619 2099.73147,426.543942 2098.33752,426.543942" id="Fill-327"></path>
                <path d="M1708.46057,263.948025 C1707.92706,263.948025 1707.38637,263.789955 1706.91752,263.459444 C1705.69781,262.606224 1705.40322,260.924932 1706.25647,259.707072 L1828.4071,85.4705382 C1829.26215,84.2526787 1830.94352,83.956297 1832.15964,84.8095171 C1833.37935,85.6645335 1833.67394,87.3458262 1832.81889,88.5636857 L1710.66827,262.80022 C1710.14553,263.547461 1709.31024,263.948025 1708.46057,263.948025" id="Fill-329"></path>
                <path d="M2094.6748,146.293459 C2094.6748,138.357613 2088.24033,131.923435 2080.30413,131.923435 C2072.36794,131.923435 2065.93347,138.357613 2065.93347,146.293459 C2065.93347,154.229304 2072.36794,160.663482 2080.30413,160.663482 C2088.24033,160.663482 2094.6748,154.229304 2094.6748,146.293459" id="Fill-339"></path>
                <path d="M1658.11332,48.3974944 C1658.11332,40.4616489 1651.67886,34.027471 1643.74266,34.027471 C1635.80646,34.027471 1629.372,40.4616489 1629.372,48.3974944 C1629.372,56.3333398 1635.80646,62.7675178 1643.74266,62.7675178 C1651.67886,62.7675178 1658.11332,56.3333398 1658.11332,48.3974944" id="Fill-344"></path>
                <polygon id="Fill-360" points="2255.13239 202.556232 2175.39857 63.0735993 2178.5188 61.2899201 2258.25082 200.772552"></polygon>
                <polygon id="Fill-362" points="2475.99724 182.051466 2178.42396 64.7705194 2178.92693 59.0063438 2476.49842 176.285494"></polygon>
                <path d="M1446.19672,268.438658 C1445.86799,268.438658 1445.53567,268.348845 1445.23748,268.160238 C1444.40039,267.630344 1444.1507,266.520259 1444.68062,265.681409 L1478.81094,211.793822 C1479.34265,210.954971 1480.45279,210.705292 1481.28988,211.236983 C1482.12876,211.766878 1482.37666,212.876962 1481.84674,213.715812 L1447.71642,267.6034 C1447.37332,268.144072 1446.79131,268.438658 1446.19672,268.438658" id="Fill-368"></path>
                <path d="M1941.98472,356.455051 C1941.69012,356.455051 1941.39013,356.383201 1941.1135,356.228723 C1940.24767,355.745531 1939.93331,354.653409 1940.41652,353.787615 L2003.28817,240.623681 C2003.76958,239.754295 2004.86175,239.438154 2005.73118,239.924939 C2006.59701,240.408131 2006.91137,241.500252 2006.42816,242.366046 L1943.55651,355.529981 C1943.22778,356.120948 1942.61703,356.455051 1941.98472,356.455051" id="Fill-370"></path>
                <path d="M2197.96392,285.50306 C2197.78249,285.50306 2197.59927,285.476117 2197.41784,285.418637 L2031.25707,232.429175 C2030.3122,232.127405 2029.78946,231.117911 2030.09125,230.171285 C2030.39123,229.228252 2031.40077,228.703747 2032.34924,229.005517 L2198.51001,281.994978 C2199.45488,282.296749 2199.97582,283.306243 2199.67583,284.252868 C2199.43153,285.01448 2198.72557,285.50306 2197.96392,285.50306" id="Fill-372"></path>
                <path d="M2342.56691,543.265356 C2342.2795,543.265356 2341.98849,543.197098 2341.71545,543.049805 L2158.48951,444.255894 C2157.6165,443.785276 2157.28956,442.696747 2157.762,441.821971 C2158.23443,440.950789 2159.31942,440.618482 2160.19603,441.094489 L2343.42196,539.8884 C2344.29498,540.359018 2344.62191,541.447548 2344.14948,542.322323 C2343.82434,542.924067 2343.20461,543.265356 2342.56691,543.265356" id="Fill-374"></path>
                <path d="M1588.10988,545.061608 C1587.42548,545.061608 1586.77341,544.668229 1586.47162,544.005412 C1586.06385,543.101896 1586.46444,542.036719 1587.36799,541.628969 L1833.46557,430.261288 C1834.37272,429.851742 1835.43255,430.254103 1835.84391,431.157618 C1836.25168,432.061133 1835.8511,433.126311 1834.94754,433.53406 L1588.84997,544.901742 C1588.60926,545.011313 1588.35777,545.061608 1588.10988,545.061608" id="Fill-376"></path>
                <path d="M1560.08152,528.742651 C1559.26239,528.742651 1558.52769,528.166053 1558.35345,527.327203 L1493.90462,216.728128 C1493.70523,215.767133 1494.31778,214.8241 1495.27343,214.624716 C1496.23267,214.425332 1497.16497,215.037854 1497.36436,216.002442 L1561.81318,526.601517 C1562.01258,527.562512 1561.40003,528.503749 1560.44438,528.704929 C1560.32223,528.730077 1560.20187,528.742651 1560.08152,528.742651" id="Fill-380"></path>
                <path d="M1889.89287,394.90618 C1889.89287,394.90618 1889.32882,389.353962 1893.32746,385.120194 C1896.14231,387.942107 1904.5707,394.90618 1919.24674,394.90618 C1919.24674,402.9983 1912.66318,409.577974 1904.5707,409.577974 C1896.47643,409.577974 1889.89287,402.996503 1889.89287,394.90618 M1924.13816,394.482264 C1924.13816,383.674211 1915.38642,374.912089 1904.5707,374.912089 C1893.76397,374.912089 1885.00146,383.674211 1885.00146,394.482264 C1885.00146,405.286726 1893.76397,414.047051 1904.5707,414.047051 C1915.38642,414.047051 1924.13816,405.286726 1924.13816,394.482264" id="Fill-392"></path>
                <path d="M1870.98377,429.09983 L1870.98377,437.752381 L1870.98377,448.950222 C1870.98377,452.043369 1873.49325,454.545549 1876.58115,454.545549 L1932.55667,454.545549 C1935.65175,454.545549 1938.15584,452.043369 1938.15584,448.950222 L1938.15584,437.752381 L1938.15584,429.09983 C1938.15584,422.918924 1933.14587,417.905582 1926.9593,417.905582 L1917.03456,417.905582 C1916.33399,417.905582 1915.45019,418.3762 1915.06039,418.959983 L1905.27397,432.792926 C1904.88596,433.376709 1904.25545,433.376709 1903.86564,432.792926 L1894.08102,418.959983 C1893.68942,418.3762 1892.80742,417.903786 1892.10505,417.903786 L1882.18032,417.903786 C1876.00273,417.903786 1870.98377,422.918924 1870.98377,429.09983" id="Fill-394"></path>
                <path d="M2165.03212,33.8562881 C2156.61271,33.8562881 2149.76329,40.7071967 2149.76329,49.1244379 C2149.76329,57.5416792 2156.61271,64.3925878 2165.03212,64.3925878 C2173.44973,64.3925878 2180.30094,57.5416792 2180.30094,49.1244379 C2180.30094,40.7071967 2173.44973,33.8562881 2165.03212,33.8562881 M2165.03212,69.7813466 C2153.64157,69.7813466 2144.37429,60.5144778 2144.37429,49.1244379 C2144.37429,37.7343981 2153.64157,28.4675293 2165.03212,28.4675293 C2176.42266,28.4675293 2185.68994,37.7343981 2185.68994,49.1244379 C2185.68994,60.5144778 2176.42266,69.7813466 2165.03212,69.7813466" id="Fill-414"></path>
                <path d="M2161.50969,44.3654454 C2161.50969,44.3654454 2161.37317,43.0308295 2162.3342,42.0123541 C2163.00963,42.6913377 2165.0323,44.3654454 2168.5567,44.3654454 C2168.5567,46.3071948 2166.97772,47.8878974 2165.0323,47.8878974 C2163.08866,47.8878974 2161.50969,46.3071948 2161.50969,44.3654454 M2169.7315,44.2612628 C2169.7315,41.6656773 2167.62979,39.5622651 2165.0323,39.5622651 C2162.43839,39.5622651 2160.33309,41.6656773 2160.33309,44.2612628 C2160.33309,46.8568482 2162.43839,48.9602604 2165.0323,48.9602604 C2167.62979,48.9602604 2169.7315,46.8568482 2169.7315,44.2612628" id="Fill-416"></path>
                <path d="M2156.96622,52.5748602 L2156.96622,54.6531248 L2156.96622,57.3421155 C2156.96622,58.0839679 2157.56799,58.6857126 2158.31168,58.6857126 L2171.75184,58.6857126 C2172.49732,58.6857126 2173.09729,58.0839679 2173.09729,57.3421155 L2173.09729,54.6531248 L2173.09729,52.5748602 C2173.09729,51.0911553 2171.89554,49.8894621 2170.40818,49.8894621 L2168.02624,49.8894621 C2167.85559,49.8894621 2167.64542,50.0008297 2167.55022,50.1409375 L2165.20241,53.4622091 C2165.1072,53.6023169 2164.95631,53.6023169 2164.8629,53.4622091 L2162.51509,50.1409375 C2162.41989,50.0008297 2162.20792,49.8876658 2162.03727,49.8876658 L2159.65533,49.8876658 C2158.17336,49.8876658 2156.96622,51.0911553 2156.96622,52.5748602" id="Fill-418"></path>
                <path d="M1488.78184,173.619675 C1488.78184,173.619675 1488.52497,171.097736 1490.34286,169.170356 C1491.62364,170.452881 1495.45522,173.619675 1502.12859,173.619675 C1502.12859,177.301993 1499.1359,180.292754 1495.45522,180.292754 C1491.77453,180.292754 1488.78184,177.298401 1488.78184,173.619675 M1504.35245,173.427476 C1504.35245,168.514724 1500.37178,164.530635 1495.45522,164.530635 C1490.54045,164.530635 1486.55798,168.514724 1486.55798,173.427476 C1486.55798,178.342024 1490.54045,182.324316 1495.45522,182.324316 C1500.37178,182.324316 1504.35245,178.342024 1504.35245,173.427476" id="Fill-428"></path>
                <path d="M1480.18334,189.168399 L1480.18334,193.100397 L1480.18334,198.192774 C1480.18334,199.59924 1481.32401,200.736268 1482.72874,200.736268 L1508.18098,200.736268 C1509.58571,200.736268 1510.72638,199.59924 1510.72638,198.192774 L1510.72638,193.100397 L1510.72638,189.168399 C1510.72638,186.357263 1508.44863,184.077819 1505.63557,184.077819 L1501.12139,184.077819 C1500.80344,184.077819 1500.40106,184.293369 1500.22322,184.559214 L1495.7755,190.8461 C1495.59946,191.111945 1495.31025,191.111945 1495.13421,190.8461 L1490.68649,184.559214 C1490.50866,184.293369 1490.10448,184.077819 1489.78833,184.077819 L1485.27414,184.077819 C1482.46648,184.077819 1480.18334,186.357263 1480.18334,189.168399" id="Fill-430"></path>
                <path d="M1845.62369,39.3125859 C1832.38292,39.3125859 1821.61211,50.0847148 1821.61211,63.3248951 C1821.61211,76.5632792 1832.38292,87.3372042 1845.62369,87.3372042 C1858.86446,87.3372042 1869.63706,76.5632792 1869.63706,63.3248951 C1869.63706,50.0847148 1858.86446,39.3125859 1845.62369,39.3125859 M1845.62369,90.5381269 C1830.61712,90.5381269 1818.40925,78.3289958 1818.40925,63.3248951 C1818.40925,48.3189981 1830.61712,36.1116632 1845.62369,36.1116632 C1860.63025,36.1116632 1872.83813,48.3189981 1872.83813,63.3248951 C1872.83813,78.3289958 1860.63025,90.5381269 1845.62369,90.5381269" id="Fill-432"></path>
                <path d="M1839.98805,55.519278 C1839.98805,55.519278 1839.77788,53.4535871 1841.26704,51.876477 C1842.3143,52.927285 1845.45429,55.519278 1850.91694,55.519278 C1850.91694,58.5351867 1848.46674,60.9834794 1845.45429,60.9834794 C1842.43825,60.9834794 1839.98805,58.5315941 1839.98805,55.519278 M1852.73842,55.363004 C1852.73842,51.3393974 1849.47988,48.0774021 1845.45429,48.0774021 C1841.42871,48.0774021 1838.16657,51.3393974 1838.16657,55.363004 C1838.16657,59.3866105 1841.42871,62.6468096 1845.45429,62.6468096 C1849.47988,62.6468096 1852.73842,59.3866105 1852.73842,55.363004" id="Fill-434"></path>
                <path d="M1832.94661,68.2523761 L1832.94661,71.4730576 L1832.94661,75.6439569 C1832.94661,76.7935588 1833.8807,77.7258141 1835.03035,77.7258141 L1855.8732,77.7258141 C1857.02465,77.7258141 1857.95875,76.7935588 1857.95875,75.6439569 L1857.95875,71.4730576 L1857.95875,68.2523761 C1857.95875,65.9495799 1856.09415,64.0832731 1853.78946,64.0832731 L1850.0926,64.0832731 C1849.83393,64.0832731 1849.50341,64.2611021 1849.3579,64.4766525 L1845.71494,69.6265096 C1845.57123,69.8438562 1845.33412,69.8438562 1845.19041,69.6265096 L1841.54745,64.4766525 C1841.40195,64.2611021 1841.07142,64.0832731 1840.81095,64.0832731 L1837.1159,64.0832731 C1834.81659,64.0832731 1832.94661,65.9495799 1832.94661,68.2523761" id="Fill-436"></path>
                <path d="M2131.09616,419.960675 C2127.01848,419.960675 2123.71143,416.858546 2123.71143,412.781052 C2123.71143,412.781052 2126.99872,409.901659 2131.16622,409.901659 C2135.39838,409.901659 2138.48268,412.781052 2138.48268,412.781052 C2138.48268,416.858546 2135.17563,419.960675 2131.09616,419.960675 M2131.09616,404.926038 C2134.51278,404.926038 2137.69948,407.297092 2137.69948,410.219596 C2137.69948,410.356111 2137.69409,410.494422 2137.68151,410.627345 C2137.65996,410.85008 2137.58272,410.751286 2137.46955,410.424368 C2136.68994,408.186237 2133.94155,406.542666 2131.09616,406.542666 C2128.25077,406.542666 2125.32813,408.186237 2124.52158,410.424368 C2124.40302,410.751286 2124.32398,410.85008 2124.30602,410.627345 C2124.29345,410.494422 2124.28806,410.356111 2124.28806,410.219596 C2124.28806,407.297092 2127.68133,404.926038 2131.09616,404.926038 M2131.09616,402.723832 C2125.65866,402.723832 2121.24866,407.133633 2121.24866,412.572687 L2121.24866,415.732296 C2121.17501,416.750771 2120.8373,419.116436 2119.25653,418.952977 C2117.25362,418.746408 2119.79184,422.392802 2123.68449,422.419745 C2123.69347,422.419745 2123.70245,422.421542 2123.71143,422.421542 L2138.48268,422.421542 C2142.40228,422.421542 2144.96924,418.744612 2142.95914,418.952977 C2140.94365,419.161343 2140.94365,415.277844 2140.94365,415.277844 L2140.94365,412.572687 C2140.94365,407.133633 2136.53545,402.723832 2131.09616,402.723832" id="Fill-448"></path>
                <path d="M2127.24734,438.095106 C2127.82216,438.095106 2128.28741,438.560335 2128.28741,439.135136 C2128.28741,439.709937 2127.82216,440.176963 2127.24734,440.176963 C2126.67431,440.176963 2126.20906,439.709937 2126.20906,439.135136 C2126.20906,438.560335 2126.67431,438.095106 2127.24734,438.095106 M2127.24734,434.349919 C2127.82216,434.349919 2128.28741,434.816944 2128.28741,435.389949 C2128.28741,435.96475 2127.82216,436.431776 2127.24734,436.431776 C2126.67431,436.431776 2126.20906,435.96475 2126.20906,435.389949 C2126.20906,434.816944 2126.67431,434.349919 2127.24734,434.349919 M2116.32384,429.808991 L2116.32384,439.65605 C2116.32384,441.017609 2117.42499,442.118712 2118.78661,442.118712 L2121.24938,442.118712 L2140.94437,442.118712 L2143.40714,442.118712 C2144.76877,442.118712 2145.86992,441.017609 2145.86992,439.65605 L2145.86992,429.808991 C2145.86992,427.087668 2143.66582,424.885462 2140.94437,424.885462 L2138.69357,424.885462 C2138.35047,424.885462 2137.83851,425.03994 2137.55469,425.235731 L2135.03803,426.954745 C2134.75421,427.146944 2134.44344,427.574452 2134.34644,427.903167 L2131.41124,437.84363 C2131.31423,438.174141 2131.15256,438.175937 2131.04838,437.847223 L2127.96407,428.075607 C2127.86168,427.746893 2127.54553,427.324773 2127.25991,427.130778 L2124.43608,425.232139 C2124.14687,425.038143 2123.63671,424.885462 2123.29181,424.885462 L2121.24759,424.885462 C2118.52973,424.885462 2116.32384,427.087668 2116.32384,429.808991" id="Fill-450"></path>
                <path d="M2012.04349,208.264185 C2003.62408,208.264185 1996.77466,215.115093 1996.77466,223.532334 C1996.77466,231.949576 2003.62408,238.800484 2012.04349,238.800484 C2020.4629,238.800484 2027.31232,231.949576 2027.31232,223.532334 C2027.31232,215.115093 2020.4629,208.264185 2012.04349,208.264185 M2012.04349,244.189243 C2000.65295,244.189243 1991.38567,234.922374 1991.38567,223.532334 C1991.38567,212.142295 2000.65295,202.875426 2012.04349,202.875426 C2023.43404,202.875426 2032.70132,212.142295 2032.70132,223.532334 C2032.70132,234.922374 2023.43404,244.189243 2012.04349,244.189243" id="Fill-452"></path>
                <path d="M2012.04349,221.604596 C2010.09806,221.604596 2008.52088,220.12628 2008.52088,218.180938 C2008.52088,218.180938 2010.08908,216.806804 2012.07583,216.806804 C2014.0949,216.806804 2015.5661,218.180938 2015.5661,218.180938 C2015.5661,220.12628 2013.98892,221.604596 2012.04349,221.604596 M2012.04349,214.432158 C2013.67277,214.432158 2015.19067,215.563797 2015.19067,216.957689 C2015.19067,217.022355 2015.18887,217.088816 2015.18348,217.151685 C2015.1727,217.25946 2015.13678,217.210961 2015.08289,217.056483 C2014.71105,215.987713 2013.39972,215.204547 2012.04349,215.204547 C2010.68546,215.204547 2009.29151,215.987713 2008.9053,217.056483 C2008.85141,217.210961 2008.81369,217.25946 2008.8047,217.151685 C2008.79752,217.088816 2008.79393,217.022355 2008.79393,216.957689 C2008.79393,215.563797 2010.41422,214.432158 2012.04349,214.432158 M2012.04349,213.383146 C2009.44959,213.383146 2007.34608,215.486558 2007.34608,218.078551 L2007.34608,219.587404 C2007.31195,220.070596 2007.14849,221.200439 2006.39582,221.1232 C2005.44017,221.026202 2006.6509,222.764975 2008.50831,222.775753 L2008.52088,222.775753 L2015.5661,222.775753 C2017.43429,222.775753 2018.65939,221.024406 2017.70014,221.1232 C2016.73911,221.221994 2016.73911,219.370057 2016.73911,219.370057 L2016.73911,218.078551 C2016.73911,215.486558 2014.6374,213.383146 2012.04349,213.383146" id="Fill-454"></path>
                <path d="M2010.20656,230.252476 C2010.4814,230.252476 2010.70235,230.473415 2010.70235,230.750038 C2010.70235,231.024865 2010.4814,231.2476 2010.20656,231.2476 C2009.93352,231.2476 2009.71077,231.024865 2009.71077,230.750038 C2009.71077,230.473415 2009.93352,230.252476 2010.20656,230.252476 M2010.20656,228.467 C2010.4814,228.467 2010.70235,228.689736 2010.70235,228.962766 C2010.70235,229.237593 2010.4814,229.460328 2010.20656,229.460328 C2009.93352,229.460328 2009.71077,229.237593 2009.71077,228.962766 C2009.71077,228.689736 2009.93352,228.467 2010.20656,228.467 M2004.9972,226.300719 L2004.9972,230.997921 C2004.9972,231.646368 2005.52173,232.17267 2006.172,232.17267 L2007.3468,232.17267 L2016.73982,232.17267 L2017.91463,232.17267 C2018.5631,232.17267 2019.08943,231.646368 2019.08943,230.997921 L2019.08943,226.300719 C2019.08943,225.002029 2018.03678,223.953017 2016.73982,223.953017 L2015.66741,223.953017 C2015.50215,223.953017 2015.25965,224.026663 2015.12312,224.120068 L2013.92138,224.93916 C2013.78665,225.032565 2013.63935,225.235541 2013.59265,225.391815 L2012.19331,230.133923 C2012.1466,230.290197 2012.06936,230.290197 2012.01906,230.135719 L2010.54966,225.474443 C2010.49936,225.318169 2010.34847,225.116989 2010.21375,225.02538 L2008.8665,224.118272 C2008.72818,224.026663 2008.48568,223.953017 2008.32041,223.953017 L2007.345,223.953017 C2006.04985,223.953017 2004.9972,225.002029 2004.9972,226.300719" id="Fill-456"></path>
                <path d="M1941.98724,39.4162297 C1933.56782,39.4162297 1926.71841,46.2671384 1926.71841,54.6843796 C1926.71841,63.1016208 1933.56782,69.9525295 1941.98724,69.9525295 C1950.40665,69.9525295 1957.25606,63.1016208 1957.25606,54.6843796 C1957.25606,46.2671384 1950.40665,39.4162297 1941.98724,39.4162297 M1941.98724,75.3412883 C1930.59669,75.3412883 1921.32941,66.0744194 1921.32941,54.6843796 C1921.32941,43.2943398 1930.59669,34.027471 1941.98724,34.027471 C1953.37778,34.027471 1962.64506,43.2943398 1962.64506,54.6843796 C1962.64506,66.0744194 1953.37778,75.3412883 1941.98724,75.3412883" id="Fill-458"></path>
                <path d="M1941.98724,52.756641 C1940.04181,52.756641 1938.46463,51.2783248 1938.46463,49.3329829 C1938.46463,49.3329829 1940.03283,47.9588494 1942.01957,47.9588494 C1944.03865,47.9588494 1945.50984,49.3329829 1945.50984,49.3329829 C1945.50984,51.2783248 1943.93266,52.756641 1941.98724,52.756641 M1941.98724,45.584203 C1943.61651,45.584203 1945.13441,46.7158424 1945.13441,48.1097347 C1945.13441,48.1743998 1945.13261,48.2408611 1945.12723,48.3019337 C1945.11645,48.4115052 1945.08052,48.3630063 1945.02663,48.2085286 C1944.65479,47.1397581 1943.34347,46.3565918 1941.98724,46.3565918 C1940.62921,46.3565918 1939.23525,47.1397581 1938.84904,48.2085286 C1938.79515,48.3630063 1938.75743,48.4115052 1938.74845,48.3019337 C1938.74126,48.2408611 1938.73767,48.1743998 1938.73767,48.1097347 C1938.73767,46.7158424 1940.35796,45.584203 1941.98724,45.584203 M1941.98724,44.5351913 C1939.39333,44.5351913 1937.28983,46.6386035 1937.28983,49.2305965 L1937.28983,50.7394489 C1937.2557,51.222641 1937.09223,52.3524841 1936.33957,52.2752452 C1935.38392,52.1782475 1936.59465,53.9152241 1938.45205,53.9277979 L1938.46463,53.9277979 L1945.50984,53.9277979 C1947.37803,53.9277979 1948.60313,52.1764513 1947.64389,52.2752452 C1946.68285,52.3740391 1946.68285,50.5221023 1946.68285,50.5221023 L1946.68285,49.2305965 C1946.68285,46.6386035 1944.58114,44.5351913 1941.98724,44.5351913" id="Fill-460"></path>
                <path d="M1940.15049,61.4045211 C1940.42532,61.4045211 1940.64627,61.6254602 1940.64627,61.9020831 C1940.64627,62.1769098 1940.42532,62.3996452 1940.15049,62.3996452 C1939.87744,62.3996452 1939.6547,62.1769098 1939.6547,61.9020831 C1939.6547,61.6254602 1939.87744,61.4045211 1940.15049,61.4045211 M1940.15049,59.6190457 C1940.42532,59.6190457 1940.64627,59.841781 1940.64627,60.1148115 C1940.64627,60.3896382 1940.42532,60.6123735 1940.15049,60.6123735 C1939.87744,60.6123735 1939.6547,60.3896382 1939.6547,60.1148115 C1939.6547,59.841781 1939.87744,59.6190457 1940.15049,59.6190457 M1934.93932,57.4527646 L1934.93932,62.149966 C1934.93932,62.7984133 1935.46565,63.3247155 1936.11413,63.3247155 L1937.29072,63.3247155 L1946.68375,63.3247155 L1947.85855,63.3247155 C1948.50703,63.3247155 1949.03335,62.7984133 1949.03335,62.149966 L1949.03335,57.4527646 C1949.03335,56.1540738 1947.9807,55.1050621 1946.68375,55.1050621 L1945.61134,55.1050621 C1945.44607,55.1050621 1945.20357,55.1787084 1945.06705,55.2721136 L1943.8653,56.0912049 C1943.73058,56.1846101 1943.58328,56.3875867 1943.53657,56.5438607 L1942.13723,61.2859684 C1942.09053,61.4422424 1942.01328,61.4422424 1941.96299,61.2877646 L1940.49179,56.6264883 C1940.44329,56.4702143 1940.2924,56.269034 1940.15587,56.1774251 L1938.80863,55.2703173 C1938.6721,55.1787084 1938.4296,55.1050621 1938.26434,55.1050621 L1937.28893,55.1050621 C1935.99377,55.1050621 1934.93932,56.1540738 1934.93932,57.4527646" id="Fill-462"></path>
                <path d="M1437.21703,283.431442 C1435.27161,283.431442 1433.69443,281.953126 1433.69443,280.007784 C1433.69443,280.007784 1435.26262,278.63365 1437.24937,278.63365 C1439.26845,278.63365 1440.73964,280.007784 1440.73964,280.007784 C1440.73964,281.953126 1439.16246,283.431442 1437.21703,283.431442 M1437.21703,276.259004 C1438.84631,276.259004 1440.36421,277.390643 1440.36421,278.784536 C1440.36421,278.849201 1440.36241,278.915662 1440.35702,278.976735 C1440.34625,279.086306 1440.31032,279.037807 1440.25643,278.88333 C1439.88459,277.814559 1438.57327,277.031393 1437.21703,277.031393 C1435.85901,277.031393 1434.46505,277.814559 1434.07884,278.88333 C1434.02495,279.037807 1433.98723,279.086306 1433.97825,278.976735 C1433.97106,278.915662 1433.96747,278.849201 1433.96747,278.784536 C1433.96747,277.390643 1435.58776,276.259004 1437.21703,276.259004 M1437.21703,275.209992 C1434.62313,275.209992 1432.51962,277.313404 1432.51962,279.905397 L1432.51962,281.41425 C1432.48549,281.897442 1432.32203,283.027285 1431.56936,282.950046 C1430.61372,282.853048 1431.82444,284.590025 1433.68185,284.602599 L1433.69443,284.602599 L1440.73964,284.602599 C1442.60783,284.602599 1443.83293,282.851252 1442.87369,282.950046 C1441.91265,283.04884 1441.91265,281.196903 1441.91265,281.196903 L1441.91265,279.905397 C1441.91265,277.313404 1439.81094,275.209992 1437.21703,275.209992" id="Fill-468"></path>
                <path d="M1435.38028,292.079322 C1435.65512,292.079322 1435.87607,292.300261 1435.87607,292.576884 C1435.87607,292.851711 1435.65512,293.074446 1435.38028,293.074446 C1435.10724,293.074446 1434.8845,292.851711 1434.8845,292.576884 C1434.8845,292.300261 1435.10724,292.079322 1435.38028,292.079322 M1435.38028,290.293847 C1435.65512,290.293847 1435.87607,290.516582 1435.87607,290.789612 C1435.87607,291.064439 1435.65512,291.287174 1435.38028,291.287174 C1435.10724,291.287174 1434.8845,291.064439 1434.8845,290.789612 C1434.8845,290.516582 1435.10724,290.293847 1435.38028,290.293847 M1430.17092,288.127566 L1430.17092,292.824767 C1430.17092,293.473214 1430.69545,293.999516 1431.34393,293.999516 L1432.52052,293.999516 L1441.91355,293.999516 L1443.08835,293.999516 C1443.73682,293.999516 1444.26315,293.473214 1444.26315,292.824767 L1444.26315,288.127566 C1444.26315,286.828875 1443.2105,285.779863 1441.91355,285.779863 L1440.84114,285.779863 C1440.67587,285.779863 1440.43337,285.853509 1440.29685,285.946915 L1439.0951,286.766006 C1438.96038,286.859411 1438.81308,287.062388 1438.76637,287.218662 L1437.36703,291.960769 C1437.32032,292.117043 1437.24308,292.117043 1437.19278,291.962566 L1435.72159,287.301289 C1435.67309,287.145015 1435.52219,286.943835 1435.38567,286.852226 L1434.03842,285.945118 C1433.9019,285.853509 1433.6594,285.779863 1433.49414,285.779863 L1432.51873,285.779863 C1431.22357,285.779863 1430.17092,286.828875 1430.17092,288.127566" id="Fill-470"></path>
                <path d="M1676.25538,296.692818 C1670.05983,296.692818 1665.03549,291.983043 1665.03549,285.789563 C1665.03549,285.789563 1670.02929,281.413891 1676.35957,281.413891 C1682.78685,281.413891 1687.47348,285.789563 1687.47348,285.789563 C1687.47348,291.983043 1682.45093,296.692818 1676.25538,296.692818 M1676.25538,273.84987 C1681.44319,273.84987 1686.28072,277.453153 1686.28072,281.895286 C1686.28072,282.101856 1686.27173,282.313813 1686.25557,282.509605 C1686.22144,282.856282 1686.10647,282.700008 1685.93402,282.207834 C1684.75024,278.805731 1680.57377,276.314329 1676.25538,276.314329 C1671.93161,276.314329 1667.49287,278.805731 1666.26418,282.207834 C1666.08814,282.700008 1665.96779,282.856282 1665.93904,282.509605 C1665.92108,282.313813 1665.90851,282.101856 1665.90851,281.895286 C1665.90851,277.453153 1671.06578,273.84987 1676.25538,273.84987 M1676.25538,270.510635 C1667.99225,270.510635 1661.29732,277.207066 1661.29732,285.464441 L1661.29732,290.269418 C1661.18595,291.810603 1660.6686,295.408497 1658.2687,295.160614 C1655.22572,294.849863 1659.08244,300.385914 1664.99597,300.423635 L1665.03549,300.423635 L1687.47348,300.423635 C1693.42653,300.423635 1697.32277,294.844474 1694.26901,295.160614 C1691.20985,295.474959 1691.20985,289.576064 1691.20985,289.576064 L1691.20985,285.464441 C1691.20985,277.207066 1684.51492,270.510635 1676.25538,270.510635" id="Fill-472"></path>
                <path d="M1670.40688,324.232968 C1671.2799,324.232968 1671.98766,324.937099 1671.98766,325.820856 C1671.98766,326.690242 1671.2799,327.401558 1670.40688,327.401558 C1669.53566,327.401558 1668.82791,326.690242 1668.82791,325.820856 C1668.82791,324.937099 1669.53566,324.232968 1670.40688,324.232968 M1670.40688,318.546031 C1671.2799,318.546031 1671.98766,319.257347 1671.98766,320.126734 C1671.98766,320.997916 1671.2799,321.709233 1670.40688,321.709233 C1669.53566,321.709233 1668.82791,320.997916 1668.82791,320.126734 C1668.82791,319.257347 1669.53566,318.546031 1670.40688,318.546031 M1653.81416,311.646624 L1653.81416,326.605818 C1653.81416,328.675101 1655.48834,330.349209 1657.55412,330.349209 L1661.29768,330.349209 L1691.21021,330.349209 L1694.95377,330.349209 C1697.01955,330.349209 1698.69373,328.675101 1698.69373,326.605818 L1698.69373,311.646624 C1698.69373,307.513446 1695.34357,304.172415 1691.21021,304.172415 L1687.79538,304.172415 C1687.27265,304.172415 1686.49664,304.407724 1686.06552,304.704106 L1682.23753,307.312265 C1681.80821,307.608647 1681.33577,308.255298 1681.19027,308.754656 L1676.73177,323.852162 C1676.58268,324.355113 1676.34017,324.355113 1676.1803,323.859347 L1671.49546,309.015113 C1671.33918,308.519347 1670.85776,307.878085 1670.42664,307.585296 L1666.1352,304.698717 C1665.6987,304.407724 1664.92268,304.172415 1664.39815,304.172415 L1661.29229,304.172415 C1657.16612,304.172415 1653.81416,307.513446 1653.81416,311.646624" id="Fill-474"></path>
                <path d="M638.596267,317.478338 C634.649724,317.478338 631.446863,314.4768 631.446863,310.532228 C631.446863,310.532228 634.629965,307.744444 638.664528,307.744444 C642.756574,307.744444 645.743875,310.532228 645.743875,310.532228 C645.743875,314.4768 642.544606,317.478338 638.596267,317.478338 M638.596267,302.926893 C641.903316,302.926893 644.987619,305.224301 644.987619,308.051603 C644.987619,308.184526 644.980434,308.317448 644.967859,308.446779 C644.9481,308.662329 644.87445,308.567128 644.764874,308.249191 C644.010414,306.084706 641.348249,304.49143 638.596267,304.49143 C635.842489,304.49143 633.013265,306.084706 632.233657,308.249191 C632.118692,308.567128 632.043246,308.662329 632.023486,308.446779 C632.012708,308.317448 632.007319,308.184526 632.007319,308.051603 C632.007319,305.224301 635.289219,302.926893 638.596267,302.926893 M638.596267,300.798334 C633.331216,300.798334 629.064926,305.066231 629.064926,310.329252 L629.064926,313.386474 C628.994869,314.370821 628.667936,316.66284 627.137461,316.504769 C625.199218,316.305385 627.654805,319.833226 631.423511,319.858374 C631.432492,319.858374 631.441474,319.861966 631.446863,319.861966 L645.743875,319.861966 C649.539526,319.861966 652.022058,316.303589 650.078426,316.504769 C648.127608,316.704153 648.127608,312.946392 648.127608,312.946392 L648.127608,310.329252 C648.127608,305.066231 643.861318,300.798334 638.596267,300.798334" id="Fill-488"></path>
                <path d="M634.87211,335.028628 C635.428973,335.028628 635.878057,335.479487 635.878057,336.038122 C635.878057,336.591368 635.428973,337.044023 634.87211,337.044023 C634.315247,337.044023 633.864368,336.591368 633.864368,336.038122 C633.864368,335.479487 634.315247,335.028628 634.87211,335.028628 M634.87211,331.403789 C635.428973,331.403789 635.878057,331.856445 635.878057,332.411487 C635.878057,332.968326 635.428973,333.420981 634.87211,333.420981 C634.315247,333.420981 633.864368,332.968326 633.864368,332.411487 C633.864368,331.856445 634.315247,331.403789 634.87211,331.403789 M624.298896,327.010155 L624.298896,336.541073 C624.298896,337.85593 625.364121,338.9247 626.680833,338.9247 L629.066363,338.9247 L648.127249,338.9247 L650.509186,338.9247 C651.827694,338.9247 652.89292,337.85593 652.89292,336.541073 L652.89292,327.010155 C652.89292,324.376848 650.760673,322.244696 648.127249,322.244696 L645.948298,322.244696 C645.61418,322.244696 645.121985,322.395581 644.848942,322.582391 L642.411319,324.247518 C642.13648,324.434328 641.836492,324.847466 641.741286,325.165403 L638.901284,334.786133 C638.806079,335.10407 638.651594,335.107663 638.551,334.789726 L635.565495,325.332454 C635.466696,325.014518 635.159524,324.604972 634.882888,324.419958 L632.14887,322.580595 C631.870438,322.395581 631.378243,322.244696 631.042329,322.244696 L629.066363,322.244696 C626.434736,322.244696 624.298896,324.376848 624.298896,327.010155" id="Fill-490"></path>
            </g>
        </g>
    </g>
</svg>