<svg xmlns="http://www.w3.org/2000/svg" viewBox="0 0 179 179"><defs><style>.a{fill:#fff;}.b{fill:#f8fafb;stroke:#b5bcce;}.c{fill:#b5bcce;}</style></defs><title>user-who</title><path class="a" d="M89.5,178.5a89,89,0,1,0-89-89A89,89,0,0,0,89.5,178.5Z" transform="translate(0 0)"/><path class="b" d="M89.5,178.5a89,89,0,1,0-89-89A89,89,0,0,0,89.5,178.5Z" transform="translate(0 0)"/><circle class="c" cx="90.5" cy="90.5" r="36"/><path class="a" d="M84.5,83.28a2.42,2.42,0,0,1-.21,1,2.85,2.85,0,0,1-.55.82,2.41,2.41,0,0,1-.81.55,2.54,2.54,0,0,1-1,.2,2.44,2.44,0,0,1-1.82-.73,2.51,2.51,0,0,1-.72-1.83,11.32,11.32,0,0,1,.94-4.59,12.15,12.15,0,0,1,2.55-3.76,12,12,0,0,1,3.76-2.54,11.4,11.4,0,0,1,4.58-.9,11.14,11.14,0,0,1,4.57,1A12.32,12.32,0,0,1,99.5,75a12.16,12.16,0,0,1,2.55,3.76,11.22,11.22,0,0,1,.94,4.54,11.61,11.61,0,0,1-3.49,8.4l-3.83,3.54a6,6,0,0,0-2,4.27A2.46,2.46,0,0,1,91.29,102H91.13a2.51,2.51,0,0,1-1.83-.72,2.45,2.45,0,0,1-.73-1.82,10.88,10.88,0,0,1,3.49-7.88l3.83-3.56a6.64,6.64,0,0,0,2-4.76,6.35,6.35,0,0,0-.54-2.59,6.9,6.9,0,0,0-3.59-3.59,6.37,6.37,0,0,0-2.59-.54,6.53,6.53,0,0,0-2.61.53,6.88,6.88,0,0,0-2.06,1.4A6.62,6.62,0,0,0,84.5,83.28ZM94.68,107a3.46,3.46,0,1,1-1-2.45,3.34,3.34,0,0,1,1,2.44h0Z" transform="translate(0 0)"/><path class="c" d="M141,160c-10.29-17.29-29.92-25.5-51.5-25.5s-40.74,8.1-51,25.5c-1.61,2.73,8.93,9.42,23,14a87.1,87.1,0,0,0,30,4.5A94.1,94.1,0,0,0,126,171C135.57,166.68,142.29,162.16,141,160Z" transform="translate(0 0)"/></svg>