<svg xmlns="http://www.w3.org/2000/svg" xmlns:xlink="http://www.w3.org/1999/xlink" viewBox="0 0 551.3 322.79"><defs><style>.a{fill:#fff;}.b{fill:#1d073e;}.c{fill:#e8c196;}.d{fill:#91a26e;}.e{fill:#c1d891;}.f{fill:#8d1f3a;}.g{fill:#bd4341;}.h{fill:#768f61;}.i{mask:url(#a);}.j{fill:none;stroke:#1d073e;stroke-linecap:square;stroke-width:5px;}.k{mask:url(#b);}</style><mask id="a" x="417.96" y="32.47" width="14.39" height="14.48" maskUnits="userSpaceOnUse"><g transform="translate(-0.01 -0.09)"><polygon class="a" points="432.36 32.57 417.98 32.57 417.98 47.05 432.36 47.05 432.36 32.57"/></g></mask><mask id="b" x="527.34" y="-5.38" width="29.34" height="28.88" maskUnits="userSpaceOnUse"><g transform="translate(-0.01 -0.09)"><polygon class="a" points="527.35 7.94 539.14 23.59 556.69 10.36 544.9 -5.29 527.35 7.94"/></g></mask></defs><title>voting-show-results</title><path class="b" d="M195.5,289.7V284.4h-2.14V241c0-4.74-4.74-5.47-4.74-5.47l-25.4-2.9V199.8a4.8,4.8,0,1,0-9.6,0v40.51c0,0.44,0,.86,0,1.27h-2.08c-2.57,0-2.57,2.92-2.57,2.92v20.44l10.09,6.33V284.4h-3.83v5.29h-2.65v33.18H198V289.7H195.5Z" transform="translate(-0.01 -0.09)"/><polyline class="c" points="285.61 194.71 285.61 212.48 283.53 194.72"/><path class="b" d="M329.5,242.7V237.4h-2.14V194c0-4.74-4.74-5.47-4.74-5.47l-25.4-2.9V152.8a4.8,4.8,0,1,0-9.6,0v40.51c0,0.44,0,.86,0,1.27h-2.08c-2.57,0-2.57,2.92-2.57,2.92v20.44l10.09,6.33V237.4h-3.83v5.29h-2.65v80.08H332V242.7H329.5Z" transform="translate(-0.01 -0.09)"/><polyline class="c" points="420.88 144.8 420.88 162.56 418.8 144.8"/><path class="b" d="M464.5,192.7V187.4h-2.14V144c0-4.74-4.74-5.47-4.74-5.47l-25.4-2.9V102.8a4.8,4.8,0,1,0-9.6,0v40.51c0,0.44,0,.86,0,1.27h-2.08c-2.57,0-2.57,2.92-2.57,2.92v20.44l10.09,6.33V187.4h-3.83v5.29h-2.65v130H467v-130H464.5Z" transform="translate(-0.01 -0.09)"/><path class="b" d="M477.05,55c-2,.28-39.26,11.5-50.65,14.93a2.55,2.55,0,0,0-1,.58L355.55,136.1,291.8,119.68a2.55,2.55,0,0,0-2.38.61L222.6,182.83l-63.46-17a2.55,2.55,0,0,0-2.1.36l-40.93,28a2.55,2.55,0,1,0,2.88,4.21l40-27.38,63.7,17a2.55,2.55,0,0,0,2.4-.6L291.88,125l63.75,16.42a2.55,2.55,0,0,0,2.38-.61l70.44-66.13c19-5.71,47.3-14.18,49.37-14.6A2.55,2.55,0,0,0,477.05,55Z" transform="translate(-0.01 -0.09)"/><path class="d" d="M142,168.64a14.56,14.56,0,1,1,14.56,14.57A14.56,14.56,0,0,1,142,168.64" transform="translate(-0.01 -0.09)"/><path class="e" d="M141.74,168.27a14.56,14.56,0,1,1,14.56,14.57,14.56,14.56,0,0,1-14.56-14.57" transform="translate(-0.01 -0.09)"/><path class="d" d="M156.29,154a14.29,14.29,0,1,0,14.27,14.29A14.3,14.3,0,0,0,156.29,154m0,29.14a14.85,14.85,0,1,1,14.84-14.85,14.86,14.86,0,0,1-14.84,14.85" transform="translate(-0.01 -0.09)"/><path class="d" d="M276.46,125.21A14.56,14.56,0,1,1,291,139.78a14.56,14.56,0,0,1-14.56-14.57" transform="translate(-0.01 -0.09)"/><path class="e" d="M276.23,124.83a14.56,14.56,0,1,1,14.56,14.57,14.56,14.56,0,0,1-14.56-14.57" transform="translate(-0.01 -0.09)"/><path class="d" d="M290.79,110.55a14.29,14.29,0,1,0,14.27,14.29,14.3,14.3,0,0,0-14.27-14.29m0,29.14a14.85,14.85,0,1,1,14.84-14.85,14.86,14.86,0,0,1-14.84,14.85" transform="translate(-0.01 -0.09)"/><path class="d" d="M410.61,75.58a14.56,14.56,0,1,1,14.56,14.57,14.56,14.56,0,0,1-14.56-14.57" transform="translate(-0.01 -0.09)"/><path class="e" d="M410.38,75.2a14.56,14.56,0,1,1,14.56,14.57A14.56,14.56,0,0,1,410.38,75.2" transform="translate(-0.01 -0.09)"/><path class="d" d="M424.94,60.91A14.29,14.29,0,1,0,439.22,75.2a14.3,14.3,0,0,0-14.27-14.29m0,29.14A14.85,14.85,0,1,1,439.78,75.2a14.86,14.86,0,0,1-14.84,14.85" transform="translate(-0.01 -0.09)"/><path class="f" d="M343.55,140a14.56,14.56,0,1,1,14.56,14.57A14.56,14.56,0,0,1,343.55,140" transform="translate(-0.01 -0.09)"/><path class="g" d="M343.32,139.59a14.56,14.56,0,1,1,14.56,14.57,14.56,14.56,0,0,1-14.56-14.57" transform="translate(-0.01 -0.09)"/><path class="f" d="M357.88,125.31a14.29,14.29,0,1,0,14.27,14.29,14.3,14.3,0,0,0-14.27-14.29m0,29.14a14.85,14.85,0,1,1,14.84-14.85,14.86,14.86,0,0,1-14.84,14.85" transform="translate(-0.01 -0.09)"/><path class="f" d="M209.07,185.87a14.56,14.56,0,1,1,14.56,14.57,14.56,14.56,0,0,1-14.56-14.57" transform="translate(-0.01 -0.09)"/><path class="g" d="M208.85,185.49a14.56,14.56,0,1,1,14.56,14.57,14.56,14.56,0,0,1-14.56-14.57" transform="translate(-0.01 -0.09)"/><path class="f" d="M223.4,171.21a14.29,14.29,0,1,0,14.27,14.29,14.3,14.3,0,0,0-14.27-14.29m0,29.14a14.85,14.85,0,1,1,14.84-14.85,14.86,14.86,0,0,1-14.84,14.85" transform="translate(-0.01 -0.09)"/><path class="h" d="M161.92,178.33a11.61,11.61,0,1,1,4.25-15.87,11.6,11.6,0,0,1-4.25,15.87h0ZM168.68,161a14.51,14.51,0,1,0-5.31,19.83A14.5,14.5,0,0,0,168.68,161h0Zm-11.54,1.75a1.45,1.45,0,0,0-2.05,0h0l-4.1,4.1a1.45,1.45,0,0,0,0,2.05h0a1.45,1.45,0,0,0,2.05,0l1.63-1.63v6.06a1.45,1.45,0,1,0,2.9,0v-6.06l1.63,1.63a1.45,1.45,0,0,0,2.05,0h0a1.45,1.45,0,0,0,0-2.05Z" transform="translate(-0.01 -0.09)"/><path class="h" d="M296.59,134.89A11.61,11.61,0,1,1,300.84,119a11.6,11.6,0,0,1-4.25,15.87h0Zm6.76-17.32A14.51,14.51,0,1,0,298,137.41a14.5,14.5,0,0,0,5.31-19.83h0Zm-11.54,1.75a1.45,1.45,0,0,0-2.05,0h0l-4.1,4.1a1.45,1.45,0,0,0,0,2.05h0a1.45,1.45,0,0,0,2.05,0l1.63-1.63v6.06a1.45,1.45,0,1,0,2.9,0v-6.06l1.63,1.63a1.45,1.45,0,0,0,2.05,0h0a1.45,1.45,0,0,0,0-2.05Z" transform="translate(-0.01 -0.09)"/><path class="h" d="M431,85.26a11.61,11.61,0,1,1,4.25-15.87A11.6,11.6,0,0,1,431,85.26h0Zm6.76-17.32a14.51,14.51,0,1,0-5.31,19.83,14.5,14.5,0,0,0,5.31-19.83h0Zm-11.54,1.75a1.45,1.45,0,0,0-2.05,0L420,73.8a1.45,1.45,0,1,0,2.05,2.05l1.63-1.63v6.06a1.45,1.45,0,1,0,2.9,0V74.22l1.63,1.63a1.45,1.45,0,0,0,2.05-2.05Z" transform="translate(-0.01 -0.09)"/><path class="f" d="M352.08,129.34a11.61,11.61,0,1,1-4.25,15.87,11.6,11.6,0,0,1,4.25-15.87h0Zm-6.76,17.32a14.51,14.51,0,1,0,5.31-19.83,14.5,14.5,0,0,0-5.31,19.83h0Zm11.54-1.75a1.45,1.45,0,0,0,2.05,0h0l4.1-4.1a1.45,1.45,0,0,0,0-2.05h0a1.45,1.45,0,0,0-2.05,0l-1.63,1.63v-6.06a1.45,1.45,0,1,0-2.9,0v6.06l-1.63-1.63a1.45,1.45,0,0,0-2.05,0h0a1.45,1.45,0,0,0,0,2.05Z" transform="translate(-0.01 -0.09)"/><path class="f" d="M217.83,175.81a11.61,11.61,0,1,1-4.25,15.87,11.6,11.6,0,0,1,4.25-15.87h0Zm-6.76,17.32a14.51,14.51,0,1,0,5.31-19.83,14.5,14.5,0,0,0-5.31,19.83h0Zm11.54-1.75a1.45,1.45,0,0,0,2.05,0h0l4.1-4.1a1.45,1.45,0,0,0,0-2.05h0a1.45,1.45,0,0,0-2.05,0l-1.63,1.63v-6.06a1.45,1.45,0,1,0-2.9,0v6.06l-1.63-1.63a1.45,1.45,0,0,0-2.05,0h0a1.45,1.45,0,0,0,0,2.05Z" transform="translate(-0.01 -0.09)"/><path class="h" d="M161.88,143.51a1,1,0,0,0,1.42-1.43l-6.19-6.19a1,1,0,0,0-1.42,0l-6.19,6.19a1,1,0,0,0,1.43,1.43l5.47-5.48Zm-5.47-11.76-5.47,5.48a1,1,0,1,1-1.43-1.43l6.19-6.19a1,1,0,0,1,1.42,0l6.19,6.19a1,1,0,1,1-1.42,1.43Z" transform="translate(-0.01 -0.09)"/><path class="h" d="M296.37,97.09a1,1,0,0,0,1.42-1.43l-6.19-6.19a1,1,0,0,0-1.42,0L284,95.67a1,1,0,0,0,1.43,1.43l5.47-5.48ZM290.9,85.34l-5.47,5.48A1,1,0,0,1,284,89.39l6.19-6.19a1,1,0,0,1,1.42,0l6.19,6.19a1,1,0,0,1-1.42,1.43Z" transform="translate(-0.01 -0.09)"/><g class="i"><path class="h" d="M430.64,46.76a1,1,0,1,0,1.42-1.43l-6.19-6.19a1,1,0,0,0-1.42,0l-6.19,6.19a1,1,0,0,0,1.43,1.43l5.47-5.48ZM425.17,35l-5.47,5.48a1,1,0,1,1-1.43-1.43l6.19-6.19a1,1,0,0,1,1.42,0l6.19,6.19a1,1,0,1,1-1.42,1.43Z" transform="translate(-0.01 -0.09)"/></g><path class="f" d="M352.4,167.24a1,1,0,1,0-1.42,1.43l6.19,6.19a1,1,0,0,0,1.42,0l6.19-6.19a1,1,0,1,0-1.43-1.43l-5.47,5.48ZM357.88,179l5.47-5.48a1,1,0,1,1,1.43,1.43l-6.19,6.19a1,1,0,0,1-1.42,0L351,174.94a1,1,0,1,1,1.42-1.43Z" transform="translate(-0.01 -0.09)"/><path class="f" d="M218.16,213.38a1,1,0,1,0-1.42,1.43l6.19,6.19a1,1,0,0,0,1.42,0l6.19-6.19a1,1,0,0,0-1.43-1.43l-5.47,5.48Zm5.47,11.76,5.47-5.48a1,1,0,0,1,1.43,1.43l-6.19,6.19a1,1,0,0,1-1.42,0l-6.19-6.19a1,1,0,1,1,1.42-1.43Z" transform="translate(-0.01 -0.09)"/><path class="j" d="M117.5,196.5l-114,81" transform="translate(-0.01 -0.09)"/><path class="j" d="M533.5,15.5l-55,41" transform="translate(-0.01 -0.09)"/><g class="k"><path class="b" d="M551.29,4.44a2.56,2.56,0,0,0-2.18-2.89h0L539,0.12a2.56,2.56,0,0,0-2.89,2.18h0a2.56,2.56,0,0,0,2.18,2.89l4,0.57-8.53,6.42a2.56,2.56,0,1,0,3.08,4.09l8.53-6.42-0.56,4A2.56,2.56,0,0,0,547,16.75h0a2.56,2.56,0,0,0,2.89-2.18Z" transform="translate(-0.01 -0.09)"/></g></svg>