<svg xmlns="http://www.w3.org/2000/svg" viewBox="0 0 226.73 41.12"><defs><style>.a{fill:#fff;}.b{fill:#009fdb;}</style></defs><title>logo-gentlb</title><path class="a" d="M102.1,71a1.39,1.39,0,0,0,1,.5h10.4a0.55,0.55,0,0,1,.6.4,1.64,1.64,0,0,1,.2,1,1.69,1.69,0,0,1-.3,1,0.72,0.72,0,0,1-.6.4H100.7a2.54,2.54,0,0,1-1.6-.5,3.13,3.13,0,0,1-.9-1.1,6.61,6.61,0,0,1-.5-1.5,7.57,7.57,0,0,1-.1-1.5,8.64,8.64,0,0,1,.1-1.5,4.42,4.42,0,0,1,.5-1.5,2.44,2.44,0,0,1,.9-1.1,2.54,2.54,0,0,1,1.6-.5h15.5a1.39,1.39,0,0,0,1-.5,1.84,1.84,0,0,0,.4-1.3,2,2,0,0,0-.4-1.3,1.11,1.11,0,0,0-1-.5h-17a2.5,2.5,0,0,0-1.8.8,8.9,8.9,0,0,0-2,1.9,11.66,11.66,0,0,0-1,2.6,14.28,14.28,0,0,0-.3,2.9,15,15,0,0,0,.3,2.9,6.73,6.73,0,0,0,1,2.6,5.75,5.75,0,0,0,1.5,1.9,3.18,3.18,0,0,0,2,.8h15.3a2,2,0,0,0,1.3-.4,3.46,3.46,0,0,0,1.1-1,5.23,5.23,0,0,0,.7-1.5,5.54,5.54,0,0,0,.2-1.8V72.4a11,11,0,0,0-.2-1.8,6.89,6.89,0,0,0-.7-1.5,5.24,5.24,0,0,0-1.1-1,2.84,2.84,0,0,0-1.3-.4H103.1a1.39,1.39,0,0,0-1,.5,1.84,1.84,0,0,0-.4,1.3A2.7,2.7,0,0,0,102.1,71Z" transform="translate(-50 -44.8)"/><path class="a" d="M121.1,64.8a1.11,1.11,0,0,0,1,.5h19.8a1.39,1.39,0,0,0,1-.5,3,3,0,0,0,0-3,1.39,1.39,0,0,0-1-.5H122a1.39,1.39,0,0,0-1,.5,2.6,2.6,0,0,0-.4,1.5A3.33,3.33,0,0,0,121.1,64.8Zm20.7,13.1a1.39,1.39,0,0,0,1-.5,2.31,2.31,0,0,0,0-2.6,1.39,1.39,0,0,0-1-.5H124.2a0.6,0.6,0,0,1-.6-0.3,0.84,0.84,0,0,1-.2-0.7V71.5h17.9a1.05,1.05,0,0,0,.9-0.5,1.84,1.84,0,0,0,.4-1.3,2,2,0,0,0-.4-1.3,1.38,1.38,0,0,0-.9-0.5H122.5a2.65,2.65,0,0,0-1.4.3,1.68,1.68,0,0,0-.4,1.4V73a6,6,0,0,0,.3,2,5.3,5.3,0,0,0,.8,1.5,3.46,3.46,0,0,0,1.1,1,2.84,2.84,0,0,0,1.2.4h17.7Z" transform="translate(-50 -44.8)"/><path class="a" d="M165.5,63.2v7.4a14.42,14.42,0,0,1,0,2.1c-0.1.5-.1,0.7-0.4,0.7a3.93,3.93,0,0,1-.6-0.2,9.68,9.68,0,0,0-.9-0.7L150.8,62a1.61,1.61,0,0,0-.7-0.4,2.2,2.2,0,0,0-.8-0.1,2.06,2.06,0,0,0-1.9,1.1,4.46,4.46,0,0,0-.8,2.6V76.1a2,2,0,0,0,.4,1.3,1.38,1.38,0,0,0,.9.5,2.46,2.46,0,0,0,1.5-.5,2,2,0,0,0,.4-1.3V68.7a12.17,12.17,0,0,1,.1-2.1c0.1-.5.2-0.3,0.4-0.3a3.29,3.29,0,0,1,.6.3,9.68,9.68,0,0,0,.9.7l12.3,10a1.61,1.61,0,0,0,.7.4,1.88,1.88,0,0,0,.8.2,2.79,2.79,0,0,0,2.2-1.1,4.46,4.46,0,0,0,.8-2.6v-11a2,2,0,0,0-.4-1.3,1.66,1.66,0,0,0-1.3-.5,1.85,1.85,0,0,0-1.2.5c0,0.3-.2.8-0.2,1.3h0Z" transform="translate(-50 -44.8)"/><path class="a" d="M192.4,61.5H173.2a1.39,1.39,0,0,0-1,.5,2,2,0,0,0-.4,1.3,1.59,1.59,0,0,0,.4,1.2,1.46,1.46,0,0,0,.9.6h7.8v11a2,2,0,0,0,.4,1.3,2.1,2.1,0,0,0,1.5.5,2.77,2.77,0,0,0,1.6-.5,2,2,0,0,0,.4-1.3v-11h7.6a1.39,1.39,0,0,0,1-.5,1.84,1.84,0,0,0,.4-1.3,2,2,0,0,0-.4-1.3,1.39,1.39,0,0,0-1-.5h0Z" transform="translate(-50 -44.8)"/><path class="a" d="M201.3,77.9H218a1.39,1.39,0,0,0,1-.5,2.31,2.31,0,0,0,0-2.6,1.39,1.39,0,0,0-1-.5H201.7a0.75,0.75,0,0,1-.7-0.4,1.69,1.69,0,0,1-.3-1V63a2,2,0,0,0-.4-1.3,1.66,1.66,0,0,0-1.3-.5,1.61,1.61,0,0,0-1.1.5,2,2,0,0,0-.4,1.3v9.9a6.45,6.45,0,0,0,.3,2,8,8,0,0,0,.8,1.6,3.18,3.18,0,0,0,1.2,1.1,4,4,0,0,0,1.5.3h0Z" transform="translate(-50 -44.8)"/><path class="a" d="M231.9,65.8c0.1-.2.3-0.4,0.5-0.7a1.06,1.06,0,0,1,.6-0.4,0.72,0.72,0,0,1,.6.4,3,3,0,0,1,.5.7L240.3,77a1.17,1.17,0,0,0,1.1.7,2.69,2.69,0,0,0,1.5-.5,2,2,0,0,0,.4-1.3,1.48,1.48,0,0,0-.1-0.7l-0.3-.6-7-12.5a3,3,0,0,0-1.3-1.4,3.68,3.68,0,0,0-1.6-.5,2.72,2.72,0,0,0-1.7.6,5.71,5.71,0,0,0-1.3,1.4l-7,12.6a2,2,0,0,0-.3,1.1,1.84,1.84,0,0,0,.4,1.3,2.62,2.62,0,0,0,1.7.5,1.27,1.27,0,0,0,1.1-.7Z" transform="translate(-50 -44.8)"/><path class="a" d="M250.2,74.3a0.6,0.6,0,0,1-.6-0.3,0.84,0.84,0,0,1-.2-0.7V71.5h14.9a0.75,0.75,0,0,1,.7.4,1.82,1.82,0,0,1,0,2,0.87,0.87,0,0,1-.7.4H250.2Zm-3.6-9.7a1.11,1.11,0,0,0,1,.5h16.7a0.75,0.75,0,0,1,.7.4,1.82,1.82,0,0,1,0,2,0.75,0.75,0,0,1-.7.4H248a2.65,2.65,0,0,0-1.4.3,1.68,1.68,0,0,0-.4,1.4V73a6,6,0,0,0,.3,2,5.3,5.3,0,0,0,.8,1.5,3.46,3.46,0,0,0,1.1,1,2.84,2.84,0,0,0,1.2.4h15.1a2.82,2.82,0,0,0,1.5-.4,3.18,3.18,0,0,0,1.2-1.1,8,8,0,0,0,.8-1.6,6.45,6.45,0,0,0,.3-2,8.81,8.81,0,0,0-.2-1.7c-0.2-.5-0.4-1-0.6-1.4a3.51,3.51,0,0,0,.6-1.4,4.68,4.68,0,0,0,.2-1.7,6.45,6.45,0,0,0-.3-2,8,8,0,0,0-.8-1.6,3.18,3.18,0,0,0-1.2-1.1,2.6,2.6,0,0,0-1.5-.4H247.6a1.39,1.39,0,0,0-1,.5,2,2,0,0,0-.4,1.3A4,4,0,0,0,246.6,64.6Z" transform="translate(-50 -44.8)"/><path class="a" d="M69.9,70c-2.7.1-7.2-2.8-8.3-2.8s-1.4,4.6,1.3,6.9,8.7,1.2,9.3-2.1S72.6,69.9,69.9,70Z" transform="translate(-50 -44.8)"/><path class="a" d="M70.5,46.8a1,1,0,1,1-1,1A1.08,1.08,0,0,1,70.5,46.8Z" transform="translate(-50 -44.8)"/><path class="a" d="M66.8,44.8a0.9,0.9,0,1,1-.9.9A0.9,0.9,0,0,1,66.8,44.8Z" transform="translate(-50 -44.8)"/><path class="a" d="M67,48.2a1.7,1.7,0,1,1-1.7,1.7A1.69,1.69,0,0,1,67,48.2Z" transform="translate(-50 -44.8)"/><path class="b" d="M83.8,69.4c0,3.3.4,3.2-2.2,3.2a2.92,2.92,0,0,0-3.1,2c-0.5,1.3.5,2.2,1.1,2.9,1.4,1.6,1.3,1.4-.9,3.8s-2.1,2.1-3.9.4a2.88,2.88,0,0,0-4.9,2c0,2.6,0,2.2-3.3,2.2s-3.1.3-3-2c0-1.2-.1-2.3-1.2-2.9s-3-.8-3.7.2C57.2,83.4,57,83.1,55,81s-2.4-1.8-.7-3.5a3.57,3.57,0,0,0,.6-3.8,3.19,3.19,0,0,0-2.7-1.4c-2.1-.1-2.2.7-2.2-2.8s-0.1-3.3,2.1-3.4A3.22,3.22,0,0,0,55,64.3a3,3,0,0,0-.6-3.1c-1.7-1.7-1.3-2.1.7-4.1s2.1-2,3.6-.6a3.33,3.33,0,0,0,3.2.9A2.51,2.51,0,0,0,63.4,55c0-2.6-1.5-1.3-1.5-1.9s0-.9,1.1-0.9h1.5v9.7a7.71,7.71,0,1,0,9.9,7.4A7.87,7.87,0,0,0,69,61.9V52.2h1.6c1.2,0,1.2.4,1.2,0.8s-1.6-.5-1.6,1.8a2.73,2.73,0,0,0,1.6,2.6,3.21,3.21,0,0,0,3.1-1.1c2.1-2,1.7-1.4,4,.9s2.2,2,.1,4.1a2.61,2.61,0,0,0-.1,3.5A3.63,3.63,0,0,0,81.7,66C84.1,66.2,83.9,66.1,83.8,69.4Z" transform="translate(-50 -44.8)"/><path class="a" d="M272,59.6h0.5a1.45,1.45,0,0,1,.7.2,0.92,0.92,0,0,1,.4.6l0.3,1h1l-0.5-1.2a1.06,1.06,0,0,0-.6-0.7,1.11,1.11,0,0,0,.9-1.2c0-.8-0.6-1.3-1.8-1.3h-1.7v4.4H272V59.6h0Zm0-1.9h0.8q0.9,0,.9.6t-0.9.6H272V57.7h0Z" transform="translate(-50 -44.8)"/><path class="a" d="M272.85,63a3.88,3.88,0,1,1,3.88-3.88A3.89,3.89,0,0,1,272.85,63Zm0-7.27a3.38,3.38,0,1,0,3.38,3.38A3.39,3.39,0,0,0,272.85,55.76Z" transform="translate(-50 -44.8)"/></svg>