<svg xmlns="http://www.w3.org/2000/svg" xmlns:xlink="http://www.w3.org/1999/xlink" viewBox="0 0 71.29 23.58"><defs><style>.a{fill:#231f20;}.b{fill:url(#a);}.c{fill:#ffc926;}</style><linearGradient id="a" x1="-5851.28" y1="1295.98" x2="-5851.38" y2="1295.7" gradientTransform="translate(35291.99 -7044.08) scale(6.03 5.45)" gradientUnits="userSpaceOnUse"><stop offset="0" stop-color="#ffc926"/><stop offset="1" stop-color="#ce9c2d"/></linearGradient></defs><title>logo-knolyx</title><path class="a" d="M1.3,3.78V13.86a0.66,0.66,0,0,1-.65.65A0.66,0.66,0,0,1,0,13.87H0V3.8A0.66,0.66,0,0,1,.62,3.13h0A0.66,0.66,0,0,1,1.3,3.78ZM13,14.51a0.66,0.66,0,0,1-.65-0.65V7.23c0-2.21,1.57-4.1,4.5-4.1s4.53,1.92,4.53,4V13.8a0.65,0.65,0,0,1-1.3,0V7.26a2.88,2.88,0,0,0-2.91-2.85l-0.29,0a2.89,2.89,0,0,0-3.23,2.86v6.55a0.66,0.66,0,0,1-.64.68h0Zm17.49,0a5.69,5.69,0,1,1,5.71-5.69,5.69,5.69,0,0,1-5.71,5.69h0Zm0-10.06a4.36,4.36,0,1,0,4.38,4.36,4.36,4.36,0,0,0-4.38-4.36h0ZM40.21,0a0.66,0.66,0,0,1,.65.65V13.86a0.65,0.65,0,0,1-1.3,0V0.68A0.66,0.66,0,0,1,40.2,0h0ZM54,4.22l-4.11,5v4.6a0.65,0.65,0,0,1-1.3,0V9.23l-4.11-5a0.65,0.65,0,0,1,1-.83L49.23,8,53,3.39a0.66,0.66,0,0,1,.92-0.09,0.65,0.65,0,0,1,.09.91h0Zm13,0-3.8,4.72L67,13.42a0.65,0.65,0,0,1-1,.83L62.34,9.91l-3.58,4.34a0.65,0.65,0,0,1-1-.83l3.76-4.51L57.76,4.19a0.65,0.65,0,0,1,1-.83l3.61,4.51L66,3.36a0.66,0.66,0,0,1,.92-0.09,0.68,0.68,0,0,1,0,.91H67Z" transform="translate(0.03 0)"/><path class="b" d="M4,9l-0.56.5a0.94,0.94,0,0,1-.59.24L7.81,14.3a0.65,0.65,0,0,0,1-.86L8.7,13.36,4,9H4Z" transform="translate(0.03 0)"/><path class="c" d="M8.73,4.31l-5.41,5a0.65,0.65,0,0,1-.92,0h0C2.16,9.05,2,8.82,2,8.82L7.84,3.36a0.63,0.63,0,0,1,.89,0l0,0a0.65,0.65,0,0,1,0,.92Z" transform="translate(0.03 0)"/><path class="a" d="M48.29,19.52A1.39,1.39,0,0,0,47,20a0.3,0.3,0,0,0,.24.32,2.69,2.69,0,0,1,1-.27c0.83,0,1.12.15,1.12,0.77V21H48.91c-1.33,0-2.22.27-2.22,1.3a1.16,1.16,0,0,0,1.1,1.21H48a1.94,1.94,0,0,0,1.45-.74v0.41a0.25,0.25,0,0,0,.25.25h0a0.27,0.27,0,0,0,.3-0.24h0V20.79c0-.91-0.47-1.27-1.75-1.27h0ZM49.41,22a1.35,1.35,0,0,1-1.24,1,0.74,0.74,0,0,1-.83-0.8c0-.74.8-0.83,1.69-0.83h0.41V22h0Z" transform="translate(0.03 0)"/><path class="a" d="M53.64,20.08a0.27,0.27,0,0,0,.24-0.29,0.29,0.29,0,0,0-.24-0.29H53.32a1.11,1.11,0,0,0-1.07.68V19.76a0.27,0.27,0,0,0-.3-0.24h0a0.25,0.25,0,0,0-.3.24V23.3a0.27,0.27,0,0,0,.3.24h0a0.3,0.3,0,0,0,.33-0.24V21.44a1.11,1.11,0,0,1,.86-1.31l0.14,0h0.33Z" transform="translate(0.03 0)"/><path class="a" d="M55.89,21.29A1.14,1.14,0,0,1,57,20.08h0a1.23,1.23,0,0,1,1.18,1.21v2a0.27,0.27,0,0,0,.3.24h0a0.3,0.3,0,0,0,.33-0.24v-2a1.74,1.74,0,0,0-1.69-1.77,1.43,1.43,0,0,0-1.27.71V19.79a0.3,0.3,0,0,0-.59,0V23.3a0.27,0.27,0,0,0,.3.24h0a0.3,0.3,0,0,0,.33-0.24v-2h0Z" transform="translate(0.03 0)"/><path class="a" d="M15.42,23.53a1.82,1.82,0,0,0,1.8-1.77v-2a0.27,0.27,0,0,0-.3-0.24h0a0.3,0.3,0,0,0-.33.24v2a1.18,1.18,0,0,1-2.37,0v-2a0.29,0.29,0,0,0-.3-0.24,0.3,0.3,0,0,0-.33.24v2a1.8,1.8,0,0,0,1.8,1.77h0Z" transform="translate(0.03 0)"/><path class="a" d="M19.14,18.17a0.4,0.4,0,0,0-.41.38,0.42,0.42,0,0,0,.41.41,0.4,0.4,0,0,0,.41-0.39s0,0,0,0a0.4,0.4,0,0,0-.41-0.38h0Z" transform="translate(0.03 0)"/><path class="a" d="M19.18,19.52a0.27,0.27,0,0,0-.32.2V23.3a0.29,0.29,0,0,0,.33.24,0.33,0.33,0,0,0,.36-0.24V19.76a0.33,0.33,0,0,0-.36-0.24h0Zm0-1.15a0.3,0.3,0,0,0-.11.59h0.11a0.31,0.31,0,0,0,.33-0.29h0a0.28,0.28,0,0,0-.27-0.29H19.18Z" transform="translate(0.03 0)"/><path class="a" d="M21.55,17.9a0.28,0.28,0,0,0-.34.21V23.3a0.3,0.3,0,0,0,.34.24A0.34,0.34,0,0,0,22,23.3h0V18.14a0.34,0.34,0,0,0-.37-0.24h0Z" transform="translate(0.03 0)"/><path class="a" d="M40.16,17.9a0.28,0.28,0,0,0-.34.21V23.3a0.3,0.3,0,0,0,.34.24,0.34,0.34,0,0,0,.37-0.24V18.14a0.32,0.32,0,0,0-.37-0.24h0Z" transform="translate(0.03 0)"/><path class="a" d="M24.17,20.08h1.21a0.24,0.24,0,0,0,.21-0.27h0a0.26,0.26,0,0,0-.21-0.27H24.17V18.08a0.3,0.3,0,0,0-.33-0.24,0.27,0.27,0,0,0-.3.24h0v4a1.27,1.27,0,0,0,1.51,1.39h0.27a0.3,0.3,0,0,0,.3-0.29,0.27,0.27,0,0,0-.27-0.27H25.06a0.71,0.71,0,0,1-.89-0.83v-2h0Z" transform="translate(0.03 0)"/><path class="a" d="M29.82,20.08H31a0.24,0.24,0,0,0,.21-0.27h0A0.26,0.26,0,0,0,31,19.54H29.82V18.08a0.3,0.3,0,0,0-.33-0.24,0.27,0.27,0,0,0-.3.24h0v4a1.27,1.27,0,0,0,1.51,1.39H31a0.3,0.3,0,0,0,.3-0.29A0.27,0.27,0,0,0,31,22.91H30.71a0.71,0.71,0,0,1-.89-0.83v-2h0Z" transform="translate(0.03 0)"/><path class="a" d="M34.2,19.52a2,2,0,1,0,2,2,2,2,0,0,0-2-2h0Zm0,3.39a1.39,1.39,0,1,1,1.33-1.45s0,0,0,.06a1.34,1.34,0,0,1-1.29,1.39h0Z" transform="translate(0.03 0)"/><path class="a" d="M10.21,19.52a1.83,1.83,0,0,0-1.33.56V18.14a0.28,0.28,0,0,0-.31-0.24h0a0.25,0.25,0,0,0-.3.24V23.3a0.27,0.27,0,0,0,.3.24h0a0.3,0.3,0,0,0,.33-0.24V23a1.89,1.89,0,0,0,1.33.56,2,2,0,0,0,0-4h0v0Zm0,3.39a1.39,1.39,0,1,1,1.33-1.45s0,0,0,.06a1.36,1.36,0,0,1-1.33,1.39h0Z" transform="translate(0.03 0)"/><path class="a" d="M45.6,21.26a0.67,0.67,0,0,1-.83.77H42.61a1.27,1.27,0,0,0,1.45,1,2.87,2.87,0,0,0,1.15-.38,0.31,0.31,0,0,1,.27.29,1.37,1.37,0,0,1-1.42.62,1.84,1.84,0,0,1-2-1.67s0-.08,0-0.13V21.29a1.8,1.8,0,0,1,1.8-1.74,1.71,1.71,0,0,1,1.78,1.64s0,0,0,.07h0Zm-1.07.29c0.38,0,.47-0.06.47-0.32a1.17,1.17,0,0,0-1.16-1.18h0a1.18,1.18,0,0,0-1.18,1.15v0.35h1.89Z" transform="translate(0.03 0)"/><path class="a" d="M68.91,2.36a1.17,1.17,0,0,0,.44.29,1.73,1.73,0,0,0,.53.12,1.49,1.49,0,0,0,.36-0.06,1.1,1.1,0,0,0,.33-0.15,1,1,0,0,0,.27-0.21,1.06,1.06,0,0,0,.21-0.29,1.09,1.09,0,0,0,.15-0.32,1.48,1.48,0,0,0,.06-0.35A1.48,1.48,0,0,0,71.19,1,1.09,1.09,0,0,0,71,.71l-0.21-.29A1.63,1.63,0,0,0,70.57.21,1.1,1.1,0,0,0,70.24.06,1.49,1.49,0,0,0,69.89,0a1.16,1.16,0,0,0-.53.12,1.17,1.17,0,0,0-.44.29,1.17,1.17,0,0,0-.3.44,1.15,1.15,0,0,0-.12.53,1.08,1.08,0,0,0,.12.53,1.17,1.17,0,0,0,.3.44h0Zm0-1.39A1.48,1.48,0,0,1,69.12.62,1.06,1.06,0,0,1,69.47.38,1.08,1.08,0,0,1,69.92.3a1,1,0,0,1,.41.09,1.49,1.49,0,0,1,.36.24A1.06,1.06,0,0,1,71,1a1,1,0,0,1,.09.41,1.18,1.18,0,0,1-.09.44,1.09,1.09,0,0,1-.59.59,1,1,0,0,1-.41.09,1.19,1.19,0,0,1-.44-0.09,1.09,1.09,0,0,1-.59-0.59,1.07,1.07,0,0,1-.09-0.44,0.94,0.94,0,0,1,0-.41h0Z" transform="translate(0.03 0)"/><path class="a" d="M69.56,1.56h0.15a0.56,0.56,0,0,1,.24.06,0.53,0.53,0,0,1,.15.21l0.12,0.35h0.33l-0.18-.41a0.42,0.42,0,0,0-.21-0.24,0.4,0.4,0,0,0,.3-0.44q0-.44-0.62-0.44h-0.6v1.5h0.3V1.56h0Zm0-.65h0.27c0.21,0,.33.06,0.33,0.21a0.27,0.27,0,0,1-.32.21H69.56V0.91h0Z" transform="translate(0.03 0)"/></svg>