<svg xmlns="http://www.w3.org/2000/svg" xmlns:xlink="http://www.w3.org/1999/xlink" viewBox="0 0 71.25 23.56"><defs><style>.a{fill:#fff;}.b{fill:url(#a);}.c{fill:#ffc926;}.d{fill:#231f20;}</style><linearGradient id="a" x1="-2925.22" y1="2907.75" x2="-2925.32" y2="2908.03" gradientTransform="matrix(6.03, 0, 0, -5.45, 17651.81, 15864.99)" gradientUnits="userSpaceOnUse"><stop offset="0" stop-color="#ffc926"/><stop offset="1" stop-color="#ce9c2d"/></linearGradient></defs><title>logo-knolyx</title><path class="a" d="M1.33,3.78V13.86a0.66,0.66,0,0,1-.65.65A0.66,0.66,0,0,1,0,13.86V3.8A0.66,0.66,0,0,1,.68,3.13,0.66,0.66,0,0,1,1.33,3.78ZM13,14.51a0.66,0.66,0,0,1-.65-0.65V7.23c0-2.21,1.57-4.1,4.5-4.1s4.53,1.92,4.53,4v6.67a0.65,0.65,0,0,1-1.3,0V7.26a2.88,2.88,0,0,0-3.2-2.83,2.89,2.89,0,0,0-3.23,2.86c0,2.74,0,6.55,0,6.55a0.66,0.66,0,0,1-.65.68h0Zm17.49,0a5.69,5.69,0,1,1,5.71-5.69,5.7,5.7,0,0,1-5.71,5.69h0Zm0-10.06a4.36,4.36,0,1,0,4.38,4.36,4.36,4.36,0,0,0-4.38-4.36h0ZM40.24,0a0.66,0.66,0,0,1,.65.65V13.86a0.65,0.65,0,0,1-1.3,0V0.68A0.66,0.66,0,0,1,40.24,0h0ZM54,4.22l-4.11,5v4.6a0.65,0.65,0,0,1-1.3,0V9.23l-4.11-5a0.65,0.65,0,0,1,1-.83L49.26,8,53,3.39a0.66,0.66,0,0,1,.92-0.09,0.65,0.65,0,0,1,.09.91h0ZM67,4.19L63.2,8.91,67,13.42a0.65,0.65,0,0,1-1,.83L62.37,9.91l-3.58,4.34a0.65,0.65,0,0,1-1-.83l3.76-4.51L57.79,4.19a0.65,0.65,0,0,1,1-.83L62.4,7.87,66,3.36a0.66,0.66,0,0,1,.92-0.09,0.68,0.68,0,0,1,0,.91h0Z" transform="translate(-0.03 0)"/><path class="b" d="M4.05,9l-0.56.5a0.94,0.94,0,0,1-.59.24L7.84,14.3a0.65,0.65,0,1,0,.89-0.94L4.05,9h0Z" transform="translate(-0.03 0)"/><path class="c" d="M8.76,4.31l-5.41,5a0.65,0.65,0,0,1-.92,0C2.19,9.05,2,8.82,2,8.82L7.87,3.36a0.63,0.63,0,0,1,.92,0A0.65,0.65,0,0,1,8.76,4.31Z" transform="translate(-0.03 0)"/><path class="a" d="M48.32,19.52A1.39,1.39,0,0,0,47,20a0.3,0.3,0,0,0,.24.32,2.69,2.69,0,0,1,1-.27c0.83,0,1.12.15,1.12,0.77V21H48.94c-1.33,0-2.22.27-2.22,1.3A1.16,1.16,0,0,0,48,23.51a1.94,1.94,0,0,0,1.45-.74v0.41a0.25,0.25,0,0,0,.3.24,0.27,0.27,0,0,0,.3-0.24V20.79c0-.91-0.47-1.27-1.75-1.27h0ZM49.44,22a1.35,1.35,0,0,1-1.24,1,0.74,0.74,0,0,1-.83-0.8c0-.74.8-0.83,1.69-0.83h0.41l0,0.62h0Z" transform="translate(-0.03 0)"/><path class="a" d="M53.67,20.08a0.27,0.27,0,0,0,.24-0.29,0.29,0.29,0,0,0-.24-0.29H53.35a1.11,1.11,0,0,0-1.07.68V19.76a0.27,0.27,0,0,0-.3-0.24,0.25,0.25,0,0,0-.3.24V23.3a0.27,0.27,0,0,0,.3.24,0.3,0.3,0,0,0,.33-0.24V21.44a1.11,1.11,0,0,1,1-1.33h0.33v0Z" transform="translate(-0.03 0)"/><path class="a" d="M55.92,21.29A1.14,1.14,0,0,1,57,20.08a1.23,1.23,0,0,1,1.18,1.21v2a0.27,0.27,0,0,0,.3.24,0.3,0.3,0,0,0,.33-0.24v-2a1.74,1.74,0,0,0-1.69-1.77,1.43,1.43,0,0,0-1.27.71V19.79a0.3,0.3,0,0,0-.59,0V23.3a0.27,0.27,0,0,0,.3.24,0.3,0.3,0,0,0,.33-0.24v-2h0Z" transform="translate(-0.03 0)"/><path class="a" d="M15.45,23.53a1.82,1.82,0,0,0,1.8-1.77v-2a0.27,0.27,0,0,0-.3-0.24,0.3,0.3,0,0,0-.33.24v2a1.18,1.18,0,1,1-2.37,0v-2a0.29,0.29,0,0,0-.3-0.24,0.3,0.3,0,0,0-.33.24v2a1.8,1.8,0,0,0,1.8,1.77h0Z" transform="translate(-0.03 0)"/><path class="d" d="M19.17,18.17a0.4,0.4,0,0,0-.41.38,0.42,0.42,0,0,0,.41.41,0.4,0.4,0,0,0,.41-0.41,0.4,0.4,0,0,0-.41-0.38h0Z" transform="translate(-0.03 0)"/><path class="a" d="M19.21,19.52a0.27,0.27,0,0,0-.33.24V23.3a0.29,0.29,0,0,0,.33.24,0.33,0.33,0,0,0,.36-0.24V19.76a0.33,0.33,0,0,0-.36-0.24h0Zm0-1.15a0.3,0.3,0,1,0,0,.59,0.31,0.31,0,0,0,.33-0.29,0.28,0.28,0,0,0-.33-0.29h0Z" transform="translate(-0.03 0)"/><path class="a" d="M21.58,17.9a0.28,0.28,0,0,0-.34.24V23.3a0.3,0.3,0,0,0,.34.24A0.34,0.34,0,0,0,22,23.3V18.14a0.34,0.34,0,0,0-.37-0.24h0Z" transform="translate(-0.03 0)"/><path class="a" d="M40.19,17.9a0.28,0.28,0,0,0-.34.24V23.3a0.3,0.3,0,0,0,.34.24,0.34,0.34,0,0,0,.37-0.24V18.14a0.32,0.32,0,0,0-.37-0.24h0Z" transform="translate(-0.03 0)"/><path class="a" d="M24.2,20.08h1.21a0.24,0.24,0,0,0,.21-0.27,0.26,0.26,0,0,0-.21-0.27H24.2V18.08a0.3,0.3,0,0,0-.33-0.24,0.27,0.27,0,0,0-.3.24v4a1.27,1.27,0,0,0,1.51,1.39h0.27a0.3,0.3,0,0,0,.3-0.29,0.27,0.27,0,0,0-.3-0.27H25.09a0.71,0.71,0,0,1-.89-0.83v-2h0Z" transform="translate(-0.03 0)"/><path class="a" d="M29.85,20.08h1.21a0.24,0.24,0,0,0,.21-0.27,0.26,0.26,0,0,0-.21-0.27H29.85V18.08a0.3,0.3,0,0,0-.33-0.24,0.27,0.27,0,0,0-.3.24v4a1.27,1.27,0,0,0,1.51,1.39H31a0.3,0.3,0,0,0,.3-0.29,0.27,0.27,0,0,0-.3-0.27H30.74a0.71,0.71,0,0,1-.89-0.83v-2h0Z" transform="translate(-0.03 0)"/><path class="a" d="M34.23,19.52a2,2,0,1,0,2,2,2,2,0,0,0-2-2h0Zm0,3.39a1.39,1.39,0,1,1,1.33-1.39,1.34,1.34,0,0,1-1.33,1.39h0Z" transform="translate(-0.03 0)"/><path class="a" d="M10.24,19.52a1.83,1.83,0,0,0-1.33.56V18.14a0.28,0.28,0,0,0-.33-0.24,0.25,0.25,0,0,0-.3.24V23.3a0.27,0.27,0,0,0,.3.24,0.3,0.3,0,0,0,.33-0.24V23a1.89,1.89,0,0,0,1.33.56,2,2,0,0,0,0-4h0Zm0,3.39a1.39,1.39,0,1,1,1.33-1.39,1.36,1.36,0,0,1-1.33,1.39h0Z" transform="translate(-0.03 0)"/><path class="a" d="M45.63,21.26a0.67,0.67,0,0,1-.83.77H42.64a1.27,1.27,0,0,0,1.45,1,2.87,2.87,0,0,0,1.15-.38,0.31,0.31,0,0,1,.27.29,1.37,1.37,0,0,1-1.42.62,1.84,1.84,0,0,1-2-1.8V21.29a1.8,1.8,0,0,1,1.8-1.74,1.71,1.71,0,0,1,1.78,1.71h0Zm-1.07.29c0.38,0,.47-0.06.47-0.32a1.17,1.17,0,0,0-1.18-1.18,1.18,1.18,0,0,0-1.18,1.15v0.35h1.89Z" transform="translate(-0.03 0)"/><path class="a" d="M68.94,2.36a1.17,1.17,0,0,0,.44.29,1.73,1.73,0,0,0,.53.12,1.49,1.49,0,0,0,.36-0.06,1.1,1.1,0,0,0,.33-0.15,1,1,0,0,0,.27-0.21,1.06,1.06,0,0,0,.21-0.29,1.09,1.09,0,0,0,.15-0.32,1.48,1.48,0,0,0,.06-0.35A1.48,1.48,0,0,0,71.22,1,1.09,1.09,0,0,0,71.07.71l-0.21-.29A1.63,1.63,0,0,0,70.6.21,1.1,1.1,0,0,0,70.27.06,1.49,1.49,0,0,0,69.92,0a1.16,1.16,0,0,0-.53.12,1.17,1.17,0,0,0-.44.29,1.17,1.17,0,0,0-.3.44,1.15,1.15,0,0,0-.12.53,1.08,1.08,0,0,0,.12.53,1.17,1.17,0,0,0,.3.44h0Zm0-1.39A1.48,1.48,0,0,1,69.15.62,1.06,1.06,0,0,1,69.5.38,1.08,1.08,0,0,1,69.95.3a1,1,0,0,1,.41.09,1.49,1.49,0,0,1,.36.24A1.06,1.06,0,0,1,71,1a1,1,0,0,1,.09.41,1.18,1.18,0,0,1-.09.44,1.09,1.09,0,0,1-.59.59,1,1,0,0,1-.41.09,1.19,1.19,0,0,1-.44-0.09,1.09,1.09,0,0,1-.59-0.59,1.07,1.07,0,0,1-.09-0.44A0.94,0.94,0,0,1,68.91,1h0Z" transform="translate(-0.03 0)"/><path class="a" d="M69.59,1.56h0.15a0.56,0.56,0,0,1,.24.06,0.53,0.53,0,0,1,.15.21l0.12,0.35h0.33l-0.18-.41a0.42,0.42,0,0,0-.21-0.24,0.4,0.4,0,0,0,.3-0.44q0-.44-0.62-0.44H69.27v1.5h0.3l0-.59h0Zm0-.65h0.27c0.21,0,.33.06,0.33,0.21a0.27,0.27,0,0,1-.33.21H69.59V0.91h0Z" transform="translate(-0.03 0)"/></svg>