<?xml version="1.0" encoding="UTF-8" standalone="no"?>
<svg width="251px" height="120px" viewBox="0 0 251 120" version="1.1" xmlns="http://www.w3.org/2000/svg" xmlns:xlink="http://www.w3.org/1999/xlink">
    <!-- Generator: Sketch 40.1 (33804) - http://www.bohemiancoding.com/sketch -->
    <title>Group 14</title>
    <desc>Created with Sketch.</desc>
    <defs>
        <polygon id="path-1" points="8.157 8.1727 8.157 0.765 0.7495 0.765 0.7495 8.1727 8.157 8.1727"></polygon>
        <polygon id="path-3" points="0.0001 14 13.8271 14 13.8271 0.1724 0.0001 0.1724 0.0001 14"></polygon>
        <polygon id="path-5" points="6.42857144e-05 9 8.88885 9 8.88885 0.110828571 6.42857144e-05 0.110828571 6.42857144e-05 9"></polygon>
        <polygon id="path-7" points="8.157 8.1727 8.157 0.765 0.7495 0.765 0.7495 8.1727 8.157 8.1727"></polygon>
        <polygon id="path-9" points="8.57142859e-05 12 11.8518 12 11.8518 0.147771429 8.57142859e-05 0.147771429 8.57142859e-05 12"></polygon>
        <polygon id="path-11" points="6.97876667 6.99219889 6.97876667 0.6545 0.641238889 0.6545 0.641238889 6.99219889 6.97876667 6.99219889"></polygon>
    </defs>
    <g id="Polls" stroke="none" stroke-width="1" fill="none" fill-rule="evenodd" opacity="0.417910448">
        <g id="iPhone-6-Copy-4" transform="translate(-56.000000, -155.000000)">
            <g id="Group-14" transform="translate(56.000000, 154.000000)">
                <g id="Page-1" transform="translate(211.000000, 0.000000)">
                    <g id="Group-3" transform="translate(15.000000, 0.235400)">
                        <mask id="mask-2" fill="white">
                            <use xlink:href="#path-1"></use>
                        </mask>
                        <g id="Clip-2"></g>
                        <path d="M8.1575,4.4687 C8.1575,6.5147 6.4995,8.1727 4.4535,8.1727 C2.4075,8.1727 0.7495,6.5147 0.7495,4.4687 C0.7495,2.4227 2.4075,0.7647 4.4535,0.7647 C6.4995,0.7647 8.1575,2.4227 8.1575,4.4687" id="Fill-1" fill="#7D7190" mask="url(#mask-2)"></path>
                    </g>
                    <g id="Group-6" transform="translate(0.000000, 8.235400)">
                        <mask id="mask-4" fill="white">
                            <use xlink:href="#path-3"></use>
                        </mask>
                        <g id="Clip-5"></g>
                        <polygon id="Fill-4" fill="#7D7190" mask="url(#mask-4)" points="13.8271 5.5864 8.4131 5.5864 8.4131 0.1724 5.4131 0.1724 5.4131 5.5864 0.0001 5.5864 0.0001 8.5864 5.4131 8.5864 5.4131 14.0004 8.4131 14.0004 8.4131 8.5864 13.8271 8.5864"></polygon>
                    </g>
                </g>
                <g id="Page-1-Copy-2" transform="translate(242.000000, 29.000000)">
                    <g id="Group-6">
                        <mask id="mask-6" fill="white">
                            <use xlink:href="#path-5"></use>
                        </mask>
                        <g id="Clip-5"></g>
                        <polygon id="Fill-4" fill="#7D7190" mask="url(#mask-6)" points="8.88885 3.59125714 5.40842143 3.59125714 5.40842143 0.110828571 3.47985 0.110828571 3.47985 3.59125714 6.42857144e-05 3.59125714 6.42857144e-05 5.51982857 3.47985 5.51982857 3.47985 9.00025714 5.40842143 9.00025714 5.40842143 5.51982857 8.88885 5.51982857"></polygon>
                    </g>
                </g>
                <g id="Page-1-Copy" transform="translate(0.000000, 46.000000)">
                    <g id="Group-3" transform="translate(24.000000, 19.000000)">
                        <mask id="mask-8" fill="white">
                            <use xlink:href="#path-7"></use>
                        </mask>
                        <g id="Clip-2"></g>
                        <path d="M8.1575,4.4687 C8.1575,6.5147 6.4995,8.1727 4.4535,8.1727 C2.4075,8.1727 0.7495,6.5147 0.7495,4.4687 C0.7495,2.4227 2.4075,0.7647 4.4535,0.7647 C6.4995,0.7647 8.1575,2.4227 8.1575,4.4687" id="Fill-1" fill="#7D7190" mask="url(#mask-8)"></path>
                    </g>
                    <g id="Group-6">
                        <mask id="mask-10" fill="white">
                            <use xlink:href="#path-9"></use>
                        </mask>
                        <g id="Clip-5"></g>
                        <polygon id="Fill-4" fill="#7D7190" mask="url(#mask-10)" points="11.8518 4.78834286 7.21122857 4.78834286 7.21122857 0.147771429 4.6398 0.147771429 4.6398 4.78834286 8.57142859e-05 4.78834286 8.57142859e-05 7.35977143 4.6398 7.35977143 4.6398 12.0003429 7.21122857 12.0003429 7.21122857 7.35977143 11.8518 7.35977143"></polygon>
                    </g>
                </g>
                <g id="Group-3-Copy" transform="translate(26.000000, 114.000000)">
                    <mask id="mask-12" fill="white">
                        <use xlink:href="#path-11"></use>
                    </mask>
                    <g id="Clip-2"></g>
                    <path d="M6.97919444,3.82322111 C6.97919444,5.57368778 5.56068333,6.99219889 3.81021667,6.99219889 C2.05975,6.99219889 0.641238889,5.57368778 0.641238889,3.82322111 C0.641238889,2.07275444 2.05975,0.654243333 3.81021667,0.654243333 C5.56068333,0.654243333 6.97919444,2.07275444 6.97919444,3.82322111" id="Fill-1" fill="#7D7190" mask="url(#mask-12)"></path>
                </g>
            </g>
        </g>
    </g>
</svg>