<?xml version="1.0" encoding="UTF-8" standalone="no"?>
<svg width="234px" height="406px" viewBox="0 0 234 406" version="1.1" xmlns="http://www.w3.org/2000/svg" xmlns:xlink="http://www.w3.org/1999/xlink">
    <!-- Generator: Sketch 40.1 (33804) - http://www.bohemiancoding.com/sketch -->
    <title>Group 2</title>
    <desc>Created with Sketch.</desc>
    <defs>
        <filter x="-50%" y="-50%" width="200%" height="200%" filterUnits="objectBoundingBox" id="filter-1">
            <feOffset dx="0" dy="2" in="SourceAlpha" result="shadowOffsetOuter1"></feOffset>
            <feGaussianBlur stdDeviation="2" in="shadowOffsetOuter1" result="shadowBlurOuter1"></feGaussianBlur>
            <feColorMatrix values="0 0 0 0 0   0 0 0 0 0   0 0 0 0 0  0 0 0 0.5 0" type="matrix" in="shadowBlurOuter1" result="shadowMatrixOuter1"></feColorMatrix>
            <feMerge>
                <feMergeNode in="shadowMatrixOuter1"></feMergeNode>
                <feMergeNode in="SourceGraphic"></feMergeNode>
            </feMerge>
        </filter>
    </defs>
    <g id="Polls" stroke="none" stroke-width="1" fill="none" fill-rule="evenodd">
        <g id="Desktop-HD-Copy-4" transform="translate(-306.000000, -729.000000)">
            <g id="Group-2" filter="url(#filter-1)" transform="translate(307.000000, 731.000000)">
                <g id="Page-1" transform="translate(0.000000, 109.000000)" fill="#1D073E">
                    <path d="M0,288.670275 L231.87672,288.670275 C184.823916,288.670275 146.687582,250.58749 146.687582,203.609882 L146.687582,81.197919 L184.816151,81.197919 L118.933004,0.857931319 L112.943715,0.857931319 L47.060569,81.197919 L85.1896234,81.197919 L85.1896234,203.609882 C85.1896234,250.58749 47.0528033,288.670275 0,288.670275" id="Fill-3"></path>
                </g>
                <g id="Page-1" transform="translate(113.000000, 0.000000)">
                    <polygon id="Fill-1" fill="#E6AF01" points="30.8725955 14.2197573 30.8725955 56.4634977 92.8446402 56.4634977 76.2084348 35.0187878 92.8446402 14.2197573"></polygon>
                    <polygon id="Fill-2" fill="#6C451E" points="0 108.626405 6.02341071 108.626405 6.02341071 0.000832061069 0 0.000832061069"></polygon>
                    <polygon id="Fill-3" fill="#FFCC00" points="0 48.2720229 69.2957946 48.2720229 69.2957946 0 0 0"></polygon>
                    <polygon id="Fill-4" fill="#966E01" points="30.8724295 56.4633313 69.2955455 48.2725221 30.8724295 48.2725221"></polygon>
                </g>
            </g>
        </g>
    </g>
</svg>