<svg xmlns="http://www.w3.org/2000/svg" xmlns:xlink="http://www.w3.org/1999/xlink" viewBox="0 0 1528.87 382"><defs><style>.a{fill:#fff;}.b{fill:#1d073e;}.c{mask:url(#a);}.d{mask:url(#b);}.e{mask:url(#c);}.f{mask:url(#d);}.g,.h{fill:#f8fafb;}.g{opacity:0.4;}.g,.h,.k{isolation:isolate;}.h{opacity:0.5;}.i{fill:#f7941e;}.j{fill:#b5bcce;}.l{fill:#9ec023;}</style><mask id="a" x="1390.38" y="1.1" width="138.49" height="427.14" maskUnits="userSpaceOnUse"><g transform="translate(-0.66 0)"><polygon class="a" points="1391.04 428.24 1529.53 428.24 1529.53 1.1 1391.04 1.1 1391.04 428.24"/></g></mask><mask id="b" x="1051.42" y="138.08" width="118.45" height="329.47" maskUnits="userSpaceOnUse"><g transform="translate(-0.66 0)"><polygon class="a" points="1052.08 467.55 1170.53 467.55 1170.53 138.08 1052.08 138.08 1052.08 467.55"/></g></mask><mask id="c" x="307.83" y="0" width="73.45" height="415.6" maskUnits="userSpaceOnUse"><g transform="translate(-0.66 0)"><polygon class="a" points="308.49 415.6 381.94 415.6 381.94 0 308.49 0 308.49 415.6"/></g></mask><mask id="d" x="1318.34" y="138" width="67.7" height="297.95" maskUnits="userSpaceOnUse"><g transform="translate(-0.66 0)"><polygon class="a" points="1319 435.95 1386.7 435.95 1386.7 138 1319 138 1319 435.95"/></g></mask></defs><title>voting started</title><path class="b" d="M592.5,290h356a4,4,0,0,1,4,4v88h-364V294A4,4,0,0,1,592.5,290Z" transform="translate(-0.66 0)"/><path class="b" d="M130.07,134.58c2.18-.83,5.28.11,12,4.52s10.16,11.62,20.31,17.49,13.1,9.42,15.9,16.47,2.45,29,2.45,29A1105.37,1105.37,0,0,1,168.16,382h44.7C205.1,270.79,214,174.28,214,174.28c9.38-19.07,10-31.43,12-42s7.84-20,10.88-24.35c3.66-5.23,10.41-16.59,9.05-19.83-2.71-6.47-11.16,8.4-17,16.36s-11.42,12.19-13.31,11.76,2.05-11.85,5.11-22.27c5.05-17.19,7.88-24.72,2.42-26-6.75-1.55-9.62,17.32-13.37,27.44-3.48,9.37-5.74,14.29-9.4,14-1.52-.13-2.5-7.37-2.79-22.53-0.43-22.21-.89-27-4.23-26.84-7.9.28-6.43,13.56-6.83,25s0.87,23.2-.12,23.63c-4.34,1.93-7.3-12.51-11.53-23s-7.23-25.32-13.69-18.4c-4.61,4.95,1.84,24.75,6.78,36.94s7.12,22,2,27c-7,6.88-11.68,1.74-20-3.48s-16.21-5.49-20.1-1.08-2,8.82.16,8" transform="translate(-0.66 0)"/><g class="c"><path class="b" d="M1393.86,88.29c2.55-1,6.18.13,14,5.29s11.88,13.59,23.75,20.44,15.31,11,18.59,19.26,2.87,33.93,2.87,33.93c1.05,113.84-12.45,197.11-15.3,214.78h53.1c-9.07-130,3.7-247.11,3.7-247.11,11-22.3,9.08-36.92,11.41-49.32s9.17-23.4,12.72-28.47c4.28-6.11,12.17-19.4,10.58-23.18-3.17-7.57-13,9.82-19.83,19.12s-13.35,14.26-15.56,13.75,2.4-13.86,6-26c5.91-20.1,9.22-28.91,2.83-30.37-7.89-1.81-11.24,20.25-15.63,32.09-4.07,11-6.72,16.71-11,16.35-1.77-.15-2.92-8.62-3.26-26.34-0.5-26-1-31.52-5-31.38-9.23.32-7.52,15.85-8,29.19s1,27.12-.14,27.63c-5.07,2.25-8.54-14.63-13.48-26.88s-8.46-29.61-16-21.51c-5.4,5.79,2.15,28.93,7.93,43.18s8.32,25.69,2.32,31.56c-8.23,8-13.65,2-23.37-4.07s-19-6.42-23.5-1.26-2.37,10.32.18,9.35" transform="translate(-0.66 0)"/></g><g class="d"><path class="b" d="M1072.19,210.33c2,10.6,2.59,23,12,42,0,0,8.24,24.94,3,129.64h34.59c-5.86-43.79-4.89-33.34-4.26-101.84,0,0-.35-22,2.45-29s5.75-10.61,15.9-16.47,13.59-13.07,20.31-17.49,9.83-5.35,12-4.52,4-3.58.16-8-11.79-4.15-20.1,1.08-12.95,10.36-20,3.48c-5.13-5-3-14.8,2-27s11.4-32,6.78-36.93c-6.45-6.92-9.46,7.92-13.69,18.4s-7.19,24.92-11.53,23c-1-.44.29-12.23-0.12-23.63s1.07-24.69-6.83-25c-3.35-.12-3.8,4.63-4.23,26.84-0.29,15.16-1.27,22.4-2.79,22.53-3.66.31-5.92-4.61-9.4-14-3.76-10.12-6.62-29-13.37-27.44-5.46,1.25-2.63,8.78,2.42,26,3.06,10.41,7,21.83,5.11,22.27s-7.51-3.8-13.31-11.76-14.25-22.83-17-16.36c-1.35,3.23,5.39,14.6,9.05,19.83,3,4.34,8.89,13.75,10.88,24.35" transform="translate(-0.66 0)"/></g><path class="b" d="M3.07,250c2.18-.83,5.28.11,12,4.52S25.24,266.12,35.39,272s13.1,9.42,15.9,16.47,2.46,29,2.46,29c0.3,32.63.87,33-1.67,64.52H84.41c-0.12-70.06,4.9-92.2,4.9-92.2C98.69,270.73,97,258.25,99,247.65s5.65-26.6,6.67-31.81c2.6-13.26,3.4-33.12-2.88-33.45-5.48-.29-5.48,14.71-7.21,25.66-1.54,9.73-5,24-6.91,23.53s-0.16-16.21,1.15-27c2.59-21.34.85-38.83-4.61-40.08C78.44,163,79.72,187.59,78.56,200c-0.93,10-1.48,25.09-5.14,24.79-1.52-.13-1.89-8.27-2.5-23.42-1.51-37.63.26-45.17-5.19-46.28-9.51-1.95-7.81,32.84-7.57,45,0.29,14.42,2.27,23.5,1.28,23.94-4.34,1.93-5.83-8.7-6.55-20-0.87-13.55-1.35-36.9-10.09-35.75-6.63.86-1.9,25.5,0.29,42.68,1.73,13.55,5,30.58-.1,35.59-7,6.88-11.68,1.74-20-3.48S6.8,237.57,2.92,242s-2,8.82.16,8" transform="translate(-0.66 0)"/><path class="b" d="M1205.48,128.8c0.54,14.13,2.89,25.67,13.38,47,0,0,9.36,85.69,2.31,206.21l48.46-.06c-4.62-46.66-8-93.51-7.19-177.12,0,0,1.48-24.05,2.75-32.45,0.88-5.83,5.61-8.52,7.27-17.47,1.38-7.45,2.15-15.62,4.35-19.31,8.52-14.32,5.11-23.27,2.51-25.06-4.37-3-6.48,5.28-7.14,13.38-0.28,3.39-2.26,5-4.07,3.64-6.42-4.81-1.06-23.67.06-38.33,1.79-23.53,3-36.83-4.6-36.57s-6.39,9-7.42,24c-0.85,12.61-1.58,27.82-6.43,25.67-1.1-.49.32-13.67-0.13-26.43s1.19-27.61-7.64-27.92c-3.74-.13-4.25,5.18-4.73,30-0.33,17-1.42,25.05-3.12,25.2-4.09.34-4.86-9.53-6.08-20.65-1.53-14.07-5.43-27.91-11-26.6-4.35,1-5.88,10.49-2.56,29.67,2,11.67,4.7,24.71,2.59,25.2s-7.39-10.57-9.75-19.57c-2.81-10.74-7.16-17.39-11-15.34-4.16,2.22-1.91,12.82.77,21.74,3.07,10.23,7.8,14.83,8.42,31.14" transform="translate(-0.66 0)"/><path class="b" d="M436.21,224.68c5.57,3.33,10.6,11.56,13.09,21s4.57,15.53,16.34,25.78l0.08,0.14,0.12,0.53c1.56,7,2.32,27.44,2.32,27.44,0.31,33.49,0,50.25-1.94,82.4h36c-0.32-69.16,4.49-107.38,4.49-107.38,8.86-18,7.7-29.28,9.58-39.3s7.41-18.92,10.29-23c3.47-4.94,9.84-15.69,8.56-18.75-2.56-6.12-10.55,7.95-16,15.47s-10.8,11.53-12.59,11.12,1.94-11.21,4.83-21.05c4.78-16.26,7.46-23.38,2.29-24.56-6.38-1.46-9.09,16.38-12.64,26-3.29,8.86-5.43,13.51-8.89,13.22-1.44-.12-2.36-7-2.64-21.31-0.41-21-.84-25.49-4-25.38-7.47.26-6.08,12.82-6.46,23.61s0.82,21.93-.11,22.35c-4.1,1.82-6.9-11.83-10.9-21.74s-6.84-23.94-12.94-17.4c-4.36,4.68,1.74,23.4,6.41,34.92a88.87,88.87,0,0,1,5.08,16.74c-0.32,2.41-1.89,13.12-4.8,13-3.28-.18-6.35-19-20.9-23.65s-10.24,6.56-4.66,9.89" transform="translate(-0.66 0)"/><g class="e"><path class="b" d="M322.73,143.77S332.31,253,324.52,382h54.26a1831.94,1831.94,0,0,1-9.7-207.36s1.57-25.58,2.92-34.51c0.94-6.2,6.49-24.66,3.11-47.67-1.48-10.09-.83-26.84-1.7-42.46C372,23.89,372.26-2.08,364.53.13c-5.08,1.45-6.84,16.29-5.26,38.44,0.83,11.55,1.22,22.47-.88,26.07-0.74-2.61-2.92-7.7-8.74-7.54-6.88.19-9.76,1.52-9.5,9.35l-0.67.06c-0.94-1.95-2.78-4.47-6-4-3.88.56-9.15,1.79-8.93,9.42,0,0-3.4-3.07-10.9,2.4-2,1.43-4.78,7.08-5.05,15.48a27.36,27.36,0,0,0-.13,4c0.57,15,3.08,27.3,14.23,50" transform="translate(-0.66 0)"/></g><g class="f"><path class="b" d="M1333.25,281.77s3.48,14.95,3.19,100.23h44.14c-2.3-39.43-1.36-28.52-1-69.36,0,0,1.57-25.58,2.92-34.51,0.94-6.2,6.49-24.66,3.11-47.67-1.48-10.09-.83-26.84-1.7-42.46-1.45-26.11-1.15-52.08-8.89-49.87-5.08,1.45-6.84,16.29-5.26,38.44,0.83,11.55,1.23,22.47-.88,26.07-0.74-2.61-2.92-7.7-8.74-7.54-6.88.19-9.76,1.52-9.5,9.35l-0.67.06c-0.94-1.95-2.78-4.47-6-4-3.88.56-9.15,1.79-8.93,9.42,0,0-3.4-3.07-10.9,2.4-2,1.43-4.78,7.08-5.05,15.48a27.23,27.23,0,0,0-.13,4c0.57,15,3.08,27.3,14.23,50" transform="translate(-0.66 0)"/></g><path class="g" d="M794.48,265.4H706.24v15.37H834.3V265.4H812.95a4.61,4.61,0,0,1-4.62-4.61h-9.24a4.62,4.62,0,0,1-4.62,4.61h0Z" transform="translate(-0.66 0)"/><polygon class="g" points="805.47 228.06 796.97 153.96 741.79 153.96 733.28 228.06 805.47 228.06"/><path class="g" d="M740.91,67.63a6.42,6.42,0,0,0-1.53,5.06l3.53,33a4.57,4.57,0,0,1,0,.49v20h54.18V110.75H756.79a4.61,4.61,0,1,1,0-9.22h40.8l3.09-28.83a6.24,6.24,0,0,0-6.41-7.13H745.78a6.44,6.44,0,0,0-4.88,2.06h0Z" transform="translate(-0.66 0)"/><path class="g" d="M794.81,256a4.62,4.62,0,0,1,4.62,4.61h9.24a4.61,4.61,0,0,1,4.62-4.61h12.46l-2.84-10.6c-1.21-4.51-6.36-8.46-11-8.46H729.35c-4.68,0-9.84,4-11,8.46L715.47,256h79.34Z" transform="translate(-0.66 0)"/><path class="h" d="M738.56,144.73H802a4.61,4.61,0,1,0,0-9.22H738.56a4.61,4.61,0,1,0,0,9.22h0Z" transform="translate(-0.66 0)"/><path class="i" d="M774.73,56.34V51.73a13.86,13.86,0,0,1,13.85-13.84h4.62V28.67h-4.62a13.86,13.86,0,0,1-13.85-13.84V10.22H765.5v4.61a13.86,13.86,0,0,1-13.85,13.84H747v9.22h4.62A13.86,13.86,0,0,1,765.5,51.73v4.61h9.24Z" transform="translate(-0.66 0)"/><path class="j" d="M835,256.18l-3.47-13c-1.93-7.23-8.45-13.13-15.78-14.82L807,152.83a13.82,13.82,0,0,0-.45-25.91V106.38l3.51-32.71a15.45,15.45,0,0,0-15.59-17.33H784.12V51.73a4.62,4.62,0,0,1,4.62-4.61H798a4.61,4.61,0,0,0,4.62-4.61V24.06A4.61,4.61,0,0,0,798,19.45h-9.24a4.62,4.62,0,0,1-4.62-4.61V5.61A4.61,4.61,0,0,0,779.5,1H761a4.62,4.62,0,0,0-4.62,4.61v9.22a4.62,4.62,0,0,1-4.62,4.61h-9.24a4.62,4.62,0,0,0-4.62,4.61V42.51a4.62,4.62,0,0,0,4.62,4.61h9.24a4.62,4.62,0,0,1,4.62,4.61v4.61H746a15.46,15.46,0,0,0-15.59,17.33l3.51,32.71v20.53a13.83,13.83,0,0,0-.45,25.92l-8.67,75.55C717.5,230.07,711,236,709,243.2l-3.47,13h-4a4.62,4.62,0,0,0-4.62,4.61v24.6a4.62,4.62,0,0,0,4.62,4.61h137.3a4.61,4.61,0,0,0,4.62-4.61v-24.6a4.61,4.61,0,0,0-4.62-4.61h-4ZM751.64,37.89H747V28.67h4.62A13.86,13.86,0,0,0,765.5,14.84V10.22h9.24v4.61a13.86,13.86,0,0,0,13.85,13.84h4.62v9.22h-4.62a13.86,13.86,0,0,0-13.85,13.84v4.61H765.5V51.73a13.86,13.86,0,0,0-13.85-13.84h0Zm42.62,27.67a6.24,6.24,0,0,1,6.41,7.13l-3.09,28.83h-40.8a4.61,4.61,0,1,0,0,9.22h40.33v15.37H742.93v-20a4.57,4.57,0,0,0,0-.49l-3.53-33a6.24,6.24,0,0,1,6.41-7.13h48.48Zm-55.7,69.94H802a4.61,4.61,0,1,1,0,9.22H738.56a4.61,4.61,0,1,1,0-9.22h0ZM742.44,154h55.18l8.51,74.11H733.94ZM729,237h82.53c4.68,0,9.84,4,11,8.46l2.84,10.6H812.95a4.61,4.61,0,1,0,0,9.22H834.3v15.37H706.24V265.25h88.24a4.61,4.61,0,1,0,0-9.22H715.13l2.84-10.6c1.21-4.51,6.36-8.46,11-8.46h0Z" transform="translate(-0.66 0)"/><g class="k"><g class="k"><path class="l" d="M638.49,349q-1.66-3.49-3.27-7.25t-3.06-7.43q-1.45-3.68-2.66-7t-2.1-6h6.88q0.78,2.41,1.73,5.18T638,332l1.89,5.28q0.91,2.53,1.73,4.36,0.78-1.82,1.71-4.35T645.2,332q1-2.76,1.94-5.53t1.73-5.2h6.64q-0.93,2.65-2.14,6t-2.65,7q-1.44,3.68-3,7.44T644.44,349h-6Z" transform="translate(-0.66 0)"/><path class="l" d="M676.16,338.44a13.68,13.68,0,0,1-.72,4.54,9.86,9.86,0,0,1-2.08,3.52,9.38,9.38,0,0,1-3.26,2.26,10.88,10.88,0,0,1-4.26.8,10.77,10.77,0,0,1-4.22-.8,9.36,9.36,0,0,1-3.26-2.26,10.33,10.33,0,0,1-2.12-3.52,13,13,0,0,1-.76-4.54,12.56,12.56,0,0,1,.78-4.52,10.24,10.24,0,0,1,2.16-3.48,9.71,9.71,0,0,1,3.28-2.24,10.56,10.56,0,0,1,4.14-.8,10.67,10.67,0,0,1,4.18.8,9.51,9.51,0,0,1,3.26,2.24,10.18,10.18,0,0,1,2.12,3.48A12.88,12.88,0,0,1,676.16,338.44Zm-6.08,0a7.49,7.49,0,0,0-1.1-4.34,3.6,3.6,0,0,0-3.14-1.58,3.65,3.65,0,0,0-3.16,1.58,7.39,7.39,0,0,0-1.12,4.34,7.58,7.58,0,0,0,1.12,4.38,3.62,3.62,0,0,0,3.16,1.62,3.57,3.57,0,0,0,3.14-1.62A7.69,7.69,0,0,0,670.08,338.44Z" transform="translate(-0.66 0)"/><path class="l" d="M680.56,322.72l6-1V328h7.16v5h-7.16v7.4a5.88,5.88,0,0,0,.66,3,2.83,2.83,0,0,0,2.66,1.12,11.47,11.47,0,0,0,2-.18,10.33,10.33,0,0,0,1.86-.5l0.84,4.64a17,17,0,0,1-2.4.76,14,14,0,0,1-3.24.32,10.67,10.67,0,0,1-4-.66,6.36,6.36,0,0,1-2.56-1.84,6.85,6.85,0,0,1-1.34-2.86,16.84,16.84,0,0,1-.38-3.72V322.72Z" transform="translate(-0.66 0)"/><path class="l" d="M705,321.88a3.27,3.27,0,0,1-1.06,2.58,3.79,3.79,0,0,1-5,0,3.67,3.67,0,0,1,0-5.16,3.8,3.8,0,0,1,5,0A3.27,3.27,0,0,1,705,321.88ZM704.48,349h-6V328h6v21Z" transform="translate(-0.66 0)"/><path class="l" d="M710.08,328.68a33.4,33.4,0,0,1,3.92-.82,32.14,32.14,0,0,1,5-.38,12.28,12.28,0,0,1,4.46.7,6.71,6.71,0,0,1,2.82,2,7.74,7.74,0,0,1,1.48,3,16.2,16.2,0,0,1,.44,3.92V349h-6V337.84a8,8,0,0,0-.76-4.08,3.1,3.1,0,0,0-2.84-1.2c-0.43,0-.88,0-1.36.06s-0.91.09-1.28,0.14V349h-6V328.68Z" transform="translate(-0.66 0)"/><path class="l" d="M751.8,346.36q0,5.16-2.62,7.66t-8.1,2.5a22,22,0,0,1-3.84-.34,24,24,0,0,1-3.56-.9l1-5a17.63,17.63,0,0,0,2.94.88,17.33,17.33,0,0,0,3.5.32,4.84,4.84,0,0,0,3.62-1.12,4,4,0,0,0,1.06-2.88v-0.76a9.49,9.49,0,0,1-2,.66,10.41,10.41,0,0,1-2.22.22A8.52,8.52,0,0,1,735,345q-2.32-2.58-2.32-7.22a11.82,11.82,0,0,1,.72-4.22,9,9,0,0,1,2.1-3.26,9.39,9.39,0,0,1,3.38-2.1,13,13,0,0,1,4.52-.74q1.08,0,2.22.1t2.26,0.26q1.12,0.16,2.14.38c0.68,0.15,1.29.3,1.82,0.46v17.68Zm-13.08-8.56q0,5,4,5a6,6,0,0,0,1.72-.24,6.47,6.47,0,0,0,1.36-.56v-9.52q-0.44-.08-1-0.14a13.94,13.94,0,0,0-1.4-.06,4.1,4.1,0,0,0-3.52,1.56A6.45,6.45,0,0,0,738.72,337.8Z" transform="translate(-0.66 0)"/><path class="l" d="M773,344.72a6,6,0,0,0,2.32-.32,1.24,1.24,0,0,0,.68-1.24,1.52,1.52,0,0,0-.88-1.26,16.55,16.55,0,0,0-2.68-1.22,27.2,27.2,0,0,1-2.54-1.08,7.47,7.47,0,0,1-1.94-1.34,5.41,5.41,0,0,1-1.24-1.86,6.86,6.86,0,0,1-.44-2.6,5.62,5.62,0,0,1,2.2-4.68,9.57,9.57,0,0,1,6-1.72,19.38,19.38,0,0,1,3.68.34,17,17,0,0,1,2.8.74l-1,4.64a21.54,21.54,0,0,0-2.26-.64,12.24,12.24,0,0,0-2.74-.28q-2.8,0-2.8,1.56a1.62,1.62,0,0,0,.12.64,1.37,1.37,0,0,0,.48.54,6.72,6.72,0,0,0,1,.56q0.62,0.3,1.58.67a24.35,24.35,0,0,1,3.24,1.43,7.77,7.77,0,0,1,2,1.52,4.7,4.7,0,0,1,1,1.82,8,8,0,0,1,.3,2.31,5.33,5.33,0,0,1-2.34,4.71,11.67,11.67,0,0,1-6.62,1.6,19,19,0,0,1-4.66-.48,18.7,18.7,0,0,1-2.58-.8l1-4.84a19.48,19.48,0,0,0,3.12.94A15.18,15.18,0,0,0,773,344.72Z" transform="translate(-0.66 0)"/><path class="l" d="M786.2,322.72l6-1V328h7.16v5h-7.16v7.4a5.89,5.89,0,0,0,.66,3,2.83,2.83,0,0,0,2.66,1.12,11.47,11.47,0,0,0,2-.18,10.32,10.32,0,0,0,1.86-.5l0.84,4.64a16.93,16.93,0,0,1-2.4.76,14,14,0,0,1-3.24.32,10.67,10.67,0,0,1-4-.66,6.37,6.37,0,0,1-2.56-1.84,6.87,6.87,0,0,1-1.34-2.86,16.84,16.84,0,0,1-.38-3.72V322.72Z" transform="translate(-0.66 0)"/><path class="l" d="M810.92,327.4a13.79,13.79,0,0,1,4.4.6,6.84,6.84,0,0,1,2.82,1.72,6.35,6.35,0,0,1,1.5,2.72,13.44,13.44,0,0,1,.44,3.56v12.4q-1.28.28-3.56,0.66a34.14,34.14,0,0,1-5.52.38,17.48,17.48,0,0,1-3.7-.36,8,8,0,0,1-2.86-1.18,5.41,5.41,0,0,1-1.84-2.14,7.39,7.39,0,0,1-.64-3.24,6.13,6.13,0,0,1,.74-3.12,5.69,5.69,0,0,1,2-2,9,9,0,0,1,2.84-1.1,15.93,15.93,0,0,1,3.32-.34,18.93,18.93,0,0,1,2.06.1,9.3,9.3,0,0,1,1.46.26v-0.56a3.3,3.3,0,0,0-.92-2.44,4.46,4.46,0,0,0-3.2-.92,20.39,20.39,0,0,0-3,.22,12.93,12.93,0,0,0-2.56.62l-0.76-4.8c0.35-.11.78-0.22,1.3-0.34s1.09-.22,1.7-0.32,1.26-.17,1.94-0.24S810.22,327.4,810.92,327.4Zm0.48,17.44q0.88,0,1.68,0a11.55,11.55,0,0,0,1.28-.12v-4.52a10.39,10.39,0,0,0-1.08-.16,12.2,12.2,0,0,0-1.32-.08,11.84,11.84,0,0,0-1.58.1,4.1,4.1,0,0,0-1.3.38,2.21,2.21,0,0,0-.88.76,2.1,2.1,0,0,0-.32,1.2,2,2,0,0,0,.94,1.94A5.18,5.18,0,0,0,811.4,344.84Z" transform="translate(-0.66 0)"/><path class="l" d="M838.16,333.24c-0.53-.13-1.16-0.27-1.88-0.42a11.63,11.63,0,0,0-2.32-.22,10.8,10.8,0,0,0-1.34.1,7.85,7.85,0,0,0-1.18.22V349h-6V329.08a36,36,0,0,1,3.78-1.06,21.75,21.75,0,0,1,4.86-.5q0.48,0,1.16.06c0.45,0,.91.09,1.36,0.16s0.91,0.15,1.36.24a6.33,6.33,0,0,1,1.16.34Z" transform="translate(-0.66 0)"/><path class="l" d="M842.16,322.72l6-1V328h7.16v5h-7.16v7.4a5.88,5.88,0,0,0,.66,3,2.83,2.83,0,0,0,2.66,1.12,11.47,11.47,0,0,0,2-.18,10.33,10.33,0,0,0,1.86-.5l0.84,4.64a17,17,0,0,1-2.4.76,14,14,0,0,1-3.24.32,10.68,10.68,0,0,1-4-.66,6.36,6.36,0,0,1-2.56-1.84,6.85,6.85,0,0,1-1.34-2.86,16.84,16.84,0,0,1-.38-3.72V322.72Z" transform="translate(-0.66 0)"/><path class="l" d="M858.32,338.64a12.86,12.86,0,0,1,.86-4.9,10.5,10.5,0,0,1,2.26-3.5,9.41,9.41,0,0,1,3.22-2.12,10.07,10.07,0,0,1,3.74-.72,9.3,9.3,0,0,1,7.08,2.74q2.6,2.74,2.6,8.06c0,0.35,0,.73,0,1.14s-0.05.78-.08,1.1H864.44a4,4,0,0,0,1.72,2.92,6.91,6.91,0,0,0,4.08,1.08,17.13,17.13,0,0,0,3.22-.3,12.14,12.14,0,0,0,2.58-.74l0.8,4.84a8.25,8.25,0,0,1-1.28.48,16.52,16.52,0,0,1-1.78.42q-1,.18-2.1.3a21,21,0,0,1-2.24.12,13.25,13.25,0,0,1-4.94-.84,9.61,9.61,0,0,1-3.48-2.3,9.11,9.11,0,0,1-2-3.46A13.69,13.69,0,0,1,858.32,338.64Zm14-2.28a6.26,6.26,0,0,0-.26-1.48,3.73,3.73,0,0,0-.68-1.28,3.64,3.64,0,0,0-1.16-.92,3.78,3.78,0,0,0-1.74-.36,4,4,0,0,0-1.72.34,3.54,3.54,0,0,0-1.2.9,4,4,0,0,0-.74,1.3,8.53,8.53,0,0,0-.38,1.5h7.88Z" transform="translate(-0.66 0)"/><path class="l" d="M901.24,348.32q-0.8.24-1.84,0.46t-2.18.38q-1.14.16-2.32,0.26t-2.26.1a13.24,13.24,0,0,1-4.64-.76,9.29,9.29,0,0,1-3.44-2.18,9.45,9.45,0,0,1-2.14-3.44,13.1,13.1,0,0,1-.74-4.54,15.5,15.5,0,0,1,.64-4.62,10,10,0,0,1,1.84-3.5,7.88,7.88,0,0,1,2.94-2.2,9.87,9.87,0,0,1,4-.76,9.35,9.35,0,0,1,2.22.24,12,12,0,0,1,2,.68v-9.52l6-1v30.36Zm-13.48-10a7.3,7.3,0,0,0,1.24,4.44,4.28,4.28,0,0,0,3.68,1.68q0.8,0,1.48-.06t1.12-.14V333.4a5.17,5.17,0,0,0-1.46-.6,7,7,0,0,0-1.82-.24Q887.76,332.56,887.76,338.32Z" transform="translate(-0.66 0)"/></g></g></svg>