<svg xmlns="http://www.w3.org/2000/svg" xmlns:xlink="http://www.w3.org/1999/xlink" viewBox="0 0 58.6 29.61"><defs><style>.a{opacity:0.74;}.b{mask:url(#a);}.c,.d,.g,.h{fill:none;}.c,.d,.e,.i{stroke:#fff;}.c,.e,.i{stroke-width:0.6px;}.d{stroke-width:1.2px;}.e{fill:#9ec023;}.f{fill:#fff;}.g,.h{stroke:#d2d2d2;stroke-width:0.5px;}.h{stroke-linecap:square;}.i{fill:#1d073e;}.j{mask:url(#b);}</style><mask id="a" x="0.57" y="-0.7" width="28.75" height="30.31" maskUnits="userSpaceOnUse"/><mask id="b" x="8.59" y="-0.7" width="49.44" height="30.31" maskUnits="userSpaceOnUse"/></defs><title>top-elephants</title><g class="a"><g class="b"><path class="c" d="M9.33,21.35v4.49a3.88,3.88,0,1,1-7.75,0V11.55a3.87,3.87,0,0,1,.15-1.08,7.78,7.78,0,0,1,7.6-6.27h2L11.19,5.5,11,6.37V7.24l0.14,1.3,0.14,0.58L11.62,10l1.29,2.47L15.2,15a3.88,3.88,0,0,1,4.46,3.84v7a3.88,3.88,0,1,1-7.75,0V24.33Z" transform="translate(-0.7 -0.7)"/><path class="d" d="M21.67,21.54v4.3a3.88,3.88,0,0,0,7.75,0V9.41a7.84,7.84,0,0,0-7.84-7.83H14.31a3.22,3.22,0,0,0-3,2.32,9.31,9.31,0,0,0,.58,7.25c2,4,7,6.09,7.63,6.09h0.12V17.08a1,1,0,0,1,2,0v4.46Z" transform="translate(-0.7 -0.7)"/><ellipse class="e" cx="24.13" cy="6.97" rx="1.15" ry="1.16"/><polygon class="f" points="15.09 15.45 16.09 14.07 18.68 15.23 18.68 16.83 15.09 15.45"/></g><polygon class="g" points="20.25 1.17 11.5 10.02 28.58 12.91 21.12 24.66 28.01 27.13 20.25 1.17"/><path class="h" d="M4.59,6.08l6,12.47" transform="translate(-0.7 -0.7)"/><ellipse class="i" cx="3.89" cy="5.37" rx="0.72" ry="0.72"/><ellipse class="i" cx="9.92" cy="17.85" rx="0.72" ry="0.73"/><ellipse class="i" cx="1.02" cy="23.36" rx="0.72" ry="0.73"/><polyline class="h" points="1.02 18.28 7.63 13.09 11.35 10.16 1.16 9.29 6.04 28.72 0.87 23.5 8.48 21.04"/><ellipse class="i" cx="11.35" cy="10.02" rx="0.72" ry="0.73"/><ellipse class="i" cx="11.35" cy="1.03" rx="0.72" ry="0.73"/><ellipse class="i" cx="28.58" cy="12.91" rx="0.72" ry="0.73"/><ellipse class="i" cx="15.66" cy="14.65" rx="0.72" ry="0.73"/><ellipse class="i" cx="18.82" cy="16.39" rx="0.72" ry="0.73"/><ellipse class="i" cx="20.26" cy="1.03" rx="0.72" ry="0.73"/><ellipse class="i" cx="18.25" cy="27.13" rx="0.72" ry="0.73"/><ellipse class="i" cx="1.02" cy="9.15" rx="0.72" ry="0.73"/><ellipse class="i" cx="6.19" cy="28.57" rx="0.72" ry="0.73"/><ellipse class="i" cx="11.07" cy="24.22" rx="0.72" ry="0.73"/><ellipse class="i" cx="1.02" cy="18.13" rx="0.72" ry="0.73"/><ellipse class="i" cx="7.62" cy="12.91" rx="0.72" ry="0.73"/><g class="j"><path class="c" d="M50.67,21.35v4.49a3.88,3.88,0,1,0,7.75,0V11.55a3.87,3.87,0,0,0-.15-1.08,7.78,7.78,0,0,0-7.6-6.27h-2L48.81,5.5,49,6.37V7.24l-0.14,1.3-0.14.58L48.38,10l-1.29,2.47L44.8,15a3.88,3.88,0,0,0-4.46,3.84v7a3.88,3.88,0,1,0,7.75,0v-6h2.58V19.69a1.29,1.29,0,0,0-2.58,0V26.1a1.29,1.29,0,0,0,2.58,0V21.35Z" transform="translate(-0.7 -0.7)"/><path class="d" d="M38.33,21.54v4.3a3.88,3.88,0,0,1-7.75,0V9.41a7.84,7.84,0,0,1,7.84-7.83h7.28a3.22,3.22,0,0,1,3,2.32,9.31,9.31,0,0,1-.58,7.25c-2,4-7,6.09-7.63,6.09H40.34V17.08a1,1,0,0,0-2,0v4.46Z" transform="translate(-0.7 -0.7)"/><ellipse class="e" cx="34.47" cy="6.97" rx="1.15" ry="1.16"/><polygon class="f" points="43.51 15.45 42.51 14.07 39.92 15.23 39.92 16.83 43.51 15.45"/></g><polygon class="g" points="38.34 1.17 47.1 10.02 30.02 12.91 37.48 24.66 30.59 27.13 38.34 1.17"/><path class="h" d="M55.41,6.08l-6,12.47" transform="translate(-0.7 -0.7)"/><ellipse class="i" cx="54.71" cy="5.37" rx="0.72" ry="0.72"/><ellipse class="i" cx="48.68" cy="17.85" rx="0.72" ry="0.73"/><ellipse class="i" cx="57.58" cy="23.36" rx="0.72" ry="0.73"/><polyline class="h" points="57.58 18.28 50.97 13.09 47.25 10.16 57.44 9.29 52.56 28.72 57.73 23.5 50.12 21.04"/><ellipse class="i" cx="47.25" cy="10.02" rx="0.72" ry="0.73"/><ellipse class="i" cx="47.25" cy="1.03" rx="0.72" ry="0.73"/><ellipse class="i" cx="30.02" cy="12.91" rx="0.72" ry="0.73"/><ellipse class="i" cx="42.94" cy="14.65" rx="0.72" ry="0.73"/><ellipse class="i" cx="39.78" cy="16.39" rx="0.72" ry="0.73"/><ellipse class="i" cx="38.34" cy="1.03" rx="0.72" ry="0.73"/><ellipse class="i" cx="40.35" cy="27.13" rx="0.72" ry="0.73"/><ellipse class="i" cx="57.58" cy="9.15" rx="0.72" ry="0.73"/><ellipse class="i" cx="52.41" cy="28.57" rx="0.72" ry="0.73"/><ellipse class="i" cx="47.53" cy="24.22" rx="0.72" ry="0.73"/><ellipse class="i" cx="57.58" cy="18.13" rx="0.72" ry="0.73"/><ellipse class="i" cx="50.98" cy="12.91" rx="0.72" ry="0.73"/></g></svg>