<svg xmlns="http://www.w3.org/2000/svg" viewBox="0 0 500.42 274.92"><defs><style>.a{opacity:0.4;}.b{fill:none;stroke:#666;stroke-miterlimit:10;stroke-width:1.59px;}</style></defs><title>footer-background</title><g class="a"><polygon class="b" points="370.8 197.8 363.6 185.3 370.8 172.7 385.2 172.7 392.5 185.3 385.2 197.8 370.8 197.8"/><polygon class="b" points="477.8 25.8 470.6 13.3 477.8 0.8 492.3 0.8 499.5 13.3 492.3 25.8 477.8 25.8"/><polygon class="b" points="416 82.7 433 72.9 450 82.7 450 102.4 433 112.2 416 102.4 416 82.7"/><polygon class="b" points="319.2 23.1 336.2 13.3 353.3 23.1 353.3 42.8 336.2 52.6 319.2 42.8 319.2 23.1"/><polygon class="b" points="161.7 91.2 181.1 80 200.5 91.2 200.5 113.6 181.1 124.8 161.7 113.6 161.7 91.2"/><polygon class="b" points="243.8 62.5 254.1 56.6 264.4 62.5 264.4 74.4 254.1 80.3 243.8 74.4 243.8 62.5"/><polygon class="b" points="236 132.7 242 143 236 153.3 224.1 153.3 218.2 143 224.1 132.7 236 132.7"/><polygon class="b" points="173.8 161.8 184 155.9 194.3 161.8 194.3 173.7 184 179.6 173.8 173.7 173.8 161.8"/><polygon class="b" points="196.5 32.9 200.9 40.4 196.5 47.9 187.9 47.9 183.6 40.4 187.9 32.9 196.5 32.9"/><polygon class="b" points="102.8 138.8 95.2 125.7 102.8 112.7 117.9 112.7 125.4 125.7 117.9 138.8 102.8 138.8"/><polygon class="b" points="96.5 33.1 109.1 25.8 121.7 33.1 121.7 47.7 109.1 55 96.5 47.7 96.5 33.1"/><polygon class="b" points="46 85.6 58.6 78.3 71.3 85.6 71.3 100.1 58.6 107.4 46 100.1 46 85.6"/><polygon class="b" points="420.9 174 433 167 445.1 174 445.1 188 433 195 420.9 188 420.9 174"/><polygon class="b" points="425.4 238.9 445.7 227.2 465.9 238.9 465.9 262.3 445.7 274 425.4 262.3 425.4 238.9"/><polygon class="b" points="310.6 131.7 327 122.3 343.4 131.7 343.4 150.7 327 160.2 310.6 150.7 310.6 131.7"/><line class="b" x1="343.4" y1="131.8" x2="416" y2="102.4"/><polygon class="b" points="0.8 120.4 8.9 115.7 17 120.4 17 129.7 8.9 134.4 0.8 129.7 0.8 120.4"/><polygon class="b" points="17.3 58.8 12.6 50.7 17.3 42.7 26.6 42.7 31.3 50.7 26.6 58.8 17.3 58.8"/><polygon class="b" points="102.5 89.7 97.8 81.6 102.5 73.6 111.9 73.6 116.5 81.6 111.9 89.7 102.5 89.7"/><polygon class="b" points="74 151.5 69.3 143.4 74 135.3 83.4 135.3 88 143.4 83.4 151.5 74 151.5"/><line class="b" x1="17" y1="120.4" x2="46" y2="100.1"/><line class="b" x1="433" y1="112.2" x2="433" y2="167"/><line class="b" x1="416" y1="82.7" x2="353.3" y2="42.8"/><line class="b" x1="450" y1="82.7" x2="477.8" y2="25.8"/><line class="b" x1="319.2" y1="42.8" x2="264.4" y2="62.8"/><line class="b" x1="243.8" y1="74.4" x2="200.5" y2="90.3"/><line class="b" x1="121.7" y1="47.7" x2="161.7" y2="91.2"/><line class="b" x1="161.7" y1="113.6" x2="124.9" y2="125.7"/><line class="b" x1="181.1" y1="124.8" x2="184" y2="155.9"/><line class="b" x1="181.1" y1="80" x2="188" y2="47.7"/><line class="b" x1="200.5" y1="113.6" x2="224.4" y2="132.7"/><line class="b" x1="26.6" y1="58.8" x2="46" y2="85.6"/><line class="b" x1="71.3" y1="85.6" x2="97.8" y2="81.6"/><line class="b" x1="58.6" y1="107.4" x2="74" y2="135.3"/><line class="b" x1="385.2" y1="197.8" x2="425.4" y2="238.9"/></g></svg>