<?xml version="1.0" encoding="utf-8"?>
<!-- Generator: Adobe Illustrator 19.0.0, SVG Export Plug-In . SVG Version: 6.00 Build 0)  -->
<svg version="1.1" id="Layer_1" xmlns="http://www.w3.org/2000/svg" xmlns:xlink="http://www.w3.org/1999/xlink" x="0px" y="0px"
	 viewBox="34 25 195.1 80" style="enable-background:new 34 25 195.1 80;" xml:space="preserve">
<style type="text/css">
	.st0{fill:#FFFFFF;}
</style>
<g id="Logo_1_">
	<path class="st0" d="M39.8,64.5c0.2,0.1-0.2,15.4-0.2,15.4s7.1-6.7,7.5-6.7c0.3,0,4.2,2.3,4.2,2.8s-5.5,5.3-5.5,5.3
		s6.2,9.2,6.1,9.5s-4.2,2-5.4,1.8c-0.3,0-4.8-8.3-5.1-8.3c-0.3,0-1.5,1.3-1.5,1.3l0.2,6.4c0,0-5.2,0-5.5-0.2s-0.9-26.7-0.4-27.2
		C34.5,64.2,39.5,64.3,39.8,64.5z M56.7,64.7c1.9,0,3.3,1.3,3.3,3.6c0,1.6-1.4,2.8-3.3,2.8s-3.2-1-3.2-3
		C53.5,66.2,54.1,64.7,56.7,64.7z M59.6,73.8c0.1,0.1-0.2,17.5-0.3,17.7c-0.1,0.3-5.3,0.1-5.4,0s-0.4-17.4-0.2-17.8
		C53.9,73.5,59.4,73.7,59.6,73.8z M68.7,73.9c0,0.8-0.1,1.9-0.1,2.2c0.8-1.2,2.6-2.5,5.5-2.5c3.9,0,6.4,3.1,6.4,7.8
		c0,2.4-0.1,8.5-0.3,10.3c0,0.4-5.5,0.3-5.6,0.2c-0.1-0.1,0-8.6,0-9.9c0-2-0.9-3.3-2.7-3.3c-2,0-3.2,1.6-3.2,3c0,1.2,0,9.9-0.1,10
		s-5.4,0.1-5.5-0.1C63,91.5,62.9,82,63,74.4C63.3,73.8,68.4,73.6,68.7,73.9z M82.5,82.6c0-5.6,4.1-8.7,8.4-8.8
		c2.4,0,4.4,1.4,4.7,1.9c0-1.2-0.1-10.9,0.3-11.1c0.3-0.3,5.3-0.5,6-0.1c0.1,0-0.4,26.7-0.5,27.1c-0.1,0.1-4,0.5-5.3,0
		c0-0.3-0.1-1.7-0.1-2c-0.3,0.4-2.4,2.1-5.4,2.1C86.4,91.7,82.5,88.6,82.5,82.6z M92.2,86.5c2.4,0,3.6-1.6,3.6-3.8
		c0-2.4-1.6-3.8-3.6-3.8c-2.3,0-3.5,1.6-3.5,3.8C88.7,85.2,90.3,86.5,92.2,86.5z M113.7,87.4c1.9,0,3.3-0.7,4.2-1.3
		c0.4,0.4,1.8,3.4,1.9,3.9c-1,0.9-3.5,2.1-6.4,2.1c-6.5,0-9.2-4.4-9.2-9c0-4.9,3-9.4,8.7-9.4c4.8,0,7.7,3.6,7.7,7.7
		c0,1.1-0.1,2.1-0.3,2.8c-1.8,0.3-8.3,0.3-10.5,0.2C109.8,86.2,111.2,87.4,113.7,87.4z M115.5,80.8c0.1-1.8-0.8-3.1-2.6-3.1
		c-1.9,0-3.1,1.4-3.1,3.2L115.5,80.8z M134,79.9c-0.6-0.1-1.8-0.4-2.5-0.4c-1.7,0-2.5,1.2-2.7,2.8c-0.1,0.8,0.2,9.2,0.1,9.3
		c-0.1,0.1-5.9,0.2-6,0c-0.1-0.1-0.1-16.7,0-17.4c0.3-0.6,5.3-0.8,5.6-0.4c0,0.8,0,2.3,0,2.5c1.3-2.3,3.9-2.8,6.3-2.5
		C135.3,74.2,134.6,79.2,134,79.9z M148.2,91.6c0-0.8,0-1.8,0-2.1c-0.8,1.2-2.6,2.7-5.3,2.7c-4.4,0-6.5-2.7-6.5-7.7
		c0-2.6,0.4-8.8,0.5-10.5c0.1-0.4,5.5-0.3,5.6-0.2c0.1,0.4-0.3,8.6-0.3,10c0,2,0.9,3.2,2.7,3.2c2,0,3-1.5,3.1-3.1
		c0-1,0.1-9.9,0.3-10.1c0.1-0.1,5.3-0.1,5.5,0.1c0,0.1-0.1,9.8-0.2,17.5C153.3,92,148.6,91.9,148.2,91.6z M163,73.9
		c0,0.8-0.1,1.9-0.1,2.2c0.8-1.2,2.6-2.5,5.5-2.5c3.9,0,6.4,3.1,6.4,7.8c0,2.4-0.1,8.5-0.3,10.3c0,0.4-5.4,0.3-5.6,0.2
		c-0.1-0.1,0-8.6,0-9.9c0-2-0.9-3.3-2.7-3.3c-2,0-3.2,1.6-3.2,3c0,1.2,0,9.9-0.1,10s-5.4,0.1-5.5-0.1c-0.1-0.1-0.2-9.6-0.1-17.2
		C157.6,73.8,162.7,73.6,163,73.9z M181,64.7c1.9,0,3.3,1.3,3.3,3.6c0,1.6-1.4,2.8-3.3,2.8c-1.9,0-3.2-1-3.2-3
		C177.8,66.2,178.4,64.7,181,64.7z M183.9,73.8c0.1,0.1-0.2,17.5-0.3,17.7c-0.1,0.3-5.3,0.1-5.4,0c-0.1-0.1-0.4-17.4-0.2-17.8
		C178.3,73.5,183.7,73.7,183.9,73.8z M194.2,85c0,1.2,0.6,1.9,1.8,1.9c1.3,0,2.2-0.9,2.6-0.8c0.4,0.1,1.2,3.4,1.3,4.2
		c0,0-1.5,1.8-5.3,1.8c-4.1,0-6.2-2.2-6.2-5.8c0-1.7,0.3-7.9,0.3-7.9s-2.3,0-2.5-0.2s-0.2-4.4,0-4.4c0.1,0,2.6,0.1,2.7,0
		c0.1-0.1-0.1-3.9,0.2-4.2c0.3-0.3,5.3-0.6,5.5-0.5c0.2,0.2-0.1,4.8-0.1,4.8c0.1,0,4-0.2,4.4,0.3s0.1,4.2,0.1,4.2
		c-0.3,0.4-4.6,0-4.6,0.3C194.3,78.8,194.2,82.9,194.2,85z M208.1,99.8c-1.4,0.1-5.1-1.7-5.5-2.1c0-0.2,3.2-6.7,3.6-8
		c-1.3-2.6-5.9-14.2-5.9-15.1c0-0.3,5-1.1,5.4-1.1c0.5,0,3.8,10.2,3.8,10.2s3.9-10.2,4.1-10.2c0.2,0,5.5,1,5.5,1.3
		C218.4,77.1,208.6,99.2,208.1,99.8z"/>
	<path class="st0" d="M35.7,101.6c0,0.3,0.1,0.6,0.5,0.6s0.6-0.2,0.7-0.2s0.3,0.6,0.3,0.8c0,0-0.4,0.4-1.2,0.4
		c-0.9,0-1.4-0.5-1.3-1.3c0-0.4,0.1-2.2,0.1-2.2h-0.7c0,0-0.1-0.8,0-0.9h0.7c0,0,0-1,0.1-1c0.1-0.1,1-0.1,1-0.1v1.2
		c0,0,1.2,0,1.2,0.1c0.1,0.1,0,0.8,0,0.8c-0.1,0.1-1.3,0-1.3,0C35.7,99.7,35.7,101,35.7,101.6z M39.7,102.2c0.5,0,0.9-0.2,1.1-0.4
		c0.1,0.1,0.4,0.6,0.4,0.8c-0.2,0.2-0.8,0.5-1.5,0.5c-1.5,0-2.1-1-2.1-2.1c0-1.2,0.7-2.2,2-2.2c1.1,0,1.8,0.8,1.8,1.8
		c0,0.3,0,0.5-0.1,0.6c-0.4,0.1-2.1,0.1-2.7,0C38.6,101.8,39.1,102.2,39.7,102.2z M40.4,100.5c0-0.6-0.3-1-0.8-1
		c-0.6,0-0.9,0.5-0.9,1H40.4z M43.8,98.7c1.1,0,1.8,0.7,1.8,1.9c0,0.9-0.1,2.3-0.1,2.4s-0.9,0-0.9,0l-0.1-0.4
		c-0.1,0.1-0.5,0.5-1.2,0.5c-1,0-1.5-0.6-1.5-1.3c0-0.8,0.7-1.3,1.6-1.3c0.5,0,0.8,0.1,1,0.3c0-0.6-0.1-1.1-0.9-1.1
		c-0.7,0-0.9,0.4-1,0.5c-0.1,0-0.6-0.4-0.6-0.5C42.1,99.5,42.7,98.7,43.8,98.7z M43.7,102.4c0.5,0,0.8-0.3,0.8-0.6
		c0-0.4-0.3-0.6-0.8-0.6s-0.8,0.3-0.8,0.7C42.9,102.1,43.2,102.4,43.7,102.4z M48.6,102.2c0.5,0,0.9-0.3,1-0.4
		c0.1,0,0.3,0.4,0.4,0.7c-0.2,0.3-0.8,0.6-1.5,0.6c-1.6,0-2.2-1.1-2.2-2.2s0.8-2.2,2.2-2.2c0.9,0,1.5,0.4,1.5,0.5s-0.2,0.9-0.3,0.9
		c-0.1,0-0.5-0.4-1.1-0.4c-0.7,0-1.2,0.4-1.2,1.2C47.5,102,48.2,102.2,48.6,102.2z M51.9,96.5c0,0.2,0,2.7,0,2.8
		c0.2-0.3,0.6-0.6,1.2-0.6c1.1,0,1.7,0.7,1.7,1.8c0,0.6-0.1,2.2-0.1,2.5c0,0.1-1,0.1-1,0c0-0.2,0-2.1,0-2.4c0-0.5-0.3-0.9-0.8-0.9
		c-0.6,0-0.9,0.4-0.9,0.9c0,0.3,0,2.5,0,2.5s-1,0-1.1,0c0,0,0-5.7,0-6.6C50.9,96.4,51.9,96.3,51.9,96.5z M57.8,102.2
		c0.5,0,0.9-0.2,1.1-0.4c0.1,0.1,0.4,0.6,0.4,0.8c-0.2,0.2-0.8,0.5-1.5,0.5c-1.5,0-2.1-1-2.1-2.1c0-1.2,0.7-2.2,2-2.2
		c1.1,0,1.8,0.8,1.8,1.8c0,0.3,0,0.5-0.1,0.6c-0.4,0.1-2.1,0.1-2.7,0C56.7,101.8,57.2,102.2,57.8,102.2z M58.5,100.5
		c0-0.6-0.3-1-0.8-1c-0.6,0-1,0.5-1,1H58.5z M62.9,99.9c-0.1,0-0.4-0.1-0.6-0.1c-0.4,0-0.7,0.3-0.8,0.8c0,0.1,0,2.4,0,2.4
		s-1.1,0.1-1.1,0c0,0,0-4,0-4.2c0.1-0.1,1-0.2,1.1-0.1c0,0.2,0,0.6,0,0.6c0.3-0.6,1-0.7,1.6-0.6C63.1,98.9,63,99.8,62.9,99.9z
		 M63.5,102.6c-0.1-0.1,0.3-0.8,0.4-0.8c0.1,0.1,0.7,0.5,1.2,0.5s0.7-0.2,0.7-0.5s-0.2-0.4-0.8-0.5c-1-0.2-1.5-0.6-1.5-1.3
		c0-0.9,0.6-1.4,1.7-1.4c0.8,0,1.4,0.3,1.5,0.4s-0.3,0.8-0.3,0.8s-0.5-0.4-1.1-0.4c-0.5,0-0.7,0.2-0.7,0.5s0.2,0.4,0.8,0.5
		c1,0.1,1.5,0.5,1.5,1.3s-0.5,1.4-1.7,1.4C64.3,103.2,63.6,102.8,63.5,102.6z M68.3,104.7c0,0-0.5-0.1-0.6-0.3c0,0,0.4-0.9,0.6-1.3
		c-0.4,0-0.7-0.3-0.7-0.7c0-0.5,0.3-0.8,0.9-0.8c0.3,0,0.7,0.2,0.7,0.8C69.1,103,68.6,104.2,68.3,104.7z M73,96.4c0.1,0,0,3.9,0,3.9
		s2-1.7,2.1-1.7s0.8,0.4,0.8,0.5s-1.5,1.3-1.5,1.3l1.6,2.3c0,0.1-0.8,0.4-1,0.4c-0.1,0-1.4-2.1-1.5-2.1s-0.5,0.4-0.5,0.4v1.6h-1
		c-0.1-0.1-0.2-6.5-0.1-6.6C72.1,96.4,73,96.4,73,96.4z M77.2,96.7c0.4,0,0.7,0.3,0.7,0.7c0,0.3-0.3,0.6-0.7,0.6
		c-0.4,0-0.7-0.2-0.7-0.6C76.6,97,76.7,96.7,77.2,96.7z M77.8,98.8v4.2c0,0.1-1,0-1,0s-0.1-4.1,0-4.2C76.7,98.7,77.7,98.8,77.8,98.8
		z M78.6,100.9c0-1.3,0.9-2.1,2-2.1c0.6,0,1.1,0.3,1.2,0.6c0-0.6,0-2.8,0.1-2.8c0.1-0.1,1-0.1,1.1,0c0,0-0.1,6.4-0.1,6.6
		c0,0-0.8,0.1-1,0c0-0.1,0-0.4,0-0.5c-0.1,0.2-0.6,0.6-1.3,0.6C79.5,103.1,78.6,102.3,78.6,100.9z M80.9,102.1
		c0.7,0,1.1-0.5,1.1-1.2c0-0.8-0.5-1.2-1.1-1.2c-0.7,0-1.1,0.4-1.1,1.2C79.8,101.8,80.3,102.1,80.9,102.1z M83.9,102.6
		c-0.1-0.1,0.3-0.8,0.4-0.8c0.1,0.1,0.6,0.5,1.2,0.5c0.5,0,0.7-0.2,0.7-0.5s-0.2-0.4-0.8-0.5c-1-0.2-1.5-0.6-1.5-1.3
		c0-0.9,0.6-1.4,1.7-1.4c0.8,0,1.4,0.3,1.5,0.4s-0.3,0.8-0.3,0.8s-0.5-0.4-1.1-0.4c-0.5,0-0.7,0.2-0.7,0.5s0.2,0.4,0.8,0.5
		c1,0.1,1.5,0.5,1.5,1.3s-0.5,1.4-1.7,1.4C84.8,103.2,84,102.8,83.9,102.6z M91.5,98.7c1.1,0,1.8,0.7,1.8,1.9c0,0.9-0.1,2.3-0.1,2.4
		s-0.9,0-0.9,0l-0.1-0.4c-0.1,0.1-0.5,0.5-1.2,0.5c-1,0-1.5-0.6-1.5-1.3c0-0.8,0.7-1.3,1.6-1.3c0.5,0,0.8,0.1,1,0.3
		c0-0.6-0.1-1.1-0.9-1.1c-0.7,0-0.9,0.4-1,0.5c-0.1,0-0.6-0.4-0.6-0.5C89.9,99.5,90.4,98.7,91.5,98.7z M91.5,102.4
		c0.5,0,0.8-0.3,0.8-0.6c0-0.4-0.3-0.6-0.8-0.6s-0.8,0.3-0.8,0.7C90.7,102.1,91,102.4,91.5,102.4z M95.5,98.8c0,0.2,0,0.5,0,0.5
		c0.2-0.3,0.7-0.6,1.3-0.6c0.9,0,1.6,0.7,1.6,1.8c0,0.6,0,2-0.1,2.5c0,0.1-1,0.1-1,0c0,0,0-2.1,0-2.5c0-0.5-0.3-1-0.8-1
		c-0.6,0-0.9,0.4-0.9,0.9c0,0.3,0,2.4,0,2.5h-1c0,0,0-2.3,0-4.1C94.5,98.8,95.4,98.7,95.5,98.8z M99.2,100.9c0-1.3,0.9-2.1,2-2.1
		c0.6,0,1.1,0.3,1.2,0.6c0-0.6,0-2.8,0.1-2.8c0.1-0.1,1-0.1,1.1,0c0,0-0.1,6.4-0.1,6.6c0,0-0.8,0.1-1,0c0-0.1,0-0.4,0-0.5
		c-0.2,0.2-0.6,0.6-1.3,0.6C100.1,103.1,99.2,102.3,99.2,100.9z M101.5,102.1c0.7,0,1.1-0.5,1.1-1.2c0-0.8-0.5-1.2-1.1-1.2
		c-0.7,0-1.1,0.4-1.1,1.2C100.4,101.8,100.9,102.1,101.5,102.1z M111,100.9c0,1.3-0.8,2.2-2,2.2c-0.6,0-1.1-0.3-1.2-0.5
		c0,0.6,0,2.3,0,2.3c-0.1,0.1-1,0.1-1.1,0c0,0,0-6,0.1-6.2h1c0,0.1,0,0.4,0,0.5c0.1-0.2,0.6-0.6,1.3-0.6
		C110.1,98.7,111,99.5,111,100.9z M108.8,99.8c-0.7,0-1.1,0.5-1.1,1.1c0,0.8,0.5,1.2,1,1.2c0.7,0,1.1-0.5,1.1-1.2
		C109.8,100.1,109.3,99.8,108.8,99.8z M113.4,98.7c1.1,0,1.8,0.7,1.8,1.9c0,0.9-0.1,2.3-0.1,2.4s-0.9,0-0.9,0l-0.1-0.4
		c-0.1,0.1-0.5,0.5-1.2,0.5c-1,0-1.5-0.6-1.5-1.3c0-0.8,0.7-1.3,1.6-1.3c0.5,0,0.8,0.1,0.9,0.3c0-0.6-0.1-1.1-0.9-1.1
		c-0.7,0-0.9,0.4-1,0.5c-0.1,0-0.6-0.4-0.6-0.5C111.7,99.5,112.2,98.7,113.4,98.7z M113.3,102.4c0.5,0,0.8-0.3,0.8-0.6
		c0-0.4-0.3-0.6-0.8-0.6s-0.8,0.3-0.8,0.7C112.5,102.1,112.8,102.4,113.3,102.4z M118.7,99.9c-0.1,0-0.4-0.1-0.6-0.1
		c-0.4,0-0.7,0.3-0.8,0.8c0,0.1,0,2.4,0,2.4s-1.1,0.1-1.1,0c0,0,0-4,0-4.2c0.1-0.1,1-0.2,1.1-0.1c0,0.2,0,0.6,0,0.6
		c0.3-0.6,1-0.7,1.6-0.6C119,98.9,118.9,99.8,118.7,99.9z M121.4,102.2c0.5,0,0.9-0.2,1.1-0.4c0.1,0.1,0.4,0.6,0.4,0.8
		c-0.2,0.2-0.8,0.5-1.5,0.5c-1.5,0-2.1-1-2.1-2.1c0-1.2,0.7-2.2,2-2.2c1.1,0,1.8,0.8,1.8,1.8c0,0.3,0,0.5-0.1,0.6
		c-0.4,0.1-2.1,0.1-2.7,0C120.3,101.8,120.8,102.2,121.4,102.2z M122.1,100.5c0-0.6-0.3-1-0.8-1c-0.6,0-1,0.5-1,1H122.1z M125,98.8
		c0,0.2,0,0.5,0,0.5c0.2-0.3,0.7-0.6,1.3-0.6c0.9,0,1.6,0.7,1.6,1.8c0,0.6,0,2-0.1,2.5c0,0.1-1,0.1-1,0c0,0,0-2.1,0-2.5
		c0-0.5-0.3-1-0.8-1c-0.6,0-1,0.4-1,0.9c0,0.3,0,2.4,0,2.5h-1c0,0,0-2.3,0-4.1C124,98.8,124.9,98.7,125,98.8z M130.3,101.6
		c0,0.3,0.1,0.6,0.5,0.6s0.6-0.2,0.7-0.2s0.3,0.6,0.3,0.8c0,0-0.4,0.4-1.2,0.4c-0.9,0-1.4-0.5-1.3-1.3c0-0.4,0.1-2.2,0.1-2.2h-0.7
		c0,0-0.1-0.8,0-0.9h0.7c0,0,0-1,0.1-1c0.1-0.1,1-0.1,1-0.1v1.2c0,0,1.2,0,1.2,0.1c0.1,0.1,0,0.8,0,0.8c-0.1,0.1-1.3,0-1.3,0
		C130.3,99.7,130.3,101,130.3,101.6z M132.2,102.6c-0.1-0.1,0.3-0.8,0.4-0.8c0.1,0.1,0.6,0.5,1.2,0.5c0.5,0,0.7-0.2,0.7-0.5
		s-0.2-0.4-0.8-0.5c-1-0.2-1.5-0.6-1.5-1.3c0-0.9,0.6-1.4,1.7-1.4c0.8,0,1.4,0.3,1.5,0.4s-0.3,0.8-0.3,0.8s-0.5-0.4-1.1-0.4
		c-0.5,0-0.7,0.2-0.7,0.5s0.2,0.4,0.8,0.5c1,0.1,1.5,0.5,1.5,1.3s-0.5,1.4-1.7,1.4C133.1,103.2,132.3,102.8,132.2,102.6z
		 M138.9,96.7c0.4,0,0.7,0.3,0.7,0.7c0,0.3-0.3,0.6-0.7,0.6c-0.4,0-0.7-0.2-0.7-0.6C138.2,97,138.3,96.7,138.9,96.7z M139.4,98.8
		v4.2c0,0.1-1,0-1,0s-0.1-4.1,0-4.2C138.4,98.7,139.4,98.8,139.4,98.8z M141.6,98.8c0,0.2,0,0.5,0,0.5c0.2-0.3,0.7-0.6,1.3-0.6
		c0.9,0,1.6,0.7,1.6,1.8c0,0.6,0,2-0.1,2.5c0,0.1-1,0.1-1,0c0,0,0-2.1,0-2.5c0-0.5-0.3-1-0.8-1c-0.6,0-0.9,0.4-0.9,0.9
		c0,0.3,0,2.4,0,2.5h-1c0,0,0-2.3,0-4.1C140.6,98.8,141.5,98.7,141.6,98.8z M148.6,98.8c0,0-0.1,2.6-0.1,4.3c0,1.2-0.6,1.7-1.2,1.8
		c-0.1,0-0.5-0.4-0.6-0.7c0.2,0,0.7-0.3,0.7-1.2c0-1.6,0-4.3,0-4.3C147.9,98.7,148.5,98.8,148.6,98.8z M148.1,98
		c-0.4,0-0.7-0.3-0.7-0.7c0-0.3,0.3-0.6,0.7-0.6c0.4,0,0.7,0.2,0.7,0.6C148.7,97.7,148.6,98,148.1,98z M152.5,103.1
		c0-0.2,0-0.5,0-0.5c-0.2,0.3-0.7,0.6-1.3,0.6c-1.1,0-1.6-0.6-1.6-1.8c0-0.6,0.1-2.2,0.1-2.6c0-0.1,1-0.1,1,0c0,0.2-0.1,2.1-0.1,2.5
		c0,0.6,0.3,0.9,0.8,0.9c0.6,0,0.9-0.4,0.9-0.9c0-0.3,0.1-2.5,0.1-2.5h1c0,0,0,2.4-0.1,4.2C153.4,103.2,152.5,103.1,152.5,103.1z
		 M154.4,102.6c-0.1-0.1,0.3-0.8,0.4-0.8c0.1,0.1,0.6,0.5,1.2,0.5c0.5,0,0.7-0.2,0.7-0.5s-0.2-0.4-0.8-0.5c-1-0.2-1.5-0.6-1.5-1.3
		c0-0.9,0.6-1.4,1.7-1.4c0.8,0,1.4,0.3,1.5,0.4s-0.3,0.8-0.3,0.8s-0.5-0.4-1.1-0.4c-0.5,0-0.7,0.2-0.7,0.5s0.2,0.4,0.8,0.5
		c1,0.1,1.5,0.5,1.5,1.3s-0.5,1.4-1.7,1.4C155.2,103.2,154.5,102.8,154.4,102.6z M160,101.6c0,0.3,0.1,0.6,0.5,0.6s0.6-0.2,0.7-0.2
		s0.3,0.6,0.3,0.8c0,0-0.4,0.4-1.2,0.4c-0.9,0-1.4-0.5-1.3-1.3c0-0.4,0.1-2.2,0.1-2.2h-0.7c0,0-0.1-0.8,0-0.9h0.7c0,0,0-1,0.1-1
		c0.1-0.1,1-0.1,1-0.1v1.2c0,0,1.2,0,1.2,0.1c0.1,0.1,0,0.8,0,0.8c-0.1,0.1-1.3,0-1.3,0C160.1,99.7,160,101,160,101.6z M168.1,101
		c0,1.2-0.8,2.1-2.1,2.2c-1.2,0-2.1-0.8-2.1-2.3c0-1.1,0.8-2.1,2.1-2.1C167.1,98.7,168.1,99.5,168.1,101z M166,99.8
		c-0.7,0-1.1,0.5-1.1,1.2c0,0.8,0.5,1.2,1,1.2c0.7,0,1.1-0.4,1.1-1.2C167,100.1,166.5,99.8,166,99.8z M170,98.8c0,0.2,0,0.5,0,0.5
		c0.2-0.3,0.7-0.6,1.3-0.6c0.9,0,1.6,0.7,1.6,1.8c0,0.6,0,2-0.1,2.5c0,0.1-1,0.1-1,0c0,0,0-2.1,0-2.5c0-0.5-0.3-1-0.8-1
		c-0.6,0-0.9,0.4-0.9,0.9c0,0.3,0,2.4,0,2.5h-1c0,0,0-2.3,0-4.1C169,98.8,169.9,98.7,170,98.8z M175.9,102.2c0.5,0,0.9-0.2,1.1-0.4
		c0.1,0.1,0.4,0.6,0.4,0.8c-0.2,0.2-0.8,0.5-1.5,0.5c-1.5,0-2.1-1-2.1-2.1c0-1.2,0.7-2.2,2.1-2.2c1.1,0,1.8,0.8,1.8,1.8
		c0,0.3,0,0.5-0.1,0.6c-0.4,0.1-2.1,0.1-2.7,0C174.8,101.8,175.2,102.2,175.9,102.2z M176.6,100.5c0-0.6-0.3-1-0.8-1
		c-0.6,0-0.9,0.5-0.9,1H176.6z M184.6,100.9c0,1.3-0.8,2.2-2,2.2c-0.6,0-1.1-0.3-1.2-0.5c0,0.6,0,2.3,0,2.3c-0.1,0.1-1,0.1-1.1,0
		c0,0,0-6,0.1-6.2h1c0,0.1,0,0.4,0,0.5c0.1-0.2,0.6-0.6,1.3-0.6C183.8,98.7,184.6,99.5,184.6,100.9z M182.4,99.8
		c-0.7,0-1.1,0.5-1.1,1.1c0,0.8,0.5,1.2,1,1.2c0.7,0,1.1-0.5,1.1-1.2C183.5,100.1,183,99.8,182.4,99.8z M186.6,96.4
		c0.1,0.1-0.1,6-0.1,6.7h-0.9c-0.1-0.1-0.1-6.5,0.1-6.6C185.8,96.4,186.6,96.4,186.6,96.4z M189.2,98.7c1.1,0,1.8,0.7,1.8,1.9
		c0,0.9-0.1,2.3-0.1,2.4s-0.9,0-0.9,0l-0.1-0.4c-0.1,0.1-0.5,0.5-1.2,0.5c-1,0-1.5-0.6-1.5-1.3c0-0.8,0.7-1.3,1.6-1.3
		c0.5,0,0.8,0.1,0.9,0.3c0-0.6-0.1-1.1-0.9-1.1c-0.7,0-0.9,0.4-1,0.5c-0.1,0-0.6-0.4-0.6-0.5C187.6,99.5,188.1,98.7,189.2,98.7z
		 M189.2,102.4c0.5,0,0.8-0.3,0.8-0.6c0-0.4-0.3-0.6-0.8-0.6s-0.8,0.3-0.8,0.7C188.4,102.1,188.7,102.4,189.2,102.4z M194.1,102.2
		c0.5,0,0.9-0.3,1-0.4c0.1,0,0.3,0.4,0.4,0.7c-0.2,0.3-0.8,0.6-1.4,0.6c-1.6,0-2.2-1.1-2.2-2.2s0.8-2.2,2.2-2.2
		c0.9,0,1.5,0.4,1.5,0.5s-0.2,0.9-0.3,0.9s-0.5-0.4-1.1-0.4c-0.7,0-1.1,0.4-1.1,1.2C193,102,193.7,102.2,194.1,102.2z M198.2,102.2
		c0.5,0,0.9-0.2,1.1-0.4c0.1,0.1,0.4,0.6,0.4,0.8c-0.2,0.2-0.8,0.5-1.5,0.5c-1.5,0-2.1-1-2.1-2.1c0-1.2,0.7-2.2,2-2.2
		c1.1,0,1.8,0.8,1.8,1.8c0,0.3,0,0.5-0.1,0.6c-0.4,0.1-2.1,0.1-2.7,0C197,101.8,197.5,102.2,198.2,102.2z M198.8,100.5
		c0-0.6-0.3-1-0.8-1c-0.6,0-0.9,0.5-0.9,1H198.8z"/>
	<path class="st0" d="M174.1,56.2c-0.1,0-0.3-0.1-0.3-0.2c-0.1-0.2,0-0.4,0.2-0.5c1.1-0.6,1.9-1,1.9-1.1c0.2-0.1,0.4-0.1,0.5,0.1
		s0.1,0.4-0.1,0.5c0,0-0.8,0.5-2,1.1C174.2,56.2,174.1,56.2,174.1,56.2z M120.8,62.5c0.7-0.2,1.4-0.4,2-0.7c0.2-0.1,0.3-0.3,0.2-0.5
		c-0.1-0.2-0.3-0.3-0.5-0.2c-0.6,0.2-1.3,0.4-1.9,0.6c-0.3,0.1-0.6,0.1-0.8,0.1c-0.4,0-0.5-0.1-0.5-0.5h-0.4h-0.4
		c0,0.7,0.4,1.2,1.2,1.2C120.1,62.7,120.4,62.6,120.8,62.5z M125.5,60.7c0.7-0.3,1.3-0.7,1.9-1.1c0.6-0.3,1.2-0.7,1.9-1
		c0.2-0.1,0.2-0.3,0.2-0.5c-0.1-0.2-0.3-0.2-0.5-0.2c-0.7,0.4-1.3,0.7-1.9,1c-0.6,0.4-1.3,0.7-1.9,1.1c-0.2,0.1-0.2,0.3-0.2,0.5
		c0.1,0.1,0.2,0.2,0.3,0.2C125.4,60.7,125.5,60.7,125.5,60.7z M63.1,60c0-0.2-0.2-0.4-0.4-0.4h-0.2c-1.4,0-2.8,0-4.2-0.1
		c-0.2,0-0.4,0.2-0.4,0.4c0,0.2,0.2,0.4,0.4,0.4c1.4,0,2.8,0.1,4.2,0.1h0.2C62.9,60.3,63.1,60.2,63.1,60z M65.6,60.3
		c1.5,0,3,0,4.4-0.1c0.2,0,0.4-0.2,0.4-0.4c0-0.2-0.2-0.3-0.4-0.4c-1.4,0-2.8,0.1-4.3,0.1c-0.2,0-0.4,0.2-0.4,0.4
		C65.2,60.2,65.4,60.3,65.6,60.3L65.6,60.3z M55.8,59.8c0-0.2-0.1-0.4-0.3-0.4c-1.5-0.1-2.9-0.2-4.3-0.3c-0.2,0-0.4,0.1-0.4,0.3
		c0,0.2,0.1,0.4,0.3,0.4c1.4,0.1,2.9,0.3,4.4,0.3l0,0C55.7,60.1,55.8,60,55.8,59.8z M72.9,60.1c1.5-0.1,3-0.1,4.4-0.2
		c0.2,0,0.4-0.2,0.3-0.4c0-0.2-0.2-0.4-0.4-0.3c-1.4,0.1-2.9,0.2-4.3,0.2c-0.2,0-0.4,0.2-0.4,0.4S72.7,60.1,72.9,60.1L72.9,60.1z
		 M80.1,59.7c1.5-0.1,2.9-0.3,4.3-0.4c0.2,0,0.3-0.2,0.3-0.4c0-0.2-0.2-0.4-0.4-0.3c-1.4,0.2-2.9,0.3-4.3,0.4
		c-0.2,0-0.4,0.2-0.3,0.4C79.8,59.5,79.9,59.7,80.1,59.7L80.1,59.7z M48.6,59.1c0-0.2-0.1-0.4-0.3-0.4c-1.5-0.2-2.9-0.4-4.3-0.7
		c-0.2,0-0.4,0.1-0.4,0.3c0,0.2,0.1,0.4,0.3,0.4c1.3,0.3,2.8,0.5,4.3,0.7l0,0C48.4,59.5,48.6,59.3,48.6,59.1z M120.3,58.9
		c0.3-0.7,0.7-1.4,1.1-2.2c0.3-0.6,0.6-1.1,0.9-1.7c0.1-0.2,0-0.4-0.2-0.5s-0.4,0-0.5,0.2c-0.3,0.6-0.6,1.1-0.9,1.7
		c-0.4,0.8-0.8,1.5-1.2,2.2c-0.1,0.2,0,0.4,0.2,0.5c0.1,0,0.1,0,0.2,0C120.1,59.1,120.2,59.1,120.3,58.9z M87.4,58.9
		c1.5-0.2,2.9-0.4,4.3-0.7c0.2,0,0.3-0.2,0.3-0.4c0-0.2-0.2-0.3-0.4-0.3c-1.4,0.2-2.8,0.5-4.3,0.7c-0.2,0-0.3,0.2-0.3,0.4
		S87.1,58.9,87.4,58.9C87.3,58.9,87.4,58.9,87.4,58.9z M164.7,58.4c0-0.2-0.1-0.4-0.3-0.4c-1.2-0.1-2.6-0.3-4.2-0.7
		c-0.2-0.1-0.4,0.1-0.4,0.3c0,0.2,0.1,0.4,0.3,0.4c1.7,0.4,3.1,0.6,4.3,0.7l0,0C164.5,58.8,164.7,58.6,164.7,58.4z M167.3,58.7
		c1.3-0.2,2.7-0.6,4.2-1.3c0.2-0.1,0.3-0.3,0.2-0.5s-0.3-0.3-0.5-0.2c-1.5,0.6-2.9,1-4.1,1.2c-0.2,0-0.3,0.2-0.3,0.4
		C166.9,58.6,167.1,58.7,167.3,58.7L167.3,58.7z M94.5,57.6c0.4-0.1,0.8-0.2,1.2-0.3c0.9-0.2,1.9-0.5,3-0.8c0.2-0.1,0.3-0.3,0.2-0.5
		s-0.3-0.3-0.5-0.2c-1.1,0.3-2.1,0.6-3,0.8c-0.4,0.1-0.8,0.2-1.2,0.3c-0.2,0-0.3,0.2-0.3,0.4C94.2,57.5,94.3,57.7,94.5,57.6
		C94.5,57.7,94.5,57.7,94.5,57.6z M131.9,57.3c1.3-0.5,2.6-1,4.1-1.4c0.2-0.1,0.3-0.3,0.3-0.5c-0.1-0.2-0.3-0.3-0.5-0.3
		c-1.5,0.4-2.8,0.9-4.2,1.4c-0.2,0.1-0.3,0.3-0.2,0.5c0.1,0.1,0.2,0.2,0.3,0.2C131.8,57.3,131.9,57.3,131.9,57.3z M157.6,57
		c0.1-0.2-0.1-0.4-0.3-0.5l-1-0.3c-1-0.3-2.1-0.6-3.2-0.9c-0.2-0.1-0.4,0.1-0.4,0.3c-0.1,0.2,0.1,0.4,0.3,0.4
		c1.1,0.3,2.1,0.6,3.2,0.9l1,0.3h0.1C157.4,57.3,157.6,57.2,157.6,57z M101.6,55.6c1.3-0.5,2.7-1,4.1-1.5c0.2-0.1,0.3-0.3,0.2-0.5
		c-0.1-0.2-0.3-0.3-0.5-0.2c-1.4,0.5-2.8,1-4.1,1.5c-0.2,0.1-0.3,0.3-0.2,0.5c0.1,0.2,0.2,0.2,0.3,0.2
		C101.5,55.6,101.5,55.6,101.6,55.6z M150.6,55.2c0-0.2-0.1-0.4-0.3-0.4c-1.6-0.3-3-0.5-4.3-0.6c-0.2,0-0.4,0.1-0.4,0.3
		c0,0.2,0.1,0.4,0.3,0.4c1.3,0.1,2.7,0.3,4.3,0.6h0.1C150.4,55.5,150.6,55.4,150.6,55.2z M138.8,55.3l0.4-0.1
		c1.2-0.2,2.5-0.4,3.8-0.4c0.2,0,0.4-0.2,0.4-0.4c0-0.2-0.2-0.4-0.4-0.4c-1.3,0-2.7,0.2-3.9,0.4l-0.5,0.1c-0.2,0-0.3,0.2-0.3,0.4
		C138.4,55.1,138.5,55.3,138.8,55.3C138.7,55.3,138.8,55.3,138.8,55.3z M108.4,53.1c1.1-0.4,2.6-1,4.1-1.5c0.2-0.1,0.3-0.3,0.2-0.5
		c-0.1-0.2-0.3-0.3-0.5-0.2c-1.5,0.5-3,1.1-4.1,1.5c-0.2,0.1-0.3,0.3-0.2,0.5c0.1,0.1,0.2,0.2,0.3,0.2
		C108.3,53.1,108.3,53.1,108.4,53.1z M123.6,52.4c0.3-0.8,0.5-1.5,0.5-2.1c0-1.1-0.7-1.7-1.8-1.8c-0.2,0-0.4,0.1-0.4,0.3
		c0,0.2,0.1,0.4,0.3,0.4c0.8,0,1.1,0.4,1.1,1.1c0,0.5-0.1,1.1-0.4,1.8c-0.1,0.2,0,0.4,0.2,0.5h0.1C123.4,52.6,123.5,52.6,123.6,52.4
		z M115.2,50.7c1.6-0.5,2.9-0.8,4.2-1.1c0.2,0,0.3-0.2,0.3-0.4c0-0.2-0.2-0.3-0.4-0.3c-1.3,0.3-2.7,0.6-4.3,1.1
		c-0.2,0.1-0.3,0.3-0.2,0.5c0,0.2,0.2,0.3,0.4,0.3C115.1,50.7,115.2,50.7,115.2,50.7z M41.4,57.8c0.1-0.2-0.1-0.4-0.3-0.5
		c-1.4-0.4-2.1-0.7-2.1-0.7c-0.2-0.1-0.4,0-0.5,0.2s0,0.4,0.2,0.5c0,0,0.7,0.3,2.1,0.7h0.1C41.2,58.1,41.4,58,41.4,57.8z"/>
	<g>
		<path class="st0" d="M150.3,60.4c-0.4,0.2-1.2-1.1-1.2-1.1s-0.1-0.1-0.2-0.1h-1.8c-0.2,0-0.3-0.3-0.1-0.4l2.6-2.3
			c0.1-0.1,0.3,0,0.4,0.1C150,56.8,151.2,60,150.3,60.4z"/>
		<path class="st0" d="M149.5,49.5c0.3-0.3,1.4,0.9,1.4,0.9s0.1,0,0.2,0l1.8-0.3c0.2,0,0.3,0.2,0.2,0.4l-2.1,2.7
			c-0.1,0.1-0.3,0.1-0.4-0.1C150.5,53.1,148.7,50.1,149.5,49.5z"/>
	</g>
	<g>
		<path class="st0" d="M170.6,62.9c-0.2,0.3-1.5-0.3-1.5-0.3c-0.1,0-0.1,0-0.2,0l-1.3,1c-0.2,0.1-0.4,0-0.3-0.2l0.8-3.2
			c0-0.2,0.3-0.2,0.4-0.1C168.4,60.2,171,62.2,170.6,62.9z"/>
		<path class="st0" d="M164.4,54.3c0.2-0.4,1.6,0.1,1.6,0.1c0.1,0,0.1,0,0.2-0.1l1.2-1.1c0.2-0.1,0.4,0,0.4,0.2l-0.4,3.2
			c0,0.2-0.2,0.3-0.4,0.1C166.9,56.8,164,55.1,164.4,54.3z"/>
	</g>
	<g>
		<path class="st0" d="M192.4,26.8c0,0,1.1,1.4,1.6,2.1c0.4,0.6,1,1.5,1.7,2.5c0.7,0.9,1.5,1.8,2.2,2.6c1.2,1.5,1.4,2,1.9,2.6
			c0.1,0.1,0.1,0.2,0,0.3c-0.7,0.5-1.6,1.3-2.8,2.1c-0.9,0.6-1.4,0.9-1.7,1.2c-1.2,0.9-0.6,0.6-2.6,2.1c-1.9,1.4-2.1,1.4-4.1,2.8
			c-1.5,1-3.2,2-4.6,3.3c-2.1,1.8-4,2.9-4.2,3c-0.4,0.2-0.9,0-0.8-0.3c0-0.4,1-1.6,2.7-4.7c1-1.8,2-3.8,3-5.8
			c0.8-1.5,1.8-3.1,2.6-4.5c1.2-2.2,1.9-4.1,2.6-5.4c0.6-1.1,2.1-4.1,2.1-4.1C191.8,26.5,192.3,26.6,192.4,26.8z"/>
		<path class="st0" d="M208.7,50.2c0,0-4,0.4-5.2,0.5c-2.4,0.1-3.5,0.4-5.9,0.8c-1.6,0.2-3.3,0.5-5,0.6c-2.3,0.1-4.7,0.6-6.6,0.8
			c-3.4,0.4-4.5,0.6-4.9,0.6s-0.4-0.2-0.1-0.5c0.3-0.3,3.6-2.8,7.4-5.2c2.1-1.3,3.6-2.6,5.5-4c2.1-1.5,1.6-1,2.6-1.9
			c0.3-0.3,1.4-1,2.2-1.5c1.2-0.8,1.6-1.2,2.1-1.6c0.1-0.1,0.4-0.1,0.5,0c0.5,0.6,0.9,0.9,1.9,2.6c0.6,0.9,1.4,2,2,3
			c0.7,1.1,1.2,1.9,1.6,2.6c0.4,0.7,1.9,2.5,1.9,2.5C209,49.6,209,50.1,208.7,50.2z"/>
		<path class="st0" d="M212.6,29.6c0,0-1.2,1.2-3.2,2.4c-1.8,1.1-3.3,2.7-4.6,3.3c-0.7,0.3-1.7,1.3-2.3,1.7
			c-0.1,0.1-0.2,0.3-0.1,0.4c0.5,0.7,0.8,1.2,1.9,2.7c1.1,1.4,2.3,3.2,2.8,4.1c0.7,1.1,2.8,4,2.8,4c0.1,0.2,0.5,0.3,0.5,0.1
			c0,0,0.1-1.2,0.3-3c0.1-0.8,0.3-1.7,0.4-2.6c0.1-0.5,0-1,0.1-1.5c0.1-1.1,0.2-2.1,0.4-3.2c0.2-0.8,0.3-1.6,0.4-2.3
			c0.1-0.8,0.4-3.2,0.5-3.7c0.2-1,0.4-2.3,0.4-2.3C213.2,29.4,212.8,29.4,212.6,29.6z"/>
		<path class="st0" d="M193.9,25.4c0,0,0.2,0.2,0.5,0.7c0.5,0.9,1.6,2.1,1.8,2.7c0.3,0.8,1.2,2.2,2.3,3.4c1.4,1.7,1.8,2.3,2.2,3.2
			c0.1,0.2,0.4,0.3,0.5,0.1c0.4-0.3,1.2-0.9,1.7-1.3c0.7-0.5,1.9-1.6,3.3-2.4c1.5-0.8,2.8-2.2,3.8-2.8c0.9-0.5,1.2-1,1.2-1
			c0.2-0.1,0.1-0.5-0.1-0.5c0,0-3.5-0.4-6.9-1.2c-2.3-0.5-4.7-0.7-6.1-0.8c-1-0.1-4-0.6-4-0.6C193.8,24.9,193.8,25.3,193.9,25.4z"/>
	</g>
</g>
<g>
	<path class="st0" d="M222.4,72.2c0.4,0.4,0.8,0.6,1.3,0.9c0.5,0.2,1,0.3,1.5,0.3c0.4,0,0.7,0,1-0.1s0.7-0.2,0.9-0.4
		c0.3-0.2,0.6-0.4,0.8-0.6s0.4-0.5,0.6-0.8c0.2-0.3,0.3-0.6,0.4-1c0.1-0.3,0.1-0.7,0.1-1.1s-0.1-0.7-0.1-1c-0.1-0.3-0.2-0.7-0.4-0.9
		c-0.2-0.3-0.4-0.6-0.6-0.8c-0.2-0.2-0.5-0.5-0.8-0.6c-0.3-0.2-0.6-0.3-0.9-0.4c-0.3-0.1-0.7-0.1-1-0.1c-0.5,0-1.1,0.1-1.5,0.3
		c-0.5,0.2-0.9,0.5-1.3,0.9c-0.4,0.4-0.7,0.8-0.9,1.3s-0.3,1-0.3,1.5c0,0.6,0.1,1.1,0.3,1.6C221.7,71.4,222,71.8,222.4,72.2z
		 M222.2,68.1c0.2-0.4,0.4-0.7,0.7-1s0.6-0.5,1-0.7s0.8-0.3,1.2-0.3s0.8,0.1,1.2,0.3c0.4,0.2,0.7,0.4,1,0.7c0.3,0.3,0.5,0.6,0.7,1
		s0.2,0.8,0.2,1.2c0,0.4-0.1,0.8-0.3,1.2c-0.2,0.4-0.4,0.7-0.7,1s-0.6,0.5-1,0.7s-0.8,0.3-1.2,0.3s-0.8-0.1-1.2-0.3
		c-0.4-0.2-0.7-0.4-1-0.7c-0.3-0.3-0.5-0.6-0.7-1s-0.3-0.8-0.3-1.2C222,68.9,222.1,68.5,222.2,68.1z"/>
	<path class="st0" d="M224.2,69.8h0.4c0.3,0,0.5,0.1,0.6,0.2c0.2,0.1,0.3,0.3,0.4,0.6l0.3,1h1l-0.5-1.2c-0.1-0.3-0.3-0.6-0.6-0.7
		c0.6-0.1,0.9-0.6,0.9-1.2c0-0.8-0.6-1.2-1.7-1.2h-1.7v4.4h0.8L224.2,69.8L224.2,69.8z M224.2,68h0.7c0.6,0,0.9,0.2,0.9,0.6
		s-0.3,0.6-0.9,0.6h-0.8L224.2,68L224.2,68z"/>
</g>
</svg>
