<?xml version="1.0" encoding="utf-8"?>
<!-- Generator: Adobe Illustrator 19.0.0, SVG Export Plug-In . SVG Version: 6.00 Build 0)  -->
<svg version="1.1" id="Layer_1" xmlns="http://www.w3.org/2000/svg" xmlns:xlink="http://www.w3.org/1999/xlink" x="0px" y="0px"
	 viewBox="0 0 103.7 44.2" style="enable-background:new 0 0 103.7 44.2;" xml:space="preserve">
<style type="text/css">
	.st0{fill:#FFFFFF;}
</style>
<g id="XMLID_3_">
	<g id="Logo_15_">
		<path id="txt_1_" class="st0" d="M12.3,11.9c0.4,0,0.8,0.3,0.8,0.8v11.9c0,0.4-0.3,0.8-0.8,0.8s-0.8-0.3-0.8-0.8V12.7
			C11.5,12.2,11.9,11.9,12.3,11.9z M26.8,25.3c-0.4,0-0.8-0.3-0.8-0.8c0,0,0-4.2,0-7.8c0-2.6,1.8-4.8,5.3-4.8c3.4,0,5.3,2.3,5.3,4.8
			c0,3.6,0,7.8,0,7.8c0,0.4-0.3,0.8-0.8,0.8s-0.8-0.3-0.8-0.8c0,0,0-4.5,0-7.7c0-1.4-0.9-3.3-3.7-3.3s-3.7,1.9-3.8,3.4
			c0,3.2,0,7.7,0,7.7C27.5,24.9,27.2,25.3,26.8,25.3z M47.3,25.3c-3.7,0-6.7-3-6.7-6.7c0-3.7,3-6.7,6.7-6.7c3.7,0,6.7,3,6.7,6.7
			C54,22.3,51,25.3,47.3,25.3z M47.3,13.5c-2.8,0-5.1,2.3-5.1,5.1c0,2.8,2.3,5.1,5.1,5.1c2.8,0,5.1-2.3,5.1-5.1
			C52.4,15.8,50.1,13.5,47.3,13.5z M58.7,8.3c0.4,0,0.8,0.3,0.8,0.8v15.5c0,0.4-0.3,0.8-0.8,0.8c-0.4,0-0.8-0.3-0.8-0.8V9
			C57.9,8.6,58.3,8.3,58.7,8.3z M74.9,13.2L70,19.1v5.4c0,0.4-0.3,0.8-0.8,0.8s-0.8-0.3-0.8-0.8v-5.4l-4.8-5.9
			c-0.3-0.3-0.2-0.8,0.1-1.1c0.3-0.3,0.8-0.2,1.1,0.1l4.4,5.4l4.4-5.4c0.3-0.3,0.8-0.4,1.1-0.1C75.1,12.4,75.1,12.9,74.9,13.2z
			 M90,13.1l-4.4,5.6L90,24c0.3,0.3,0.2,0.8-0.1,1.1c-0.3,0.3-0.8,0.2-1.1-0.1l-4.2-5.1L80.4,25c-0.3,0.3-0.8,0.4-1.1,0.1
			C79,24.8,79,24.3,79.3,24l4.4-5.3l-4.4-5.6c-0.3-0.3-0.2-0.8,0.1-1.1c0.3-0.3,0.8-0.2,1.1,0.1l4.2,5.3l4.2-5.3
			c0.3-0.3,0.8-0.4,1.1-0.1C90.3,12.4,90.3,12.8,90,13.1z"/>
		<path id="XMLID_47_" class="st0" d="M16.2,18.8l-0.7,0.6c-0.2,0.2-0.5,0.3-0.7,0.3l5.8,5.3c0.3,0.3,0.8,0.3,1.1,0
			c0.3-0.3,0.3-0.8,0-1.1L16.2,18.8z"/>
		<path id="XMLID_46_" class="st0" d="M21.8,12.2c0.3,0.3,0.3,0.8,0,1.1l-6.3,5.9c-0.3,0.3-0.8,0.3-1.1,0c-0.3-0.3-0.6-0.6-0.6-0.6
			l6.9-6.4C21,11.9,21.5,11.9,21.8,12.2z"/>
	</g>
	<g id="slogan_1_">
		<path id="XMLID_43_" class="st0" d="M68.2,31.2c-0.7,0-1.5,0.3-1.5,0.6c0,0.2,0.1,0.4,0.3,0.4c0.2,0,0.5-0.3,1.2-0.3
			c1,0,1.3,0.2,1.3,0.9v0.2h-0.6c-1.6,0-2.6,0.3-2.6,1.5c0,1,0.7,1.5,1.5,1.5c0.8,0,1.3-0.4,1.7-0.9v0.5c0,0.2,0.1,0.3,0.3,0.3
			s0.3-0.1,0.3-0.3v-2.8C70.2,31.6,69.6,31.2,68.2,31.2z M69.5,34.1c0,0.5-0.8,1.2-1.5,1.2c-0.6,0-1-0.3-1-0.9c0-0.9,0.9-1,2-1h0.5
			L69.5,34.1L69.5,34.1z"/>
		<path id="XMLID_42_" class="st0" d="M74.4,31.9c0.1,0,0.3-0.1,0.3-0.3c0-0.2-0.1-0.3-0.3-0.3h-0.4c-0.7,0-1,0.4-1.2,0.8v-0.5
			c0-0.1-0.1-0.3-0.3-0.3c-0.2,0-0.3,0.1-0.3,0.3v4.2c0,0.1,0.1,0.3,0.3,0.3c0.2,0,0.4-0.1,0.4-0.3v-2.2c0-1,0.5-1.6,1.2-1.6
			L74.4,31.9L74.4,31.9z"/>
		<path id="XMLID_41_" class="st0" d="M77.1,33.3c0-0.9,0.7-1.4,1.3-1.4c0.8,0,1.4,0.7,1.4,1.4v2.4c0,0.2,0.2,0.3,0.3,0.3
			c0.2,0,0.4-0.1,0.4-0.3v-2.4c0-1.1-0.9-2.1-2-2.1c-0.8,0-1.2,0.4-1.5,0.8v-0.5c0-0.2-0.1-0.3-0.3-0.3c-0.2,0-0.3,0.1-0.3,0.3v4.1
			c0,0.1,0.1,0.3,0.3,0.3c0.2,0,0.4-0.1,0.4-0.3L77.1,33.3L77.1,33.3z"/>
		<path id="XMLID_40_" class="st0" d="M29.6,35.9c1.1,0,2.1-1,2.1-2.1v-2.4c0-0.1-0.1-0.3-0.3-0.3S31,31.3,31,31.5v2.4
			c0,0.7-0.6,1.4-1.4,1.4c-0.8,0-1.4-0.7-1.4-1.4v-2.4c0-0.1-0.2-0.3-0.3-0.3c-0.2,0-0.4,0.1-0.4,0.3v2.4
			C27.5,34.9,28.4,35.9,29.6,35.9z"/>
		<path id="XMLID_39_" class="st0" d="M34,29.6c-0.3,0-0.5,0.2-0.5,0.5c0,0.2,0.2,0.5,0.5,0.5c0.3,0,0.5-0.2,0.5-0.5
			C34.5,29.8,34.3,29.6,34,29.6z"/>
		<path id="XMLID_36_" class="st0" d="M34,31.2c-0.2,0-0.3,0.1-0.3,0.3v4.2c0,0.1,0.1,0.3,0.3,0.3c0.2,0,0.4-0.1,0.4-0.3v-4.2
			C34.3,31.3,34.2,31.2,34,31.2z M34,29.8c-0.2,0-0.4,0.2-0.4,0.3c0,0.2,0.2,0.3,0.4,0.3c0.2,0,0.3-0.2,0.3-0.3
			C34.4,30,34.2,29.8,34,29.8z"/>
		<path id="XMLID_35_" class="st0" d="M36.8,29.3c-0.2,0-0.3,0.1-0.3,0.3v6.1c0,0.1,0.1,0.3,0.3,0.3s0.4-0.1,0.4-0.3v-6.1
			C37.1,29.4,37,29.3,36.8,29.3z"/>
		<path id="XMLID_34_" class="st0" d="M58.6,29.3c-0.2,0-0.3,0.1-0.3,0.3v6.1c0,0.1,0.1,0.3,0.3,0.3c0.2,0,0.4-0.1,0.4-0.3v-6.1
			C59,29.4,58.8,29.3,58.6,29.3z"/>
		<path id="XMLID_33_" class="st0" d="M39.9,31.9h1.4c0.1,0,0.2-0.1,0.2-0.3c0-0.1-0.1-0.3-0.2-0.3h-1.4v-1.7c0-0.1-0.2-0.3-0.4-0.3
			c-0.2,0-0.3,0.1-0.3,0.3v4.8c0,1.1,0.6,1.6,1.8,1.6h0.3c0.2,0,0.3-0.2,0.3-0.3c0-0.2-0.1-0.3-0.3-0.3h-0.3c-0.8,0-1-0.2-1-1V31.9z
			"/>
		<path id="XMLID_32_" class="st0" d="M46.5,31.9h1.4c0.1,0,0.2-0.1,0.2-0.3c0-0.1-0.1-0.3-0.2-0.3h-1.4v-1.7c0-0.1-0.2-0.3-0.4-0.3
			c-0.2,0-0.3,0.1-0.3,0.3v4.8c0,1.1,0.6,1.6,1.8,1.6h0.3c0.2,0,0.3-0.2,0.3-0.3c0-0.2-0.1-0.3-0.3-0.3h-0.3c-0.8,0-1-0.2-1-1V31.9z
			"/>
		<path id="XMLID_29_" class="st0" d="M51.6,31.2c-1.2,0-2.3,1-2.3,2.4s1,2.4,2.3,2.4c1.2,0,2.3-1,2.3-2.4
			C53.9,32.3,52.9,31.2,51.6,31.2z M51.6,35.2c-0.9,0-1.6-0.7-1.6-1.6c0-0.9,0.7-1.6,1.6-1.6s1.6,0.7,1.6,1.6
			C53.2,34.5,52.5,35.2,51.6,35.2z"/>
		<path id="XMLID_26_" class="st0" d="M23.5,31.2c-0.6,0-1.1,0.2-1.6,0.7v-2.3c0-0.1-0.1-0.3-0.4-0.3c-0.2,0-0.3,0.1-0.3,0.3v6.1
			c0,0.1,0.1,0.3,0.3,0.3c0.2,0,0.4-0.1,0.4-0.3v-0.4c0.4,0.4,1,0.7,1.6,0.7c1.2,0,2.3-1,2.3-2.4S24.7,31.2,23.5,31.2z M23.5,35.2
			c-0.9,0-1.6-0.7-1.6-1.6c0-0.9,0.7-1.6,1.6-1.6c0.9,0,1.6,0.7,1.6,1.6C25.1,34.5,24.4,35.2,23.5,35.2z"/>
		<path id="XMLID_23_" class="st0" d="M65,33.2c0,0.9-0.5,0.9-1,0.9c0,0-2.2,0-2.5,0c0,0.7,0.7,1.2,1.7,1.2c0.9,0,1.1-0.5,1.4-0.5
			c0.2,0,0.3,0.2,0.3,0.3c0,0.3-0.6,0.7-1.7,0.7c-1.4,0-2.4-0.8-2.4-2.1v-0.6c0-1.1,1-2,2.1-2C64,31.2,65,32.1,65,33.2z M63.7,33.6
			c0.5,0,0.6-0.1,0.6-0.4c0-0.7-0.6-1.4-1.4-1.4c-0.8,0-1.4,0.6-1.4,1.4v0.4H63.7z"/>
	</g>
	<g id="XMLID_4_">
		<path id="XMLID_8_" class="st0" d="M92.3,11c0.1,0.1,0.3,0.3,0.5,0.3c0.2,0.1,0.4,0.1,0.6,0.1c0.1,0,0.3,0,0.4-0.1
			c0.1,0,0.3-0.1,0.4-0.2c0.1-0.1,0.2-0.2,0.3-0.2c0.1-0.1,0.2-0.2,0.2-0.3c0.1-0.1,0.1-0.2,0.2-0.4c0-0.1,0.1-0.3,0.1-0.4
			c0-0.1,0-0.3-0.1-0.4c0-0.1-0.1-0.3-0.2-0.4c-0.1-0.1-0.2-0.2-0.2-0.3c-0.1-0.1-0.2-0.2-0.3-0.2S94,8.3,93.9,8.3s-0.3-0.1-0.4-0.1
			c-0.2,0-0.4,0-0.6,0.1c-0.2,0.1-0.4,0.2-0.5,0.3C92.2,8.8,92.1,9,92,9.2c-0.1,0.2-0.1,0.4-0.1,0.6c0,0.2,0,0.5,0.1,0.6
			C92.1,10.7,92.2,10.9,92.3,11z M92.3,9.4c0.1-0.2,0.2-0.3,0.3-0.4c0.1-0.1,0.2-0.2,0.4-0.3c0.2-0.1,0.3-0.1,0.5-0.1
			c0.2,0,0.3,0,0.5,0.1c0.2,0.1,0.3,0.2,0.4,0.3c0.1,0.1,0.2,0.2,0.3,0.4c0.1,0.2,0.1,0.3,0.1,0.5c0,0.2,0,0.3-0.1,0.5
			s-0.2,0.3-0.3,0.4S94.2,11,94,11.1c-0.1,0.1-0.3,0.1-0.5,0.1c-0.2,0-0.3,0-0.5-0.1c-0.2-0.1-0.3-0.2-0.4-0.3s-0.2-0.2-0.3-0.4
			c-0.1-0.2-0.1-0.3-0.1-0.5C92.2,9.7,92.2,9.5,92.3,9.4z"/>
		<path id="XMLID_5_" class="st0" d="M93.1,10.1h0.2c0.1,0,0.2,0,0.3,0.1c0.1,0.1,0.1,0.1,0.2,0.2l0.1,0.4h0.4L94,10.3
			c-0.1-0.1-0.1-0.2-0.2-0.3c0.2-0.1,0.3-0.2,0.3-0.5c0-0.3-0.2-0.5-0.7-0.5h-0.7v1.8h0.3L93.1,10.1L93.1,10.1z M93.1,9.3h0.3
			c0.2,0,0.4,0.1,0.4,0.2c0,0.1-0.1,0.2-0.4,0.2h-0.3V9.3L93.1,9.3z"/>
	</g>
</g>
</svg>
