<?xml version="1.0" encoding="utf-8"?>
<!-- Generator: Adobe Illustrator 19.0.0, SVG Export Plug-In . SVG Version: 6.00 Build 0)  -->
<svg version="1.1" id="Layer_1" xmlns="http://www.w3.org/2000/svg" xmlns:xlink="http://www.w3.org/1999/xlink" x="0px" y="0px"
	 viewBox="-11 42.8 103.7 44.2" style="enable-background:new -11 42.8 103.7 44.2;" xml:space="preserve">
<style type="text/css">
	.st0{fill:#FFFFFF;}
	.st1{fill:#EABA25;}
</style>
<g id="XMLID_3_">
	<g id="Logo_15_">
		<path id="txt_1_" class="st0" d="M1.3,54.7c0.4,0,0.8,0.3,0.8,0.8v11.9c0,0.4-0.3,0.8-0.8,0.8s-0.8-0.3-0.8-0.8V55.5
			C0.5,55,0.9,54.7,1.3,54.7z M15.8,68.1c-0.4,0-0.8-0.3-0.8-0.8c0,0,0-4.2,0-7.8c0-2.6,1.8-4.8,5.3-4.8c3.4,0,5.3,2.3,5.3,4.8
			c0,3.6,0,7.8,0,7.8c0,0.4-0.3,0.8-0.8,0.8S24,67.8,24,67.3c0,0,0-4.5,0-7.7c0-1.4-0.9-3.3-3.7-3.3s-3.7,1.9-3.8,3.4
			c0,3.2,0,7.7,0,7.7C16.5,67.7,16.2,68.1,15.8,68.1z M36.3,68.1c-3.7,0-6.7-3-6.7-6.7s3-6.7,6.7-6.7s6.7,3,6.7,6.7
			S40,68.1,36.3,68.1z M36.3,56.3c-2.8,0-5.1,2.3-5.1,5.1c0,2.8,2.3,5.1,5.1,5.1s5.1-2.3,5.1-5.1C41.4,58.6,39.1,56.3,36.3,56.3z
			 M47.7,51.1c0.4,0,0.8,0.3,0.8,0.8v15.5c0,0.4-0.3,0.8-0.8,0.8c-0.4,0-0.8-0.3-0.8-0.8V51.8C46.9,51.4,47.3,51.1,47.7,51.1z
			 M63.9,56L59,61.9v5.4c0,0.4-0.3,0.8-0.8,0.8s-0.8-0.3-0.8-0.8v-5.4L52.6,56c-0.3-0.3-0.2-0.8,0.1-1.1c0.3-0.3,0.8-0.2,1.1,0.1
			l4.4,5.4l4.4-5.4c0.3-0.3,0.8-0.4,1.1-0.1C64.1,55.2,64.1,55.7,63.9,56z M79,55.9l-4.4,5.6l4.4,5.3c0.3,0.3,0.2,0.8-0.1,1.1
			c-0.3,0.3-0.8,0.2-1.1-0.1l-4.2-5.1l-4.2,5.1c-0.3,0.3-0.8,0.4-1.1,0.1c-0.3-0.3-0.3-0.8,0-1.1l4.4-5.3l-4.4-5.6
			c-0.3-0.3-0.2-0.8,0.1-1.1c0.3-0.3,0.8-0.2,1.1,0.1l4.2,5.3l4.2-5.3c0.3-0.3,0.8-0.4,1.1-0.1C79.3,55.2,79.3,55.6,79,55.9z"/>
		<path id="XMLID_47_" class="st1" d="M5.2,61.6l-0.7,0.6c-0.2,0.2-0.5,0.3-0.7,0.3l5.8,5.3c0.3,0.3,0.8,0.3,1.1,0
			c0.3-0.3,0.3-0.8,0-1.1L5.2,61.6z"/>
		<path id="XMLID_46_" class="st1" d="M10.8,55c0.3,0.3,0.3,0.8,0,1.1L4.5,62c-0.3,0.3-0.8,0.3-1.1,0s-0.6-0.6-0.6-0.6L9.7,55
			C10,54.7,10.5,54.7,10.8,55z"/>
	</g>
	<g id="slogan_1_">
		<path id="XMLID_43_" class="st0" d="M57.2,74c-0.7,0-1.5,0.3-1.5,0.6c0,0.2,0.1,0.4,0.3,0.4c0.2,0,0.5-0.3,1.2-0.3
			c1,0,1.3,0.2,1.3,0.9v0.2h-0.6c-1.6,0-2.6,0.3-2.6,1.5c0,1,0.7,1.5,1.5,1.5s1.3-0.4,1.7-0.9v0.5c0,0.2,0.1,0.3,0.3,0.3
			s0.3-0.1,0.3-0.3v-2.8C59.2,74.4,58.6,74,57.2,74z M58.5,76.9c0,0.5-0.8,1.2-1.5,1.2c-0.6,0-1-0.3-1-0.9c0-0.9,0.9-1,2-1h0.5V76.9
			L58.5,76.9z"/>
		<path id="XMLID_42_" class="st0" d="M63.4,74.7c0.1,0,0.3-0.1,0.3-0.3c0-0.2-0.1-0.3-0.3-0.3H63c-0.7,0-1,0.4-1.2,0.8v-0.5
			c0-0.1-0.1-0.3-0.3-0.3c-0.2,0-0.3,0.1-0.3,0.3v4.2c0,0.1,0.1,0.3,0.3,0.3c0.2,0,0.4-0.1,0.4-0.3v-2.2c0-1,0.5-1.6,1.2-1.6
			L63.4,74.7L63.4,74.7z"/>
		<path id="XMLID_41_" class="st0" d="M66.1,76.1c0-0.9,0.7-1.4,1.3-1.4c0.8,0,1.4,0.7,1.4,1.4v2.4c0,0.2,0.2,0.3,0.3,0.3
			c0.2,0,0.4-0.1,0.4-0.3v-2.4c0-1.1-0.9-2.1-2-2.1c-0.8,0-1.2,0.4-1.5,0.8v-0.5c0-0.2-0.1-0.3-0.3-0.3c-0.2,0-0.3,0.1-0.3,0.3v4.1
			c0,0.1,0.1,0.3,0.3,0.3c0.2,0,0.4-0.1,0.4-0.3L66.1,76.1L66.1,76.1z"/>
		<path id="XMLID_40_" class="st0" d="M18.6,78.7c1.1,0,2.1-1,2.1-2.1v-2.4c0-0.1-0.1-0.3-0.3-0.3S20,74.1,20,74.3v2.4
			c0,0.7-0.6,1.4-1.4,1.4s-1.4-0.7-1.4-1.4v-2.4c0-0.1-0.2-0.3-0.3-0.3c-0.2,0-0.4,0.1-0.4,0.3v2.4C16.5,77.7,17.4,78.7,18.6,78.7z"
			/>
		<path id="XMLID_39_" class="st0" d="M23,72.4c-0.3,0-0.5,0.2-0.5,0.5c0,0.2,0.2,0.5,0.5,0.5s0.5-0.2,0.5-0.5
			C23.5,72.6,23.3,72.4,23,72.4z"/>
		<path id="XMLID_36_" class="st0" d="M23,74c-0.2,0-0.3,0.1-0.3,0.3v4.2c0,0.1,0.1,0.3,0.3,0.3s0.4-0.1,0.4-0.3v-4.2
			C23.3,74.1,23.2,74,23,74z M23,72.6c-0.2,0-0.4,0.2-0.4,0.3c0,0.2,0.2,0.3,0.4,0.3s0.3-0.2,0.3-0.3C23.4,72.8,23.2,72.6,23,72.6z"
			/>
		<path id="XMLID_35_" class="st0" d="M25.8,72.1c-0.2,0-0.3,0.1-0.3,0.3v6.1c0,0.1,0.1,0.3,0.3,0.3s0.4-0.1,0.4-0.3v-6.1
			C26.1,72.2,26,72.1,25.8,72.1z"/>
		<path id="XMLID_34_" class="st0" d="M47.6,72.1c-0.2,0-0.3,0.1-0.3,0.3v6.1c0,0.1,0.1,0.3,0.3,0.3s0.4-0.1,0.4-0.3v-6.1
			C48,72.2,47.8,72.1,47.6,72.1z"/>
		<path id="XMLID_33_" class="st0" d="M28.9,74.7h1.4c0.1,0,0.2-0.1,0.2-0.3c0-0.1-0.1-0.3-0.2-0.3h-1.4v-1.7c0-0.1-0.2-0.3-0.4-0.3
			s-0.3,0.1-0.3,0.3v4.8c0,1.1,0.6,1.6,1.8,1.6h0.3c0.2,0,0.3-0.2,0.3-0.3c0-0.2-0.1-0.3-0.3-0.3H30c-0.8,0-1-0.2-1-1L28.9,74.7
			L28.9,74.7z"/>
		<path id="XMLID_32_" class="st0" d="M35.5,74.7h1.4c0.1,0,0.2-0.1,0.2-0.3c0-0.1-0.1-0.3-0.2-0.3h-1.4v-1.7c0-0.1-0.2-0.3-0.4-0.3
			s-0.3,0.1-0.3,0.3v4.8c0,1.1,0.6,1.6,1.8,1.6h0.3c0.2,0,0.3-0.2,0.3-0.3c0-0.2-0.1-0.3-0.3-0.3h-0.3c-0.8,0-1-0.2-1-1L35.5,74.7
			L35.5,74.7z"/>
		<path id="XMLID_29_" class="st0" d="M40.6,74c-1.2,0-2.3,1-2.3,2.4s1,2.4,2.3,2.4c1.2,0,2.3-1,2.3-2.4C42.9,75.1,41.9,74,40.6,74z
			 M40.6,78c-0.9,0-1.6-0.7-1.6-1.6s0.7-1.6,1.6-1.6s1.6,0.7,1.6,1.6C42.2,77.3,41.5,78,40.6,78z"/>
		<path id="XMLID_26_" class="st0" d="M12.5,74c-0.6,0-1.1,0.2-1.6,0.7v-2.3c0-0.1-0.1-0.3-0.4-0.3c-0.2,0-0.3,0.1-0.3,0.3v6.1
			c0,0.1,0.1,0.3,0.3,0.3c0.2,0,0.4-0.1,0.4-0.3v-0.4c0.4,0.4,1,0.7,1.6,0.7c1.2,0,2.3-1,2.3-2.4C14.8,75,13.7,74,12.5,74z M12.5,78
			c-0.9,0-1.6-0.7-1.6-1.6s0.7-1.6,1.6-1.6s1.6,0.7,1.6,1.6S13.4,78,12.5,78z"/>
		<path id="XMLID_23_" class="st0" d="M54,76c0,0.9-0.5,0.9-1,0.9c0,0-2.2,0-2.5,0c0,0.7,0.7,1.2,1.7,1.2c0.9,0,1.1-0.5,1.4-0.5
			c0.2,0,0.3,0.2,0.3,0.3c0,0.3-0.6,0.7-1.7,0.7c-1.4,0-2.4-0.8-2.4-2.1v-0.6c0-1.1,1-2,2.1-2C53,74,54,74.9,54,76z M52.7,76.4
			c0.5,0,0.6-0.1,0.6-0.4c0-0.7-0.6-1.4-1.4-1.4c-0.8,0-1.4,0.6-1.4,1.4v0.4H52.7z"/>
	</g>
	<g id="XMLID_4_">
		<path id="XMLID_8_" class="st0" d="M81.3,53.8c0.1,0.1,0.3,0.3,0.5,0.3c0.2,0.1,0.4,0.1,0.6,0.1c0.1,0,0.3,0,0.4-0.1
			c0.1,0,0.3-0.1,0.4-0.2c0.1-0.1,0.2-0.2,0.3-0.2c0.1-0.1,0.2-0.2,0.2-0.3c0.1-0.1,0.1-0.2,0.2-0.4c0-0.1,0.1-0.3,0.1-0.4
			c0-0.1,0-0.3-0.1-0.4c0-0.1-0.1-0.3-0.2-0.4c-0.1-0.1-0.2-0.2-0.2-0.3c-0.1-0.1-0.2-0.2-0.3-0.2s-0.2-0.2-0.3-0.2S82.6,51,82.5,51
			c-0.2,0-0.4,0-0.6,0.1c-0.2,0.1-0.4,0.2-0.5,0.3c-0.2,0.2-0.3,0.4-0.4,0.6c-0.1,0.2-0.1,0.4-0.1,0.6s0,0.5,0.1,0.6
			C81.1,53.5,81.2,53.7,81.3,53.8z M81.3,52.2c0.1-0.2,0.2-0.3,0.3-0.4c0.1-0.1,0.2-0.2,0.4-0.3c0.2-0.1,0.3-0.1,0.5-0.1
			s0.3,0,0.5,0.1c0.2,0.1,0.3,0.2,0.4,0.3s0.2,0.2,0.3,0.4c0.1,0.2,0.1,0.3,0.1,0.5c0,0.2,0,0.3-0.1,0.5c-0.1,0.2-0.2,0.3-0.3,0.4
			s-0.2,0.2-0.4,0.3C82.9,54,82.7,54,82.5,54s-0.3,0-0.5-0.1c-0.2-0.1-0.3-0.2-0.4-0.3c-0.1-0.1-0.2-0.2-0.3-0.4
			c-0.1-0.2-0.1-0.3-0.1-0.5S81.2,52.3,81.3,52.2z"/>
		<path id="XMLID_5_" class="st0" d="M82.1,52.9h0.2c0.1,0,0.2,0,0.3,0.1c0.1,0.1,0.1,0.1,0.2,0.2l0.1,0.4h0.4L83,53.1
			c-0.1-0.1-0.1-0.2-0.2-0.3c0.2-0.1,0.3-0.2,0.3-0.5s-0.2-0.5-0.7-0.5h-0.7v1.8H82L82.1,52.9L82.1,52.9z M82.1,52.1h0.3
			c0.2,0,0.4,0.1,0.4,0.2c0,0.1-0.1,0.2-0.4,0.2h-0.3V52.1L82.1,52.1z"/>
	</g>
</g>
</svg>
