<?xml version="1.0" encoding="UTF-8"?>
<svg width="138px" height="26px" viewBox="0 0 138 26" version="1.1" xmlns="http://www.w3.org/2000/svg" xmlns:xlink="http://www.w3.org/1999/xlink">
    <!-- Generator: Sketch 42 (36781) - http://www.bohemiancoding.com/sketch -->
    <title>Page 1</title>
    <desc>Created with Sketch.</desc>
    <defs>
        <polygon id="path-1" points="0.530646763 0.478883721 1.61260071 0.478883721 1.61260071 1.56054419 0.530646763 1.56054419 0.530646763 0.478883721"></polygon>
        <polygon id="path-3" points="5.3837932 0.0338 5.3837932 4.90184651 0.530646763 4.90184651 0.530646763 0.0338 5.3837932 0.0338"></polygon>
    </defs>
    <g id="Page-1" stroke="none" stroke-width="1" fill="none" fill-rule="evenodd">
        <g id="home-page" transform="translate(-825.000000, -3384.000000)">
            <g id="Group-20-Copy-6" transform="translate(-1.000000, 3370.000000)">
                <g id="Group-33">
                    <g id="Group-40" transform="translate(719.000000, 14.000000)">
                        <g id="Page-1" transform="translate(107.000000, 0.000000)">
                            <path d="M31.4886659,16.4525581 C31.6469417,16.664186 31.8390474,16.7706047 32.0625666,16.7706047 L38.3192931,16.7706047 C38.4775689,16.7706047 38.6032229,16.8540465 38.6986717,17.0197209 C38.7941205,17.186 38.8412407,17.3849302 38.8412407,17.6098605 C38.8412407,17.8396279 38.7886835,18.0361395 38.6823608,18.2 C38.5760382,18.3674884 38.4546129,18.4497209 38.318689,18.4497209 L30.618149,18.4497209 C30.2236678,18.4497209 29.9065121,18.356 29.6630574,18.1655349 C29.4214149,17.9762791 29.2299133,17.7471163 29.0897607,17.4750233 C28.949004,17.2023256 28.8529511,16.9042326 28.8028103,16.5783256 C28.7526695,16.251814 28.7272971,15.9531163 28.7272971,15.6816279 C28.7272971,15.4113488 28.7526695,15.1102326 28.8028103,14.7843256 C28.8529511,14.4596279 28.949004,14.1609302 29.0897607,13.8894419 C29.2299133,13.6155349 29.4214149,13.3863721 29.6630574,13.1965116 C29.9065121,13.0072558 30.2236678,12.9129302 30.618149,12.9129302 L39.9745437,12.9129302 C40.2004794,12.9129302 40.3901687,12.8077209 40.5496527,12.5954884 C40.7073243,12.3832558 40.785254,12.1268837 40.785254,11.8239535 C40.785254,11.5216279 40.7073243,11.2646512 40.5496527,11.0530233 C40.3901687,10.8395814 40.2004794,10.7349767 39.9745437,10.7349767 L29.7017202,10.7349767 C29.2184353,10.7349767 28.9846463,10.8873488 28.6028512,11.1884651 C28.2204521,11.4926047 27.6942757,11.8813953 27.422428,12.3596744 C27.1529967,12.8361395 26.9476006,13.3646047 26.8062398,13.9474884 C26.664879,14.5297674 26.5960109,15.1108372 26.5960109,15.6852558 C26.5960109,16.2457674 26.6630667,16.8207907 26.7971782,17.4109302 C26.9331021,17.9992558 27.1276242,18.5325581 27.3801406,19.0102326 C27.633261,19.4885116 27.940751,19.8785116 28.3007982,20.1796279 C28.6614495,20.4831628 29.0716375,20.6337209 29.5331746,20.6337209 L38.7608946,20.6337209 C39.0399916,20.6337209 39.3051942,20.5623721 39.5540859,20.4190698 C39.8005612,20.2745581 40.0180393,20.0780465 40.2034999,19.8271163 C40.3895646,19.5773953 40.5327377,19.2847442 40.6348316,18.9425116 C40.7357173,18.6014884 40.7858581,18.2423256 40.7858581,17.8644186 L40.7858581,17.3637674 C40.7858581,16.9858605 40.7357173,16.626093 40.6348316,16.2874884 C40.5333418,15.9470698 40.3895646,15.6526047 40.2034999,15.4016744 C40.0180393,15.1507442 39.8005612,14.9554419 39.5540859,14.8127442 C39.3057983,14.6670233 39.0405957,14.5962791 38.7608946,14.5962791 L32.0625666,14.5962791 C31.8390474,14.5962791 31.6469417,14.702093 31.4886659,14.9131163 C31.3315983,15.1247442 31.2524604,15.3811163 31.2524604,15.6852558 C31.2524604,15.9893953 31.3315983,16.2415349 31.4886659,16.4525581" id="Fill-1" fill="#C6C9D2"></path>
                            <path d="M55.4837586,20.6294884 C55.7078819,20.6294884 55.8999876,20.5254884 56.0582634,20.3114419 C56.2159351,20.0986047 56.2944689,19.8434419 56.2944689,19.5393023 C56.2944689,19.24 56.2159351,18.981814 56.0582634,18.7689767 C55.8999876,18.5567442 55.7078819,18.4503256 55.4837586,18.4503256 L44.8466591,18.4503256 C44.6895915,18.4503256 44.5621251,18.395907 44.4678846,18.2822326 C44.3700194,18.1673488 44.3228991,18.0379535 44.3228991,17.8843721 L44.3228991,16.7724186 L55.1122333,16.7724186 C55.338169,16.7724186 55.5290665,16.6653953 55.68553,16.4543721 C55.8438058,16.2433488 55.9217355,15.9869767 55.9217355,15.6834419 C55.9217355,15.379907 55.8438058,15.1223256 55.68553,14.9113023 C55.5290665,14.6996744 55.338169,14.5944651 55.1122333,14.5944651 L43.7834324,14.5944651 C43.4125113,14.5944651 43.1388512,14.6627907 42.9642646,14.7976279 C42.7914903,14.9342791 42.7032908,15.2069767 42.7032908,15.6163256 L42.7032908,17.6594419 C42.7032908,18.1129302 42.7661178,18.5204651 42.8893554,18.8844651 C43.0138013,19.2496744 43.1702647,19.5580465 43.3623705,19.8156279 C43.5526639,20.073814 43.7731626,20.2715349 44.020242,20.4166512 C44.2685296,20.5605581 44.516213,20.6313023 44.7638965,20.6313023 L55.4837586,20.6294884 Z M42.938288,12.7079535 C43.0953556,12.920186 43.2886695,13.0253953 43.5127929,13.0253953 L55.4837586,13.0253953 C55.7078819,13.0253953 55.8999876,12.9195814 56.0582634,12.7079535 C56.2159351,12.4975349 56.2944689,12.1244651 56.2944689,11.8215349 C56.2944689,11.5192093 56.2159351,11.1189302 56.0582634,10.9054884 C55.8999876,10.6944651 55.7078819,10.5880465 55.4837586,10.5880465 L43.5127929,10.5880465 C43.2886695,10.5880465 43.0959597,10.6950698 42.938288,10.9054884 C42.7818246,11.1189302 42.7026867,11.519814 42.7026867,11.8215349 C42.7026867,12.1244651 42.7818246,12.4975349 42.938288,12.7079535 L42.938288,12.7079535 Z" id="Fill-3" fill="#C6C9D2"></path>
                            <path d="M69.7956352,11.7072558 L69.7956352,16.1798605 C69.7956352,16.7228372 69.8324857,17.1400465 69.7847613,17.4272558 C69.7412657,17.7168837 69.7207261,17.8589767 69.549764,17.8589767 C69.4603563,17.8589767 69.3437639,17.8106047 69.2054236,17.7114419 C69.0640628,17.6134884 68.8870597,17.4804651 68.6719979,17.3166047 L60.9388363,10.9574884 C60.8143904,10.8522791 60.6760501,10.7682326 60.5256277,10.7083721 C60.3727889,10.6485116 60.2187419,10.6182791 60.0610702,10.6182791 C59.598929,10.6182791 59.2135094,10.8293023 58.9042071,11.2537674 C58.5949048,11.6776279 58.4396495,12.1988372 58.4396495,12.819814 L58.4396495,19.4268372 C58.4396495,19.7285581 58.5181833,19.9855349 58.6764591,20.1983721 C58.8329226,20.4087907 59.0244242,20.515814 59.2509639,20.515814 C59.4750873,20.515814 60.0103253,20.4087907 60.1673928,20.1983721 C60.3244604,19.9849302 60.4054106,19.7279535 60.4054106,19.4268372 L60.4054106,14.9542326 C60.4054106,14.4088372 60.4271584,13.9922326 60.4712582,13.7056279 C60.5171702,13.4166047 60.5667069,13.5036744 60.7358566,13.5036744 C60.8258684,13.5036744 60.9696457,13.6106977 61.1097983,13.7098605 C61.2493468,13.8084186 61.4281622,13.9402326 61.6420157,14.105907 L69.0592299,20.1753953 C69.1830717,20.2806047 69.3208078,20.3646512 69.4742508,20.4251163 C69.6252773,20.486186 69.7799285,20.5170233 69.9388083,20.5170233 C70.4021577,20.5170233 70.9863283,20.304186 71.2956306,19.8809302 C71.6049329,19.4558605 71.7613963,18.9346512 71.7613963,18.3124651 L71.7613963,11.7072558 C71.7613963,11.4049302 71.6804461,11.1461395 71.5233785,10.9363256 C71.366311,10.724093 70.9724338,10.6188837 70.7495187,10.6188837 C70.5229789,10.6188837 70.1889083,10.7246977 70.0318407,10.9363256 C69.8753772,11.1467442 69.7956352,11.4043256 69.7956352,11.7072558" id="Fill-5" fill="#C6C9D2"></path>
                            <path d="M86.0195075,10.7319535 L74.4031521,10.7319535 C74.1760082,10.7319535 73.986923,10.8371628 73.8280432,11.0493953 C73.6697674,11.2622326 73.5924418,11.5186047 73.5924418,11.8209302 C73.5924418,12.1099535 73.6655386,12.3554419 73.8105241,12.5586047 C73.9567177,12.764186 74.1319085,12.8796744 74.3336799,12.9105116 L79.0535606,12.9105116 L79.0535606,19.538093 C79.0535606,19.8416279 79.1351149,20.0986047 79.2903701,20.3102326 C79.44925,20.5242791 79.984488,20.6282791 80.2092155,20.6282791 C80.4369634,20.6282791 81.0271751,20.5242791 81.186055,20.3102326 C81.3419143,20.0973953 81.4228645,19.8416279 81.4228645,19.538093 L81.4228645,12.9111163 L86.0189034,12.9111163 C86.2430268,12.9111163 86.4345284,12.805907 86.5928042,12.5936744 C86.7504759,12.3814419 86.8296138,12.1250698 86.8296138,11.8221395 C86.8296138,11.519814 86.7504759,11.2628372 86.5928042,11.0506047 C86.4351325,10.8371628 86.2448391,10.7319535 86.0195075,10.7319535" id="Fill-7" fill="#C6C9D2"></path>
                            <path d="M91.404509,20.6294884 L101.482206,20.6294884 C101.709954,20.6294884 101.900852,20.5254884 102.057919,20.3114419 C102.216195,20.0986047 102.294729,19.8434419 102.294729,19.5393023 C102.294729,19.24 102.216195,18.981814 102.057919,18.7689767 C101.900852,18.5567442 101.709954,18.4503256 101.482206,18.4503256 L91.6395062,18.4503256 C91.4715647,18.4503256 91.3223505,18.3686977 91.1924677,18.2006047 C91.0625849,18.0367442 90.9991538,17.8402326 90.9991538,17.6104651 L90.9991538,11.6504186 C90.9991538,11.3486977 90.9182036,11.0911163 90.7550949,10.880093 C90.5913822,10.6660465 90.202942,10.5614419 89.9872761,10.5614419 C89.7625487,10.5614419 89.4864722,10.6666512 89.32578,10.880093 C89.1699206,11.0917209 89.0907827,11.3486977 89.0907827,11.6504186 L89.0907827,17.6104651 C89.0907827,18.0367442 89.1536098,18.4291628 89.2768474,18.7937674 C89.400085,19.1541395 89.5662142,19.4727907 89.7764431,19.746093 C89.9824433,20.0187907 90.2271062,20.2358605 90.5110361,20.3912558 C90.789529,20.552093 91.0867492,20.6294884 91.404509,20.6294884" id="Fill-9" fill="#C6C9D2"></path>
                            <path d="M109.882905,13.3349767 C109.950565,13.2104186 110.047826,13.0737674 110.171064,12.9262326 C110.291281,12.7774884 110.415123,12.7043256 110.543797,12.7043256 C110.671868,12.7043256 110.795105,12.7774884 110.916531,12.9262326 C111.036748,13.0737674 111.139446,13.2110233 111.219792,13.3349767 L114.951959,20.1348837 C115.113859,20.4323721 115.33315,20.5786977 115.611039,20.5786977 C115.843015,20.5786977 116.353485,20.4698605 116.516594,20.252186 C116.678494,20.0345116 116.758236,19.7714884 116.758236,19.4582791 C116.758236,19.3022791 116.735884,19.1589767 116.689368,19.0259535 C116.643456,18.8953488 116.584858,18.7744186 116.516594,18.6631628 L112.297517,11.0772093 C112.101787,10.7204651 111.846854,10.4393023 111.533323,10.2367442 C111.219792,10.034186 110.891158,9.93381395 110.543797,9.93381395 C110.17348,9.93381395 109.826119,10.0474884 109.501714,10.2730233 C109.177309,10.4985581 108.91694,10.7893953 108.720605,11.1473488 L104.501528,18.7810698 C104.38554,18.9527907 104.328754,19.1777209 104.328754,19.4576744 C104.328754,19.7714884 104.4091,20.0333023 104.569792,20.2515814 C104.733505,20.4686512 105.359359,20.578093 105.590732,20.578093 C105.84506,20.578093 106.05831,20.4396279 106.232896,20.1566512 L109.882905,13.3349767 Z" id="Fill-11" fill="#C6C9D2"></path>
                            <path d="M118.79649,12.5930698 C118.95537,12.805907 119.145663,12.9105116 119.372203,12.9105116 L129.437818,12.9105116 C129.606364,12.9105116 129.755578,12.9987907 129.884857,13.1717209 C130.013531,13.3470698 130.078775,13.5466047 130.078775,13.7727442 C130.078775,14.0164186 130.015948,14.2135349 129.89271,14.3646977 C129.768868,14.5164651 129.622675,14.5914419 129.452317,14.5914419 L119.582432,14.5914419 C119.211511,14.5914419 118.937247,14.6597674 118.764472,14.7946047 C118.589886,14.9312558 118.501082,15.2039535 118.501082,15.6133023 L118.501082,17.6564186 C118.501082,18.109907 118.563909,18.5174419 118.687751,18.8814419 C118.811593,19.2466512 118.96866,19.5550233 119.158954,19.8126047 C119.350455,20.0707907 119.57035,20.2685116 119.819242,20.4136279 C120.065113,20.5575349 120.312192,20.6282791 120.561688,20.6282791 L129.711478,20.6282791 C130.026822,20.6282791 130.322834,20.5508837 130.600118,20.3888372 C130.874987,20.2328372 131.116025,20.0163721 131.324441,19.7436744 C131.532254,19.4703721 131.694758,19.1517209 131.814976,18.7913488 C131.93338,18.4261395 131.991979,18.0343256 131.991979,17.6080465 C131.991979,17.2452558 131.944254,16.9024186 131.84941,16.5765116 C131.754565,16.25 131.62589,15.9585581 131.469427,15.7009767 C131.62589,15.4433953 131.754565,15.1543721 131.84941,14.8278605 C131.944254,14.5037674 131.991979,14.1524651 131.991979,13.7721395 C131.991979,13.3494884 131.93338,12.9522326 131.814976,12.5815814 C131.695967,12.2097209 131.532254,11.8886512 131.324441,11.6165581 C131.116025,11.3426512 130.874987,11.1267907 130.600118,10.9683721 C130.322834,10.8099535 130.02803,10.7301395 129.711478,10.7301395 L119.370995,10.7301395 C119.144455,10.7301395 118.954162,10.8353488 118.795282,11.0475814 C118.636402,11.259814 118.559076,11.5167907 118.559076,11.8191163 C118.561493,12.1244651 118.638818,12.3814419 118.79649,12.5930698 L118.79649,12.5930698 Z M120.935025,18.4497209 C120.777354,18.4497209 120.649283,18.3953023 120.556251,18.2816279 C120.459594,18.1667442 120.413078,18.0373488 120.413078,17.8837674 L120.413078,16.771814 L129.438422,16.771814 C129.607572,16.771814 129.756786,16.8528372 129.886065,17.0100465 C130.01474,17.1702791 130.079983,17.3692093 130.079983,17.6110698 C130.079983,17.8408372 130.01474,18.0373488 129.886065,18.2012093 C129.756786,18.3686977 129.607572,18.4509302 129.438422,18.4509302 L120.935025,18.4497209 Z" id="Fill-13" fill="#C6C9D2"></path>
                            <path d="M12.0243686,15.8491163 C10.402948,15.9041395 7.70198979,14.1742326 7.00001855,14.1742326 C6.29804731,14.1742326 6.1373551,16.9308372 7.81012478,18.3372558 C9.48531088,19.7436744 13.0495366,19.0930698 13.4283111,17.0408837 C13.8064815,14.9856744 13.6445811,15.7965116 12.0243686,15.8491163" id="Fill-15" fill="#C6C9D2"></path>
                            <path d="M12.4013308,1.8472093 C12.7299645,1.8472093 12.9957712,2.11325581 12.9957712,2.44218605 C12.9957712,2.77051163 12.7299645,3.03655814 12.4013308,3.03655814 C12.0733012,3.03655814 11.8080987,2.77111628 11.8080987,2.44218605 C11.8080987,2.11325581 12.0733012,1.8472093 12.4013308,1.8472093" id="Fill-17" fill="#C6C9D2"></path>
                            <g id="Group-21" transform="translate(9.061591, 0.125828)">
                                <mask id="mask-2" fill="white">
                                    <use xlink:href="#path-1"></use>
                                </mask>
                                <g id="Clip-20"></g>
                                <path d="M1.07192579,0.478823256 C1.37035419,0.478823256 1.61260071,0.718869767 1.61260071,1.01877674 C1.61260071,1.31626512 1.37035419,1.56054419 1.07192579,1.56054419 C0.773497398,1.56054419 0.530646763,1.31686977 0.530646763,1.01877674 C0.530646763,0.719474419 0.773497398,0.478823256 1.07192579,0.478823256" id="Fill-19" fill="#FFFFFF" mask="url(#mask-2)"></path>
                            </g>
                            <path d="M10.2404435,2.65804651 C10.8070949,2.65804651 11.2674238,3.1187907 11.2674238,3.68655814 C11.2674238,4.25372093 10.8070949,4.71265116 10.2404435,4.71265116 C9.67439608,4.71265116 9.21527547,4.25372093 9.21527547,3.68655814 C9.21527547,3.11818605 9.67439608,2.65804651 10.2404435,2.65804651" id="Fill-22" fill="#C6C9D2"></path>
                            <g id="Group-26" transform="translate(0.000000, 4.963037)" fill="#C6C9D2">
                                <path d="M20.4238593,10.5069628 C20.3960704,12.5077535 20.6389211,12.4285442 19.0730781,12.4285442 C18.2170599,12.4285442 17.5217338,12.7048698 17.1931001,13.6674744 C16.9212524,14.4692419 17.4921326,14.9989163 17.8848015,15.4282186 C18.7480691,16.3763116 18.6411423,16.2686837 17.3175459,17.725893 C15.9951578,19.1855209 16.0211343,19.0234744 14.9403886,17.9967767 C13.8596429,16.9712884 11.9965798,17.6466837 11.969395,19.1855209 C11.9428143,20.7285907 11.9428143,20.5109163 9.99759282,20.5381256 C8.05297541,20.5665442 8.13513384,20.727986 8.1611104,19.3227767 C8.17440073,18.6032419 8.11278191,17.9465907 7.45913916,17.5638465 C6.83388939,17.1968233 5.62748959,17.077707 5.21850978,17.701707 C4.38001057,18.9720791 4.24589903,18.8082186 3.00385697,17.5638465 C1.7606067,16.3206837 1.5709174,16.4567302 2.57071292,15.427614 C3.13555209,14.8489628 3.30530589,13.8222651 2.90417947,13.125707 C2.5985018,12.5863581 1.85243082,12.2900791 1.30088199,12.2671023 C0.0310510515,12.2120791 -0.0221102818,12.6704047 0.00447038484,10.5904047 C0.0304469454,8.5098 -0.0770839332,8.58961395 1.30088199,8.56240465 C2.01855999,8.54849767 2.74832011,8.11073023 3.03224995,7.47040465 C3.29141145,6.88026512 3.1560917,6.10873023 2.65105903,5.61714884 C1.59870628,4.58924186 1.84699387,4.34617209 3.07876612,3.11268372 C4.30993427,1.8798 4.3528258,1.91305581 5.2704629,2.72389302 C5.78576537,3.1785907 6.57835252,3.49724186 7.21749673,3.27110233 C7.71890476,3.09333488 8.14600775,2.51891628 8.13452973,1.83142791 C8.10734496,0.264172093 7.21628852,1.0750093 7.21628852,0.667474419 C7.21628852,0.264172093 7.18789554,0.126916279 7.86328611,0.126916279 C8.03364402,0.126916279 8.36650646,0.129939535 8.78213143,0.131753488 L8.78213143,5.97691628 C6.86892754,6.55919535 5.47525486,8.33747442 5.47525486,10.4434744 C5.47525486,13.0235209 7.56546182,15.1168233 10.1431824,15.1168233 C12.7202988,15.1168233 14.8111099,13.0241256 14.8111099,10.4434744 C14.8111099,8.36286977 13.4488507,6.59970698 11.5688727,5.99686977 L11.5688727,0.161986047 C11.98631,0.169846512 12.3270258,0.174683721 12.5082576,0.183148837 C13.2374136,0.208544186 13.2108329,0.453427907 13.2108329,0.696497674 C13.2108329,0.939567442 12.2382222,0.372404651 12.2382222,1.77761395 C12.2382222,2.48747442 12.6502225,3.15077674 13.2198945,3.35091628 C13.7774844,3.54682326 14.4854967,3.28682326 15.102289,2.69728837 C16.3449352,1.50733488 16.127457,1.83203256 17.5332118,3.26505581 C18.9359461,4.69747442 18.8549959,4.4538 17.6135579,5.75017209 C16.9671644,6.42496279 17.1200033,7.29445116 17.5543555,7.84226512 C17.9542737,8.34775349 18.5855646,8.56119535 19.2337704,8.56119535 C20.5851556,8.5618 20.45044,8.50919535 20.4238593,10.5069628" id="Fill-24"></path>
                            </g>
                            <g id="Group-29" transform="translate(131.695121, 6.776991)">
                                <mask id="mask-4" fill="white">
                                    <use xlink:href="#path-3"></use>
                                </mask>
                                <g id="Clip-28"></g>
                                <path d="M1.17764435,1.7213814 C1.27913417,1.4873814 1.41807856,1.2830093 1.59326932,1.10705581 C1.7702724,0.931102326 1.97446024,0.792032558 2.21006161,0.690451163 C2.44687118,0.587660465 2.69636699,0.535660465 2.96096544,0.535660465 C3.22556389,0.535660465 3.4756638,0.587660465 3.70582821,0.690451163 C3.94142957,0.793846512 4.14440921,0.935334884 4.31899586,1.11068372 C4.49599894,1.28663721 4.63373512,1.4898 4.73522494,1.7250093 C4.83550654,1.96082326 4.88443913,2.20631163 4.88443913,2.46812558 C4.88443913,2.73356744 4.83429833,2.98449767 4.73099619,3.21970698 C4.62950638,3.45612558 4.49116609,3.66049767 4.31537122,3.83584651 C4.13836815,4.01119535 3.93659673,4.15147442 3.70099536,4.25305581 C3.46962274,4.35403256 3.22073104,4.40603256 2.95915312,4.40603256 C2.69455467,4.40603256 2.44385065,4.35463721 2.20764518,4.25305581 C1.97264793,4.15147442 1.76785597,4.01119535 1.591457,3.83584651 C1.41807856,3.66049767 1.27732185,3.45612558 1.17583203,3.21970698 C1.073134,2.98510233 1.02118088,2.73417209 1.02118088,2.46812558 C1.0229932,2.20570698 1.07494632,1.95719535 1.17764435,1.7213814 M1.24832476,4.19017209 C1.4712399,4.41026512 1.72858908,4.5838 2.02460105,4.7125907 C2.32000891,4.83896279 2.63112353,4.90184651 2.96398597,4.90184651 C3.18448468,4.90184651 3.39713001,4.8722186 3.60313018,4.81417209 C3.80913035,4.75431163 4.00184018,4.67207907 4.18186379,4.56505581 C4.36369971,4.45803256 4.52499603,4.32984651 4.67300201,4.18231163 C4.82040389,4.03356744 4.94666206,3.87031163 5.05177651,3.69012558 C5.15628686,3.50993953 5.23844528,3.31645116 5.29704357,3.10845116 C5.35503775,2.90105581 5.38403484,2.68761395 5.38403484,2.46691628 C5.38403484,2.24863721 5.35262133,2.03398605 5.29583536,1.82719535 C5.23602886,1.62161395 5.15326633,1.42873023 5.04573545,1.24793953 C4.940621,1.06775349 4.81255051,0.905102326 4.66333631,0.75635814 C4.51714265,0.607613953 4.3528258,0.479427907 4.1734063,0.373009302 C3.9939868,0.265381395 3.80248518,0.181939535 3.59829733,0.123893023 C3.39410948,0.063427907 3.18267236,0.0338 2.96459008,0.0338 C2.63233174,0.0338 2.32182123,0.0978930233 2.02460105,0.226683721 C1.72979729,0.355474419 1.47244811,0.530823256 1.24832476,0.750916279 C1.02782605,0.9698 0.852635292,1.2285907 0.724564808,1.52245116 C0.594682005,1.81752093 0.530646763,2.13254419 0.530646763,2.46691628 C0.530646763,2.80249767 0.594682005,3.11933488 0.724564808,3.4150093 C0.852031186,3.71249767 1.02722194,3.97007907 1.24832476,4.19017209" id="Fill-27" fill="#C6C9D2" mask="url(#mask-4)"></path>
                            </g>
                            <path d="M134.097892,8.40827907 L134.55218,8.40827907 C134.932163,8.40827907 135.122456,8.52013953 135.122456,8.74688372 C135.122456,8.97906977 134.936392,9.09576744 134.561846,9.09576744 L134.09608,9.09576744 L134.09608,8.40827907 L134.097892,8.40827907 Z M134.097892,9.55409302 L134.371552,9.55409302 C134.531036,9.55409302 134.66394,9.59339535 134.766034,9.6744186 C134.866919,9.75302326 134.947265,9.86790698 135.002843,10.0196744 L135.213072,10.6146512 L135.799659,10.6146512 L135.504855,9.9047907 C135.419072,9.70223256 135.297647,9.55711628 135.139975,9.46762791 C135.489149,9.38055814 135.664943,9.1284186 135.664943,8.71302326 C135.664943,8.20934884 135.312146,7.95660465 134.601717,7.95660465 L133.587423,7.95660465 L133.587423,10.6146512 L134.097892,10.6146512 L134.097892,9.55409302 Z" id="Fill-30" fill="#C6C9D2"></path>
                        </g>
                    </g>
                </g>
            </g>
        </g>
    </g>
</svg>